<svg xmlns="http://www.w3.org/2000/svg" width="15.957" height="15.937" viewBox="0 0 15.957 15.937">
  <g id="Camada_1-2" transform="translate(-0.014 0.015)">
    <path id="Caminho_690" data-name="Caminho 690" d="M1.674,11.7c0-.22,0-.441,0-.661a1.057,1.057,0,0,0-.264-.7Q.968,9.828.531,9.309a2.042,2.042,0,0,1,0-2.718c.116-.137.229-.277.35-.411a.556.556,0,1,1,.842.726c-.113.14-.232.275-.348.412a.925.925,0,0,0,0,1.265c.288.341.576.683.868,1.021a2.165,2.165,0,0,1,.543,1.449c0,.377,0,.754,0,1.131a.891.891,0,0,0,.962.951c.377,0,.754,0,1.131,0a2.165,2.165,0,0,1,1.438.527c.355.3.706.6,1.059.9a.918.918,0,0,0,1.236.006c.355-.3.706-.6,1.059-.9a2.153,2.153,0,0,1,1.418-.533c.383,0,.766,0,1.149,0a.889.889,0,0,0,.941-.937c0-.383,0-.766,0-1.149a2.137,2.137,0,0,1,.52-1.4c.306-.364.619-.723.926-1.086a.911.911,0,0,0,.01-1.2c-.3-.366-.618-.723-.925-1.086a2.154,2.154,0,0,1-.53-1.418c0-.383,0-.766,0-1.149a.887.887,0,0,0-.941-.937c-.383,0-.766,0-1.149,0a2.164,2.164,0,0,1-1.42-.528c-.363-.307-.722-.62-1.086-.925a.906.906,0,0,0-1.182,0c-.366.3-.723.618-1.086.925a2.164,2.164,0,0,1-1.435.533c-.36,0-.72.015-1.079,0a.92.92,0,0,0-1.022.918.5.5,0,0,1-.33.472.527.527,0,0,1-.558-.07.542.542,0,0,1-.217-.47A1.992,1.992,0,0,1,3.619,1.663c.417-.012.835-.005,1.253,0A1.084,1.084,0,0,0,5.6,1.386C5.939,1.1,6.275.814,6.61.527A2.037,2.037,0,0,1,9.366.516c.341.288.68.58,1.019.87a1.1,1.1,0,0,0,.732.273,14.372,14.372,0,0,1,1.477.035,1.959,1.959,0,0,1,1.7,1.924c.007.406,0,.812,0,1.218a1.067,1.067,0,0,0,.265.717q.434.51.87,1.018a2.035,2.035,0,0,1,.016,2.743c-.295.351-.6.7-.892,1.046a1.066,1.066,0,0,0-.259.7,13.31,13.31,0,0,1-.032,1.459,1.962,1.962,0,0,1-1.99,1.727q-.574,0-1.149,0a1.076,1.076,0,0,0-.732.271c-.351.3-.7.606-1.059.9a2.032,2.032,0,0,1-2.689-.02c-.326-.279-.656-.554-.978-.838a1.209,1.209,0,0,0-.857-.318c-.423.007-.849.025-1.27-.009a1.981,1.981,0,0,1-1.864-2.03c0-.168,0-.336,0-.5Z" fill="#fff"/>
    <path id="Caminho_691" data-name="Caminho 691" d="M106.383,126.815c.773-.768,1.509-1.5,2.244-2.232.312-.311.621-.626.934-.936a.559.559,0,1,1,.793.781q-1.755,1.763-3.515,3.522a.557.557,0,0,1-.858,0q-.869-.866-1.73-1.739a.557.557,0,1,1,.785-.787q.618.612,1.228,1.232a1.423,1.423,0,0,1,.119.16Z" transform="translate(-99.313 -117.836)" fill="#fff"/>
  </g>
</svg>
