<svg xmlns="http://www.w3.org/2000/svg" width="20.258" height="25.546" viewBox="0 0 20.258 25.546">
  <g id="_ëîé_1" transform="translate(-0.002 0.007)">
    <path id="Caminho_630" data-name="Caminho 630" d="M5.029,5.735A5.192,5.192,0,0,1,6.832,1.2a4.906,4.906,0,0,1,3.351-1.21A4.972,4.972,0,0,1,13.977,1.74a5.255,5.255,0,0,1,1.255,3.995c.643,0,1.252-.009,1.861,0a2.521,2.521,0,0,1,2.463,2.3c.048.6.07,1.2.1,1.806q.207,4.358.411,8.717c.067,1.426.139,2.852.191,4.279a2.531,2.531,0,0,1-2.594,2.694q-7.531.007-15.062,0A2.526,2.526,0,0,1,0,22.845c.129-3.021.28-6.041.421-9.062C.5,12.1.578,10.416.66,8.733a6.385,6.385,0,0,1,.1-1.03A2.512,2.512,0,0,1,3.192,5.735c.6-.008,1.2,0,1.838,0Zm5.1,18.1h7.505a.847.847,0,0,0,.926-.95q-.013-.425-.032-.851-.2-4.346-.409-8.69c-.08-1.692-.156-3.384-.245-5.076a.848.848,0,0,0-.941-.864q-6.813.018-13.626.039a.832.832,0,0,0-.906.838c-.045.708-.068,1.418-.1,2.126Q2,16.6,1.712,22.791c-.033.717.288,1.044,1.014,1.044h7.4ZM6.739,5.715h6.786a3.458,3.458,0,0,0-1.608-3.506,3.211,3.211,0,0,0-3.571,0A3.447,3.447,0,0,0,6.74,5.715Z" transform="translate(0)" fill="#1b75ce"/>
    <path id="Caminho_631" data-name="Caminho 631" d="M77.059,134.986a5.1,5.1,0,0,1-4.993-3.9.868.868,0,1,1,1.671-.412,3.4,3.4,0,0,0,6.449.56,5.509,5.509,0,0,0,.208-.657.872.872,0,0,1,1.085-.646.859.859,0,0,1,.587,1.07,5.1,5.1,0,0,1-5.006,3.98Z" transform="translate(-66.902 -120.676)" fill="#1b75ce"/>
  </g>
</svg>
