<svg xmlns="http://www.w3.org/2000/svg" width="13.001" height="13" viewBox="0 0 13.001 13">
  <g id="plane" transform="translate(0.003 -0.222)">
    <path id="Caminho_570" data-name="Caminho 570" d="M12.761.459a1.363,1.363,0,0,1,.111,1.373,4.049,4.049,0,0,1-1,1.6L10.378,4.921l1.484,6.456a.281.281,0,0,1-.111.306l-1.187.89a.262.262,0,0,1-.176.056.206.206,0,0,1-.065-.009.257.257,0,0,1-.195-.148L7.539,7.759l-2.4,2.4.492,1.8a.282.282,0,0,1-.074.288l-.89.89a.289.289,0,0,1-.213.083H4.432a.333.333,0,0,1-.223-.121L2.456,10.764.118,9.011A.277.277,0,0,1,0,8.8a.318.318,0,0,1,.083-.232l.89-.9a.289.289,0,0,1,.213-.083.193.193,0,0,1,.074.009l1.8.492,2.4-2.4L.749,3.093a.311.311,0,0,1-.158-.223.286.286,0,0,1,.083-.25L1.862,1.433a.27.27,0,0,1,.278-.074L8.309,2.833,9.793,1.349a4.049,4.049,0,0,1,1.6-1A1.363,1.363,0,0,1,12.761.459Z" transform="translate(0 0)" fill="#fff"/>
  </g>
</svg>
