<svg xmlns="http://www.w3.org/2000/svg" width="19.402" height="20" viewBox="0 0 19.402 20">
  <g id="Camada_1-2" transform="translate(0.005 -0.003)">
    <path id="Caminho_912" data-name="Caminho 912" d="M42.48,39.6a8.02,8.02,0,1,1-8.008-8.018A8.04,8.04,0,0,1,42.48,39.6Zm-1.5-.014a6.52,6.52,0,1,0-6.488,6.53,6.5,6.5,0,0,0,6.488-6.53Z" transform="translate(-24.789 -29.6)" fill="#fff"/>
    <path id="Caminho_913" data-name="Caminho 913" d="M233.12,268.226a.718.718,0,0,1-.389.7,1.528,1.528,0,0,0-.614.613.72.72,0,0,1-1.291-.013,1.611,1.611,0,0,0-.6-.6.721.721,0,0,1,0-1.3,1.534,1.534,0,0,0,.583-.579.723.723,0,0,1,1.314-.009,1.476,1.476,0,0,0,.6.592.671.671,0,0,1,.388.591Z" transform="translate(-215.44 -249.936)" fill="#fff"/>
    <path id="Caminho_914" data-name="Caminho 914" d="M29.359,1.652a.707.707,0,0,1-.388.653,1.533,1.533,0,0,0-.615.611.719.719,0,0,1-1.29,0A1.67,1.67,0,0,0,26.45,2.3a.719.719,0,0,1,.013-1.29,1.617,1.617,0,0,0,.6-.6.72.72,0,0,1,1.3,0,1.464,1.464,0,0,0,.6.594.7.7,0,0,1,.395.641Z" transform="translate(-24.428 0)" fill="#fff"/>
    <path id="Caminho_915" data-name="Caminho 915" d="M2.024,51.112c-.13.16-.222.284-.325.4a4.188,4.188,0,0,0-.333.343.447.447,0,0,1-.788.005A1.567,1.567,0,0,0,.223,51.5a.446.446,0,0,1,.016-.786A1.265,1.265,0,0,0,.562,50.4a.449.449,0,0,1,.811-.007,3.391,3.391,0,0,0,.319.325c.1.113.2.235.331.394Z" transform="translate(0 -46.999)" fill="#fff"/>
    <path id="Caminho_916" data-name="Caminho 916" d="M279.68,239.257c-.124.158-.209.279-.307.388a4.834,4.834,0,0,0-.35.358.45.45,0,0,1-.79-.007,1.62,1.62,0,0,0-.356-.351.446.446,0,0,1,.007-.775,1.565,1.565,0,0,0,.354-.353.448.448,0,0,1,.788.006,4.179,4.179,0,0,0,.333.343c.1.114.2.237.322.391Z" transform="translate(-260.282 -223.37)" fill="#fff"/>
    <path id="Caminho_917" data-name="Caminho 917" d="M117.649,80.062a2.51,2.51,0,0,1,1.42,1.1.747.747,0,0,1-1.24.827c-.029-.037-.054-.076-.083-.114a1.083,1.083,0,0,0-1.408-.269.9.9,0,0,0-.421,1,.971.971,0,0,0,.948.7,2.605,2.605,0,0,1,1.664.591,2.376,2.376,0,0,1-.51,4c-.112.054-.228.1-.371.16,0,.1.006.217,0,.33a.748.748,0,0,1-1.495-.008c-.005-.1,0-.2,0-.319l-.19-.077a2.467,2.467,0,0,1-1.2-.973A.75.75,0,1,1,116,86.176a1.075,1.075,0,0,0,1.206.457.94.94,0,0,0,.7-.958.956.956,0,0,0-.957-.855,2.662,2.662,0,0,1-1.279-.322,2.31,2.31,0,0,1-1.275-2.206,2.346,2.346,0,0,1,1.554-2.147c.141-.061.2-.113.2-.277a.758.758,0,0,1,.749-.859.77.77,0,0,1,.745.867v.187Z" transform="translate(-107.242 -74.063)" fill="#fff"/>
  </g>
</svg>
