<svg xmlns="http://www.w3.org/2000/svg" width="20.046" height="20" viewBox="0 0 20.046 20">
  <g id="Camada_1-2" transform="translate(0 0.002)">
    <path id="Caminho_932" data-name="Caminho 932" d="M0,263.614a.646.646,0,0,1,.7-.374c.39.021.782.008,1.174,0,.375,0,.476-.084.592-.44.122-.378.243-.756.366-1.133.094-.288.249-.417.5-.419a.5.5,0,0,1,.5.412c.126.383.248.768.372,1.152.111.344.214.425.58.429.424.006.848,0,1.271,0,.328,0,.493.1.576.36a.526.526,0,0,1-.25.636c-.343.248-.688.495-1.03.744a.51.51,0,0,0-.212.679c.137.4.279.8.415,1.2a.5.5,0,0,1-.149.614.522.522,0,0,1-.652-.016c-.356-.253-.708-.512-1.063-.766a.516.516,0,0,0-.713,0c-.349.251-.7.5-1.047.755a.53.53,0,0,1-.668.026.5.5,0,0,1-.14-.632c.135-.394.273-.787.407-1.181a.512.512,0,0,0-.212-.68c-.31-.228-.629-.443-.933-.678A3.982,3.982,0,0,1,0,263.927v-.313Z" transform="translate(0 -247.588)" fill="#fff"/>
    <path id="Caminho_933" data-name="Caminho 933" d="M59.6,7.828a4.43,4.43,0,1,1,5.651.016c.074.03.135.057.2.082a8.326,8.326,0,0,1,3.862,3.066.784.784,0,1,1-1.286.891c-.022-.032-.044-.065-.067-.1a6.563,6.563,0,0,0-4.927-2.828,6.631,6.631,0,0,0-6.208,2.878.937.937,0,0,1-.556.43.776.776,0,0,1-.82-.33.753.753,0,0,1,.011-.881,8.354,8.354,0,0,1,4-3.165C59.5,7.871,59.55,7.849,59.6,7.828Zm2.854-6.265A2.855,2.855,0,1,0,65.3,4.442a2.858,2.858,0,0,0-2.844-2.879Z" transform="translate(-52.419 0)" fill="#fff"/>
    <path id="Caminho_934" data-name="Caminho 934" d="M129.219,210.829c.248,0,.5,0,.744,0a.456.456,0,0,0,.467-.366c.121-.406.258-.806.391-1.209.094-.286.253-.415.5-.414s.4.13.5.418c.132.4.261.805.394,1.208a.43.43,0,0,0,.486.363c.444.012.887.005,1.331.006.342,0,.509.106.59.368a.528.528,0,0,1-.26.632c-.343.249-.688.5-1.03.745a.5.5,0,0,0-.208.664c.137.4.277.8.414,1.2a.5.5,0,0,1-.154.628.524.524,0,0,1-.652-.028c-.35-.25-.7-.5-1.048-.755a.52.52,0,0,0-.729,0c-.344.247-.687.5-1.031.744a.531.531,0,0,1-.668.033.5.5,0,0,1-.147-.63c.135-.394.274-.788.408-1.182a.517.517,0,0,0-.222-.694c-.348-.254-.7-.5-1.047-.757a.51.51,0,0,1-.224-.61.493.493,0,0,1,.535-.364c.222,0,.444,0,.665,0v-.006Z" transform="translate(-121.296 -197.919)" fill="#fff"/>
    <path id="Caminho_935" data-name="Caminho 935" d="M257.188,263.229c.248,0,.5,0,.744,0a.456.456,0,0,0,.468-.365c.121-.406.258-.806.39-1.209.095-.287.252-.416.5-.415s.4.13.5.417c.128.39.252.781.379,1.171.1.317.21.4.558.4.463.007.927-.006,1.39.006a.517.517,0,0,1,.423.794.813.813,0,0,1-.209.2c-.341.252-.687.5-1.03.746a.5.5,0,0,0-.209.664c.136.4.277.8.414,1.2a.5.5,0,0,1-.152.629.523.523,0,0,1-.652-.027c-.35-.25-.7-.5-1.048-.755a.52.52,0,0,0-.73,0c-.36.259-.717.523-1.08.777a.5.5,0,0,1-.744-.144.672.672,0,0,1-.03-.443c.117-.406.27-.8.408-1.2a.53.53,0,0,0-.231-.724c-.343-.249-.688-.495-1.031-.745a.511.511,0,0,1-.226-.61.492.492,0,0,1,.534-.365c.222,0,.444,0,.665,0v-.006Z" transform="translate(-242.572 -247.579)" fill="#fff"/>
  </g>
</svg>
