<svg xmlns="http://www.w3.org/2000/svg" width="12.071" height="13" viewBox="0 0 12.071 13">
  <g id="bag-handle" transform="translate(-4.5 -3)">
    <path id="Caminho_569" data-name="Caminho 569" d="M16.3,6.987a.923.923,0,0,0-.657-.273H13.786V6.25a3.25,3.25,0,0,0-6.5,0v.464H5.429a.929.929,0,0,0-.929.929v6.268A2.118,2.118,0,0,0,6.589,16h7.893a2.1,2.1,0,0,0,1.465-.6,2.016,2.016,0,0,0,.624-1.457v-6.3a.921.921,0,0,0-.271-.656ZM8.214,6.25a2.321,2.321,0,0,1,4.643,0v.464H8.214Zm5.571,2.786a3.25,3.25,0,1,1-6.5,0V8.571a.464.464,0,0,1,.929,0v.464a2.321,2.321,0,1,0,4.643,0V8.571a.464.464,0,0,1,.929,0Z" transform="translate(0 0)" fill="#fff"/>
  </g>
</svg>
