<svg xmlns="http://www.w3.org/2000/svg" width="15.158" height="20.907" viewBox="0 0 15.158 20.907">
  <g id="Camada_1-2" transform="translate(0.017 0.005)">
    <path id="Caminho_894" data-name="Caminho 894" d="M8,0A8.464,8.464,0,0,1,9.63.427a.409.409,0,1,1-.31.753A4.7,4.7,0,0,0,7.412.818c-5.3.132-5.925,8.026-.678,8.961a4.546,4.546,0,0,0,5-6.159c-.268-.549.445-.94.716-.388A5.429,5.429,0,0,1,7.973,10.7v2.568a4.861,4.861,0,0,1,5.064-1.865.486.486,0,0,1,.387.418,4.756,4.756,0,0,1-3.07,5.6c.309.153,1.306,1.059,1.524.911,2.4-1.085,4.212,2.513,2.725,2.569H.5c-.4,0-.542-.156-.515-.551a2.339,2.339,0,0,1,3.237-2.02c.239.15,1.177-.761,1.49-.917a4.78,4.78,0,0,1-3.038-5.586.515.515,0,0,1,.444-.436A4.737,4.737,0,0,1,7.13,13.312V10.7C.135,9.844.979-.349,8,0Zm6.238,20.072a1.521,1.521,0,0,0-2.218-.911c-.882.707-2.158-2.692-6.367-1.223a5.014,5.014,0,0,0-1.874,1.2c-.253.287-.5.153-.778-.02a1.51,1.51,0,0,0-2.13.954H14.239ZM7.96,16.268c.584-.553,1.107-1.1,1.677-1.664a.446.446,0,0,1,.673-.094.469.469,0,0,1-.127.7c-.533.545-1.086,1.059-1.6,1.621a3.905,3.905,0,0,0,4.11-4.53c-.02-.128-.088-.162-.2-.178A3.954,3.954,0,0,0,7.96,16.269Zm-1.466.581.043-.059c-.6-.511-1.122-1.1-1.684-1.647a.415.415,0,1,1,.582-.573c.568.562,1.112,1.123,1.688,1.681a3.921,3.921,0,0,0-4.532-4.123c-.129.023-.162.089-.179.2a3.94,3.94,0,0,0,4.084,4.52Z" transform="translate(0)" fill="#fff"/>
    <path id="Caminho_895" data-name="Caminho 895" d="M108.518,37.248c.161,1.014-.95,1.069-.816.035-.494-.045-1.606-.323-1.311-.976.327-.462.874.087,1.311.214,0-.709-.007-1.278,0-1.962a.211.211,0,0,0-.147-.231,1.5,1.5,0,0,1,.145-2.912c-.169-.942.954-.989.814-.038.282.135.554.253.813.394a.4.4,0,0,1-.135.738,1.464,1.464,0,0,1-.676-.251c0,.529,0,1.016,0,1.5.013.1.126.146.215.167a1.733,1.733,0,0,1-.219,3.319Zm0-.9c.679-.243.762-1.462,0-1.584Zm-.83-4.07a.648.648,0,0,0,0,1.2Z" transform="translate(-100.558 -29.018)" fill="#fff"/>
    <path id="Caminho_896" data-name="Caminho 896" d="M195.979,27.278a.406.406,0,0,1-.81,0A.406.406,0,0,1,195.979,27.278Z" transform="translate(-184.542 -25.417)" fill="#fff"/>
  </g>
</svg>
