<svg xmlns="http://www.w3.org/2000/svg" width="21" height="21.01" viewBox="0 0 21 21.01">
  <g id="Camada_1-2" transform="translate(0.002 0.005)">
    <path id="Caminho_963" data-name="Caminho 963" d="M.461,21.005c-.49-.272-.507-.462-.426-1.172A1.746,1.746,0,0,1,1.17,18.37q2.493-1.063,4.989-2.12c.155-.065.237-.141.2-.311a.153.153,0,0,1,0-.041,2.33,2.33,0,0,0-.423-1.7,3.407,3.407,0,0,1-.566-1.564c-.009-.06-.028-.118-.046-.191-.337,0-.671,0-1.005,0a1.837,1.837,0,0,1-1.894-1.884q0-1.291,0-2.582a1.822,1.822,0,0,1,1.431-1.81c.138-.033.163-.1.169-.223a7.415,7.415,0,0,1,.6-2.742A4.916,4.916,0,0,1,7.8.407,9.12,9.12,0,0,1,12.949.328,5.067,5.067,0,0,1,16.77,4.394c.126.557.176,1.13.266,1.731.019.005.082.025.145.041a1.837,1.837,0,0,1,1.4,1.759c.008.9.01,1.8,0,2.7a1.831,1.831,0,0,1-1.822,1.81c-.354,0-.709,0-1.064,0-.08.313-.143.62-.237.916a4.8,4.8,0,0,1-.711,1.376.535.535,0,0,0-.094.277c-.011.321.005.642-.009.963a.24.24,0,0,0,.183.266c1.551.656,3.091,1.339,4.654,1.966A2.187,2.187,0,0,1,21,19.816v.738a.95.95,0,0,1-.451.451H.461Zm13.731-7.786c-.345.164-.677.353-1.03.483a6.175,6.175,0,0,1-2.252.17.331.331,0,0,1-.117-.034.611.611,0,0,1,.219-1.179c.32-.013.642-.01.963,0a2.362,2.362,0,0,0,1.424-.433q.455-.314.921-.612a.307.307,0,0,0,.165-.294c-.007-1.366-.009-2.732,0-4.1a3.888,3.888,0,0,0-.65-2.078.924.924,0,0,0-1.208-.459c-.412.118-.813.275-1.213.431a2.406,2.406,0,0,1-1.8.01C9.185,4.96,8.748,4.8,8.3,4.673a.9.9,0,0,0-1.052.3A3.316,3.316,0,0,0,6.543,6.88c-.049,1.672-.023,3.346-.011,5.019a3.443,3.443,0,0,0,.705,2.079A3.834,3.834,0,0,0,10.2,15.533a3.989,3.989,0,0,0,3.383-1.323,3.1,3.1,0,0,0,.607-.99ZM5.243,6.1c.179,0,.182.006.22-.131a5.079,5.079,0,0,1,.706-1.6,2.071,2.071,0,0,1,2.3-.907,13.718,13.718,0,0,1,1.552.507,1.252,1.252,0,0,0,.953,0c.308-.128.623-.241.937-.353A3.035,3.035,0,0,1,13.153,3.4a2.122,2.122,0,0,1,1.757,1.15,12.2,12.2,0,0,1,.618,1.42c.046.111.079.184.251.113-.05-.389-.082-.789-.155-1.182a4,4,0,0,0-3.165-3.43A8.5,8.5,0,0,0,9.1,1.354a4.614,4.614,0,0,0-2.282.936,4.934,4.934,0,0,0-1.58,3.8Zm2.375,9.9-.074.016a14.667,14.667,0,0,0,.186,1.617,2.44,2.44,0,0,0,1.887,2.038,4.368,4.368,0,0,0,1.156.1,2.411,2.411,0,0,0,2.2-1.32,4.722,4.722,0,0,0,.338-.938,4.968,4.968,0,0,0,.095-1.516,5.693,5.693,0,0,1-5.789.007Zm5.941,3.766h6.09l.025-.054a3.2,3.2,0,0,0-.387-.234q-2.076-.892-4.156-1.774c-.179-.076-.36-.15-.553-.229a4.648,4.648,0,0,1-1.019,2.291Zm-12.22-.045.028.048H7.451a4.689,4.689,0,0,1-1.022-2.282.717.717,0,0,0-.079.021q-2.352,1-4.7,2a1.864,1.864,0,0,0-.308.212ZM5.29,7.352c-.384,0-.752-.016-1.118.005a.572.572,0,0,0-.511.575q-.01,1.342,0,2.684a.566.566,0,0,0,.485.577c.377.03.758.007,1.144.007V7.351Zm10.432,3.858c.368,0,.715.009,1.063,0a.585.585,0,0,0,.561-.573q.013-1.352,0-2.7a.566.566,0,0,0-.494-.569c-.372-.024-.747-.006-1.131-.006Z" transform="translate(0 0)" fill="#fff"/>
  </g>
</svg>
