<svg xmlns="http://www.w3.org/2000/svg" width="27.739" height="27.742" viewBox="0 0 27.739 27.742">
  <g id="_ëîé_1" transform="translate(-0.004 -0.001)">
    <path id="Caminho_623" data-name="Caminho 623" d="M7.967,27.743c-.356-.19-.474-.37-.434-.666A.551.551,0,0,1,8.1,26.6c.3-.012.61,0,.993,0-.115-.123-.181-.2-.252-.27L.853,18.337A2.451,2.451,0,0,1,.174,15.6a2.894,2.894,0,0,1,.654-1.007Q7.689,7.7,14.576.83a2.517,2.517,0,0,1,3.733,0q4.3,4.3,8.6,8.6A3.058,3.058,0,0,1,27.743,11v.6a3.508,3.508,0,0,1-1.167,1.923q-6.413,6.393-12.809,12.8c-.071.071-.138.147-.251.268h.363q2.788,0,5.576,0a1.22,1.22,0,0,1,.447.069.5.5,0,0,1,.314.495.623.623,0,0,1-.439.586H7.967ZM21.323,5.487c-.091.107-.156.195-.233.271Q14.626,12.224,8.159,18.688a2.006,2.006,0,0,1-.285.247.557.557,0,0,1-.7-.058.55.55,0,0,1-.084-.715,1.861,1.861,0,0,1,.248-.285Q13.824,11.392,20.31,4.91a3.73,3.73,0,0,1,.316-.242,2.183,2.183,0,0,1-.309-.2q-1.383-1.375-2.76-2.756a1.4,1.4,0,0,0-2.237.009q-6.8,6.8-13.6,13.6a3.556,3.556,0,0,0-.258.278,1.326,1.326,0,0,0-.043,1.633c.236.3.525.564.845.9a2.475,2.475,0,0,1,.212-.294Q8.94,11.368,15.406,4.905a2.025,2.025,0,0,1,.306-.265.562.562,0,0,1,.782.765,1.917,1.917,0,0,1-.264.306Q9.758,12.187,3.28,18.659a1.438,1.438,0,0,1-.287.174c.148.154.214.227.284.3l6.9,6.9a1.406,1.406,0,0,0,2.256,0l13.6-13.6a1.4,1.4,0,0,0,.01-2.235Q23.8,7.947,21.555,5.707c-.062-.062-.129-.121-.233-.221Z" transform="translate(0 0)" fill="#d4d4d4"/>
    <path id="Caminho_624" data-name="Caminho 624" d="M276.608,133.613a2.422,2.422,0,0,1-.463-.272c-.519-.5-1.028-1.012-1.532-1.527a.593.593,0,0,1,0-.928q1.158-1.175,2.333-2.333a.593.593,0,0,1,.946,0q.753.738,1.491,1.491a.6.6,0,0,1,0,.966q-1.141,1.153-2.3,2.293a2.765,2.765,0,0,1-.478.305Zm-.759-2.279.746.749,1.561-1.567-.736-.755-1.572,1.574Z" transform="translate(-255.766 -119.611)" fill="#d4d4d4"/>
    <path id="Caminho_625" data-name="Caminho 625" d="M127.28,248.755a2.858,2.858,0,0,1,.311-.5q2.191-2.209,4.4-4.4a1.047,1.047,0,0,1,.212-.166.565.565,0,0,1,.774.761,1.24,1.24,0,0,1-.2.252q-2.159,2.164-4.322,4.323c-.07.07-.144.168-.228.183a1,1,0,0,1-.556.009c-.157-.077-.248-.29-.385-.465Z" transform="translate(-118.64 -227.086)" fill="#d4d4d4"/>
    <path id="Caminho_626" data-name="Caminho 626" d="M153.728,310.224c-.168-.131-.382-.221-.459-.379s-.007-.369,0-.558a.132.132,0,0,1,.043-.067c.644-.645,1.282-1.3,1.937-1.931a.516.516,0,0,1,.675-.043.54.54,0,0,1,.232.635.8.8,0,0,1-.184.293c-.583.592-1.168,1.182-1.764,1.76a2.662,2.662,0,0,1-.483.288Z" transform="translate(-142.832 -286.299)" fill="#d4d4d4"/>
    <path id="Caminho_627" data-name="Caminho 627" d="M203.049,282.532a1,1,0,0,1-.842.79.582.582,0,0,1-.537-.6,1,1,0,0,1,.843-.789.576.576,0,0,1,.536.6Z" transform="translate(-187.981 -262.798)" fill="#d4d4d4"/>
    <path id="Caminho_628" data-name="Caminho 628" d="M81.039,284.081a1.008,1.008,0,0,1-.812.821.579.579,0,0,1-.567-.572.992.992,0,0,1,.812-.82.579.579,0,0,1,.568.571Z" transform="translate(-74.251 -264.271)" fill="#d4d4d4"/>
    <path id="Caminho_629" data-name="Caminho 629" d="M247.41,44.3a1,1,0,0,1,.81-.821.577.577,0,0,1,.569.569.987.987,0,0,1-.81.82A.57.57,0,0,1,247.41,44.3Z" transform="translate(-230.618 -40.528)" fill="#d4d4d4"/>
  </g>
</svg>
