<svg xmlns="http://www.w3.org/2000/svg" width="22.452" height="20" viewBox="0 0 22.452 20">
  <g id="Camada_1-2" transform="translate(-0.007 0)">
    <path id="Caminho_68" data-name="Caminho 68" d="M153.722,4.21q-.109.622-.218,1.245c-.024.136-.044.272-.07.431L137.57,2.529c.038-.258.073-.508.11-.758s.082-.519.121-.779a1.088,1.088,0,0,1,1.372-.962q3.086.647,6.171,1.3c2.449.518,4.9,1.045,7.349,1.552a1.268,1.268,0,0,1,1.031.887V4.21Z" transform="translate(-131.264 0)" fill="#fff"/>
    <path id="Caminho_69" data-name="Caminho 69" d="M5.712,107.13l4.283.908c.564.12,1.127.244,1.693.356a.787.787,0,0,0,.343-.013c.846-.224,1.687-.471,2.536-.682a1.027,1.027,0,0,1,1.191.633,5.264,5.264,0,0,1,.239.8.28.28,0,0,0,.259.239q2.54.53,5.078,1.067c.077.016.153.039.241.062-.195.924-.386,1.838-.58,2.751-.124.586-.247,1.171-.375,1.756a1.089,1.089,0,0,1-1.391.884q-.674-.144-1.35-.283a.308.308,0,0,0-.07.009c.019.082.035.163.057.242.105.38.216.758.317,1.139a1.093,1.093,0,0,1-.8,1.422c-.87.249-1.742.489-2.614.73L3.9,122.159a1.105,1.105,0,0,1-1.51-.84q-1.166-4.186-2.323-8.374a1.1,1.1,0,0,1,.824-1.466c1.3-.364,2.6-.729,3.9-1.08a.347.347,0,0,0,.293-.312c.186-.923.384-1.843.578-2.765.012-.056.029-.112.05-.191Zm-3.82,9.057c.023.092.038.156.055.218q.645,2.321,1.291,4.641c.086.31.137.339.452.251l13.355-3.71c.312-.087.339-.136.253-.45q-.408-1.477-.817-2.955c-.173-.625-.348-1.249-.53-1.9l-14.058,3.9Zm13.531-5.8L15,108.849c-.081-.291-.141-.324-.441-.241q-6.569,1.823-13.138,3.645c-.617.171-.592.14-.417.749.122.426.239.854.359,1.286l14.06-3.9Zm1.979,2.4c-.01.359.109.518.383.58q.757.17,1.518.321a.44.44,0,0,0,.563-.349c.121-.525.232-1.053.334-1.582a.408.408,0,0,0-.311-.506c-.552-.133-1.109-.248-1.667-.351a.374.374,0,0,0-.459.283C17.623,111.746,17.506,112.317,17.4,112.787Z" transform="translate(0 -102.225)" fill="#fff"/>
    <path id="Caminho_70" data-name="Caminho 70" d="M71.4,330.454a.417.417,0,0,1,.33-.416c.525-.154,1.051-.3,1.58-.439a.431.431,0,0,1,.547.315c.157.523.3,1.05.44,1.58a.432.432,0,0,1-.328.558q-.775.231-1.56.429a.4.4,0,0,1-.533-.257c-.171-.549-.314-1.107-.467-1.662A.619.619,0,0,1,71.4,330.454Z" transform="translate(-68.124 -314.491)" fill="#fff"/>
  </g>
</svg>
