<svg xmlns="http://www.w3.org/2000/svg" width="17.977" height="20.436" viewBox="0 0 17.977 20.436">
  <g id="Camada_1-2" transform="translate(0.002)">
    <path id="Caminho_930" data-name="Caminho 930" d="M8.9,0c.048.054.091.111.143.161q1.493,1.426,2.989,2.85a2.167,2.167,0,0,0,.185.141c-1.079,1.13-2.128,2.232-3.19,3.346L8,5.519,9.353,4.1A7.27,7.27,0,0,0,2.305,8.289,7.388,7.388,0,1,0,13.522,5.595l.964-1.237A8.981,8.981,0,1,1,0,11.814,8.7,8.7,0,0,1,2.629,5.087,8.892,8.892,0,0,1,9.384,2.452L7.9,1.034,8.865,0Z" transform="translate(0)" fill="#fff"/>
    <path id="Caminho_931" data-name="Caminho 931" d="M47.611,64.524c0-.235-.007-.46,0-.686.005-.131-.033-.181-.171-.2a2.785,2.785,0,0,1-1.769-.91,8.529,8.529,0,0,1-.534-.793l1.339-.57a1.885,1.885,0,0,0,1.916.978,1.654,1.654,0,0,0,1-.287.586.586,0,0,0-.118-1.073,8.451,8.451,0,0,0-1.214-.29c-.453-.1-.921-.147-1.36-.288a1.616,1.616,0,0,1-1.2-1.609,1.737,1.737,0,0,1,.962-1.7,5.206,5.206,0,0,1,.968-.348c.132-.04.186-.083.178-.225-.013-.2,0-.4,0-.609h1.426v.431c0,.361,0,.36.344.446a2.225,2.225,0,0,1,1.3.837c.112.152.2.323.313.5l-1.21.562a2.068,2.068,0,0,0-2.316-.6,1.051,1.051,0,0,0-.278.152.486.486,0,0,0,.1.877,6.814,6.814,0,0,0,1.182.255,7.173,7.173,0,0,1,1.642.389,1.953,1.953,0,0,1,.321,3.313,3.735,3.735,0,0,1-.66.365,6.114,6.114,0,0,1-.723.2v.883H47.611Z" transform="translate(-39.174 -48.519)" fill="#fff"/>
  </g>
</svg>
