<svg xmlns="http://www.w3.org/2000/svg" width="17.836" height="20.331" viewBox="0 0 17.836 20.331">
  <g id="Camada_1-2" transform="translate(0.002)">
    <path id="Caminho_944" data-name="Caminho 944" d="M9.059,0c.618.207,1.232.429,1.856.618a36.7,36.7,0,0,0,5.872,1.241c.144.019.29.03.434.05a.628.628,0,0,1,.576.647c0,2.251.1,4.507-.024,6.751a11.352,11.352,0,0,1-6.473,9.98c-.667.35-1.366.636-2.047.958a.76.76,0,0,1-.7,0c-.914-.447-1.869-.823-2.743-1.338A11.357,11.357,0,0,1,.163,10.728,11.248,11.248,0,0,1,.009,8.892C-.009,6.807,0,4.722,0,2.637A.65.65,0,0,1,.659,1.9,37.138,37.138,0,0,0,8.64.053.834.834,0,0,0,8.742,0h.318ZM1.273,3.107v.237c0,1.814-.018,3.628.009,5.441a11.354,11.354,0,0,0,.2,2.109,9.993,9.993,0,0,0,4.615,6.7,28.668,28.668,0,0,0,2.708,1.359.322.322,0,0,0,.237-.017c.489-.218.974-.444,1.459-.67a10.34,10.34,0,0,0,6.024-9.453q0-2.741,0-5.481V3.106c-.245-.033-.473-.062-.7-.1A38.326,38.326,0,0,1,9.094,1.372a.6.6,0,0,0-.4,0c-1,.3-2,.615-3,.885a34.985,34.985,0,0,1-4.419.846Z" transform="translate(0)" fill="#fff"/>
    <path id="Caminho_945" data-name="Caminho 945" d="M97.1,87.01c.019-.358.011-.7.059-1.041a2.534,2.534,0,0,1,5,.008c.047.338.04.684.057,1.025.122.025.246.041.365.077a1.25,1.25,0,0,1,.887,1.189q.009,2.243,0,4.486a1.253,1.253,0,0,1-1.254,1.251q-2.561.01-5.121,0a1.254,1.254,0,0,1-1.247-1.259q-.01-2.233,0-4.466A1.28,1.28,0,0,1,97.1,87.01Zm.027,5.715h5.06V88.3h-5.06Zm3.8-5.715c0-.219,0-.423,0-.626a1.273,1.273,0,0,0-1.177-1.269A1.258,1.258,0,0,0,98.408,86.2a5.922,5.922,0,0,0-.006.813h2.529Z" transform="translate(-90.759 -79.39)" fill="#fff"/>
  </g>
</svg>
