<svg xmlns="http://www.w3.org/2000/svg" width="20.467" height="20.436" viewBox="0 0 20.467 20.436">
  <g id="Camada_1-2" transform="translate(-0.013)">
    <path id="Caminho_939" data-name="Caminho 939" d="M8.221,0h7.187a1.284,1.284,0,0,0,.154.034,5.492,5.492,0,0,1,4.682,3.911c.106.367.158.75.235,1.126v.919a.7.7,0,0,0-.035.11,5.455,5.455,0,0,1-3.559,4.574l-.2.083.094.193a5.353,5.353,0,0,1,.379,3.767A5.434,5.434,0,0,1,12.6,18.806c-.656.087-1.328.047-1.992.074a.82.82,0,0,0-.322.076c-.912.45-1.82.909-2.731,1.361a.808.808,0,0,1-1.244-.769c0-.217,0-.434,0-.653C3.17,18.944,1,17.635.169,14.515A4.97,4.97,0,0,1,.482,11.2,5.506,5.506,0,0,1,3.83,8.118c-.026-.053-.042-.089-.06-.124A5.438,5.438,0,0,1,3.225,4.82,5.531,5.531,0,0,1,7.094.237C7.462.131,7.845.077,8.222,0Zm4.373,10.492a.821.821,0,0,0,.009-.119.85.85,0,0,1,.968-.958,13.661,13.661,0,0,0,1.893-.036A3.906,3.906,0,0,0,14.941,1.6q-3.123-.006-6.246,0A3.6,3.6,0,0,0,8,1.662a3.9,3.9,0,0,0,.172,7.717c.647.062,1.3.022,1.952.051a1.674,1.674,0,0,1,.608.146c.513.235,1.012.5,1.518.752.105.052.212.1.342.165ZM7.911,18.344c.09-.041.15-.065.207-.093.541-.269,1.086-.533,1.622-.813a1.378,1.378,0,0,1,.688-.16c.439.009.879,0,1.318,0A3.844,3.844,0,0,0,14.88,15.8a3.91,3.91,0,0,0,.174-4.65c-.036-.051-.089-.124-.137-.126-.235-.013-.472-.006-.716-.006,0,.258,0,.484,0,.71a.8.8,0,0,1-1.224.74c-.6-.295-1.209-.561-1.778-.9a4.118,4.118,0,0,0-2.368-.565A5.313,5.313,0,0,1,4.994,9.6a.322.322,0,0,0-.243-.062,3.9,3.9,0,0,0,.5,7.715c.622.047,1.25.017,1.876.028a.778.778,0,0,1,.789.783c0,.083,0,.167,0,.279Z" transform="translate(0)" fill="#fff"/>
    <path id="Caminho_940" data-name="Caminho 940" d="M151.628,88.3h3.053a.8.8,0,1,1,0,1.6q-3.083,0-6.165,0a.8.8,0,0,1-.562-1.392.84.84,0,0,1,.587-.205c1.031,0,2.062,0,3.093,0Z" transform="translate(-139.792 -83.59)" fill="#fff"/>
    <path id="Caminho_941" data-name="Caminho 941" d="M89.582,236.844a.793.793,0,0,1-.8-.79.8.8,0,1,1,1.6-.007A.792.792,0,0,1,89.582,236.844Z" transform="translate(-84.032 -222.701)" fill="#fff"/>
    <path id="Caminho_942" data-name="Caminho 942" d="M208.1,236.049a.785.785,0,0,1-.793.8.8.8,0,0,1-.8-.793.809.809,0,0,1,.8-.8.8.8,0,0,1,.795.8Z" transform="translate(-195.482 -222.701)" fill="#fff"/>
    <path id="Caminho_943" data-name="Caminho 943" d="M148.536,236.853a.784.784,0,0,1-.787-.8.8.8,0,0,1,.8-.793.809.809,0,0,1,.793.807.8.8,0,0,1-.807.788Z" transform="translate(-139.856 -222.71)" fill="#fff"/>
  </g>
</svg>
