<svg xmlns="http://www.w3.org/2000/svg" width="22.343" height="20" viewBox="0 0 22.343 20">
  <g id="Camada_1-2" transform="translate(-0.022 0)">
    <path id="Caminho_676" data-name="Caminho 676" d="M22.364,183.488a2.741,2.741,0,0,1-.194.548,2.311,2.311,0,0,1-.515.664c-1.12.844-2.219,1.726-3.4,2.471a11.673,11.673,0,0,1-8.97,1.569c-1.732-.373-3.456-.778-5.184-1.168-.042-.009-.085-.015-.149-.026,0,.154,0,.3,0,.442a.656.656,0,0,1-.681.692q-1.287.007-2.574,0A.647.647,0,0,1,.025,188q0-3.251,0-6.5a.647.647,0,0,1,.677-.672c.72,0,1.44,0,2.159-.006a.5.5,0,0,0,.291-.1A5.678,5.678,0,0,1,6.926,179.5a7.15,7.15,0,0,1,2.187.453c1.706.574,3.418,1.13,5.124,1.7a1.932,1.932,0,0,1,1.364,2.084c-.011.128-.043.254-.069.409a3,3,0,0,0,.983-.509q1.342-.991,2.684-1.982a1.971,1.971,0,0,1,3.119,1.126c.013.048.031.094.047.141v.567Zm-18.415,2.7c.079.021.135.038.191.051,1.705.389,3.413.77,5.116,1.168a10.764,10.764,0,0,0,6.969-.618,25.417,25.417,0,0,0,4.615-3.112.631.631,0,0,0-.215-1.079.687.687,0,0,0-.674.128c-.892.664-1.782,1.33-2.683,1.982a4.456,4.456,0,0,1-4.111.711c-1.366-.422-2.719-.884-4.077-1.332a.658.658,0,1,1,.421-1.24c.373.121.744.247,1.116.37q1.375.454,2.751.905a.671.671,0,0,0,.791-.182.656.656,0,0,0-.362-1.055c-1.715-.57-3.431-1.134-5.145-1.706a5.917,5.917,0,0,0-1.762-.365,4.3,4.3,0,0,0-2.8.839.324.324,0,0,0-.14.291q.006,2.04,0,4.079v.166Zm-2.6-4.042v5.21H2.629v-5.21Z" transform="translate(0 -169.035)" fill="#fff"/>
    <path id="Caminho_677" data-name="Caminho 677" d="M193.045,6.379c-.075.377-.125.759-.228,1.128a5.891,5.891,0,1,1,.145-2.58c.026.164.055.328.083.491v.96Zm-1.309-.484a4.582,4.582,0,1,0-4.573,4.587,4.588,4.588,0,0,0,4.573-4.587Z" transform="translate(-170.681)" fill="#fff"/>
    <path id="Caminho_678" data-name="Caminho 678" d="M248.458,49.51c-.248-.126-.477-.221-.683-.352a.644.644,0,0,1-.206-.913.653.653,0,0,1,.9-.183,1.15,1.15,0,0,0,1.181.031c.08-.04.13-.142.194-.214-.072-.054-.138-.135-.219-.156-.387-.1-.78-.168-1.166-.269a2.759,2.759,0,0,1-.648-.246,1.4,1.4,0,0,1-.262-2.3,5.052,5.052,0,0,1,.778-.464.265.265,0,0,0,.126-.16c.045-.449.287-.716.664-.713s.634.285.651.745a.158.158,0,0,0,.005.034c.228.115.463.212.674.346a.644.644,0,0,1,.22.91.656.656,0,0,1-.92.187,1.147,1.147,0,0,0-1.181-.021c-.075.038-.123.131-.183.2.069.056.13.143.208.163.337.087.682.142,1.018.233a3.575,3.575,0,0,1,.8.28,1.412,1.412,0,0,1,.185,2.387,5.949,5.949,0,0,1-.679.381.285.285,0,0,0-.137.173c-.04.437-.3.712-.676.7a.665.665,0,0,1-.639-.712c0-.029,0-.057-.005-.066Z" transform="translate(-232.645 -41.03)" fill="#fff"/>
  </g>
</svg>
