<svg xmlns="http://www.w3.org/2000/svg" width="21.497" height="21.495" viewBox="0 0 21.497 21.495">
  <g id="Camada_1-2" transform="translate(0.003 0)">
    <path id="Caminho_986" data-name="Caminho 986" d="M.465,21.495A.8.8,0,0,1,0,20.649c.016-1.2.011-2.406,0-3.609a3.164,3.164,0,0,1,.981-2.371c.2-.2.4-.383.629-.595-.253-.249-.477-.467-.7-.689a.64.64,0,0,1,0-1.023q1.646-1.648,3.3-3.292a.217.217,0,0,0,.041-.332c-.182-.273-.344-.559-.509-.843a.631.631,0,0,1,.1-.839q1.3-1.309,2.612-2.611a.625.625,0,0,1,.948.005c.233.23.46.467.705.716l.828-.828c.52-.519.683-.532,1.309-.057a1.282,1.282,0,0,1,.137-.2c.791-.782,1.552-1.6,2.384-2.332a6.976,6.976,0,0,1,4.5-1.738C17.8-.008,18.325,0,18.85.006a.631.631,0,0,1,.668.673q.005,1.217,0,2.434a.635.635,0,0,1-.674.669c-.608.011-1.217,0-1.823.043a2.744,2.744,0,0,0-1.661.685c-.852.775-1.661,1.6-2.5,2.413.467.395.385.947.482,1.433.16.808.269,1.627.418,2.438a.886.886,0,0,1-.266.87c-1.625,1.61-3.238,3.232-4.857,4.848a3.141,3.141,0,0,1-4.587.011c-.467-.463-.93-.93-1.4-1.395-.053-.053-.109-.1-.191-.181-.3.327-.614.627-.881.965A1.7,1.7,0,0,0,1.262,17c0,1.217-.01,2.434.007,3.652A.806.806,0,0,1,.8,21.5H.465Zm1.76-8.663,1.487,1.487,3.272-3.274a.672.672,0,0,1,.955-.153c.955.478,1.913.953,2.866,1.437a.2.2,0,0,0,.285-.045c.415-.426.834-.848,1.261-1.261a.349.349,0,0,0,.11-.352c-.153-.881-.3-1.764-.453-2.644a.649.649,0,0,0-.161-.321c-.512-.527-1.035-1.042-1.554-1.562-.227-.227-.449-.458-.684-.7-.344.345-.667.673-.995,1a.633.633,0,0,1-.991,0c-.225-.227-.442-.46-.678-.707C6.318,6.361,5.72,6.958,5.13,7.563a.217.217,0,0,0,0,.194c.146.262.305.518.46.776.279.467.255.675-.123,1.054L3.438,11.619,2.224,12.831ZM12,6.026c.661-.662,1.336-1.331,2-2.007a4.818,4.818,0,0,1,3.611-1.5c.207,0,.416,0,.628,0V1.265c-.279,0-.543,0-.808,0A5.819,5.819,0,0,0,13.5,2.781c-.82.749-1.584,1.559-2.372,2.342-.008.008-.009.024-.007.019L12,6.026ZM8.152,12.408V13.5c0,.084,0,.168,0,.252a.631.631,0,0,1-.613.643.641.641,0,0,1-.643-.639c-.009-.262,0-.524,0-.776L4.582,15.3c.109.1.239.219.363.341a1.889,1.889,0,0,0,2.8-.011Q8.8,14.568,9.863,13.506c.048-.048.091-.1.151-.167l-1.862-.931Z" transform="translate(0 0)" fill="#fff"/>
    <path id="Caminho_987" data-name="Caminho 987" d="M305.681,117.219c-.034.127-.063.255-.1.38a2.306,2.306,0,0,1-4.512-.692,3.011,3.011,0,0,1,.438-1.408c.421-.764.872-1.512,1.332-2.254a.606.606,0,0,1,1.038-.047,14.481,14.481,0,0,1,1.595,2.822c.085.212.142.435.211.653Zm-2.309-2.5a9.8,9.8,0,0,0-1.008,2,.977.977,0,0,0,.4,1.064,1.036,1.036,0,0,0,1.216,0,.974.974,0,0,0,.4-1.066,9.878,9.878,0,0,0-1.006-1.992Z" transform="translate(-284.187 -106.595)" fill="#fff"/>
  </g>
</svg>
