<svg xmlns="http://www.w3.org/2000/svg" width="9.905" height="11.32" viewBox="0 0 9.905 11.32">
  <g id="attachment" transform="translate(-1.499 0.001)">
    <path id="Caminho_600" data-name="Caminho 600" d="M8.507,3.615,7.788,2.9,4.2,6.487A1.523,1.523,0,0,0,6.352,8.641l4.309-4.308A2.539,2.539,0,0,0,7.07.743L2.547,5.266l-.01.009a3.541,3.541,0,0,0,5.008,5.007l.009-.01h0l3.088-3.088-.718-.717L6.836,9.555l-.009.009a2.525,2.525,0,1,1-3.562-3.58h0L7.789,1.461A1.523,1.523,0,0,1,9.944,3.614L5.635,7.922A.508.508,0,0,1,4.917,7.2L8.507,3.614Z" transform="translate(0 0)" fill="#fff"/>
  </g>
</svg>
