<svg xmlns="http://www.w3.org/2000/svg" width="20.433" height="20.436" viewBox="0 0 20.433 20.436">
  <g id="Camada_1-2" transform="translate(0 -0.003)">
    <path id="Caminho_902" data-name="Caminho 902" d="M0,8.386V7.309c.012-.051.026-.1.035-.152.083-.463.129-.937.254-1.389A7.847,7.847,0,0,1,8.72.053a7.639,7.639,0,0,1,4.525,2.11,7.67,7.67,0,0,1,2.437,5.257c.01.168.091.2.219.246a6.542,6.542,0,0,1-.244,12.524c-.42.117-.858.167-1.288.248h-1c-.286-.05-.577-.084-.858-.152A6.466,6.466,0,0,1,7.66,15.873a.223.223,0,0,0-.236-.183,7.67,7.67,0,0,1-.773-.077A7.854,7.854,0,0,1,.2,9.6C.114,9.2.066,8.791,0,8.386Zm13.9.159a5.348,5.348,0,1,0,5.344,5.346A5.357,5.357,0,0,0,13.9,8.546Zm-8.643.739a.382.382,0,0,0,.071.018c1.27,0,2.54,0,3.81,0a.346.346,0,0,0,.186-.087c.378-.292.755-.584,1.125-.886a.341.341,0,0,0,.122-.218A8.412,8.412,0,0,0,10.4,6.128c-.031-.164-.09-.212-.258-.211-1.523.007-3.045,0-4.568,0h-.21a8.256,8.256,0,0,0-.109,3.363ZM4.087,5.934h-2.6a6.578,6.578,0,0,0-.126,3.355H4c-.022-.571-.073-1.128-.059-1.684s.092-1.107.143-1.672Zm5.9-1.219c-.027-.081-.044-.137-.065-.191A13.637,13.637,0,0,0,8.2,1.346a.472.472,0,0,0-.709,0A13.778,13.778,0,0,0,6.028,3.926c-.11.254-.208.513-.32.79ZM1.742,10.508a6.744,6.744,0,0,0,4.166,3.719c-.318-.62-.65-1.208-.925-1.822s-.491-1.255-.738-1.9h-2.5ZM13.688,4.725c-.4-1.214-2.848-3.206-3.9-3.2a.164.164,0,0,0,.011.037A13.587,13.587,0,0,1,11.227,4.6c.037.117.11.124.21.124.631,0,1.262,0,1.894,0h.358Zm-11.708,0h.233c.671,0,1.342-.006,2.013,0a.241.241,0,0,0,.278-.2,12.9,12.9,0,0,1,1.185-2.6c.079-.135.16-.271.266-.449A6.768,6.768,0,0,0,1.98,4.725Zm5.347,9.358a6.811,6.811,0,0,1,.958-3.569H5.541a12.15,12.15,0,0,0,1.785,3.569ZM11.8,7.689a6.818,6.818,0,0,1,2.722-.315c-.089-.448-.175-.862-.252-1.277-.025-.136-.086-.18-.227-.179-.765.007-1.529,0-2.294,0a1.284,1.284,0,0,0-.141.014c.064.587.127,1.16.191,1.752Z" fill="#fff"/>
    <path id="Caminho_903" data-name="Caminho 903" d="M231.553,198.337c-.343-.161-.657-.286-.948-.451a.594.594,0,1,1,.621-1.012,1.516,1.516,0,0,0,.988.229.742.742,0,0,0,.678-.713.54.54,0,0,0-.384-.525c-.385-.162-.776-.311-1.152-.492a1.452,1.452,0,0,1-.921-1.434,1.6,1.6,0,0,1,1.007-1.5c.127-.056.111-.142.12-.238a.607.607,0,0,1,.509-.56.6.6,0,0,1,.64.371c0,.012.016.025.015.037-.035.3.178.363.393.441a1.3,1.3,0,0,1,.325.191.594.594,0,0,1-.665.985.972.972,0,0,0-.775-.156.462.462,0,0,0-.368.4.328.328,0,0,0,.236.388c.357.159.718.31,1.079.46a1.725,1.725,0,0,1,1.071,1.154,1.919,1.919,0,0,1-1.093,2.235c-.1.044-.175.079-.178.22a.6.6,0,0,1-.586.646.615.615,0,0,1-.606-.615c0-.033-.006-.066,0-.055Z" transform="translate(-218.012 -181.414)" fill="#fff"/>
  </g>
</svg>
