<svg xmlns="http://www.w3.org/2000/svg" width="20.017" height="19.992" viewBox="0 0 20.017 19.992">
  <g id="Camada_1-2" transform="translate(0.914)">
    <g id="Camada_1-2-2" data-name="Camada_1-2" transform="translate(-0.895 -0.033)">
      <path id="Caminho_946" data-name="Caminho 946" d="M20,8.586a.783.783,0,0,1-.816.618,1.065,1.065,0,0,1-.483-.18A5.863,5.863,0,0,0,16.355,8.1a5.8,5.8,0,0,0-4.242.934,7.671,7.671,0,0,0-.7.562.364.364,0,0,0-.121.209,3.954,3.954,0,0,1-1.195,2.42.569.569,0,0,0-.05.06s0,.012,0,.016c.351.181.7.357,1.05.543a4.44,4.44,0,0,1,.445.282.777.777,0,0,1,.238,1.081.766.766,0,0,1-1.081.227,6.016,6.016,0,0,0-7.714.747,5.891,5.891,0,0,0-1.348,2.1.835.835,0,0,0,.826,1.2c2.2-.022,4.392-.009,6.588-.008a.787.787,0,0,1,.84.611A.735.735,0,0,1,9.173,20c-2.307,0-4.614,0-6.92,0a2.162,2.162,0,0,1-2-1.231,2.447,2.447,0,0,1,0-2.238,7.5,7.5,0,0,1,4.108-4.125l.265-.114a3.955,3.955,0,0,1-1.2-3.73,3.846,3.846,0,0,1,1.7-2.525,4,4,0,0,1,5.9,1.789L12.7,6.927a3.947,3.947,0,0,1-1.169-3.734A3.882,3.882,0,0,1,13.114.766a3.99,3.99,0,0,1,5.007,6.194c.072.034.139.063.2.1.428.233.869.447,1.276.712a2.015,2.015,0,0,1,.4.506v.313ZM7.323,6.941A2.423,2.423,0,1,0,9.755,9.352,2.427,2.427,0,0,0,7.323,6.941ZM17.847,4.018a2.423,2.423,0,1,0-2.431,2.415,2.43,2.43,0,0,0,2.431-2.415Z" transform="translate(0 0)" fill="#fff"/>
      <path id="Caminho_947" data-name="Caminho 947" d="M328.79,325.09a.889.889,0,0,1-.978.629c-.643-.019-1.287,0-1.954,0v.222c0,.625,0,1.251,0,1.877a.8.8,0,0,1-.276.642.792.792,0,0,1-.828.107.7.7,0,0,1-.458-.709c-.006-.632,0-1.264,0-1.9v-.243h-.214c-.638,0-1.277,0-1.916,0a.757.757,0,0,1-.7-.413.735.735,0,0,1,.025-.78.765.765,0,0,1,.691-.369h2.117v-.217c0-.619,0-1.238,0-1.857a.785.785,0,1,1,1.563,0c0,.684,0,1.367,0,2.078h.217c.58,0,1.16.015,1.739,0a.881.881,0,0,1,.976.631v.313Z" transform="translate(-308.791 -308.605)" fill="#fff"/>
    </g>
  </g>
</svg>
