<svg id="Camada_1-2" xmlns="http://www.w3.org/2000/svg" width="16.992" height="22.266" viewBox="0 0 16.992 22.266">
  <path id="Caminho_980" data-name="Caminho 980" d="M11.365,0a8.505,8.505,0,0,1,.76.519c.531.45,1.041.923,1.56,1.386.042.038.088.071.142.115.472-.417.938-.831,1.405-1.241A1.014,1.014,0,0,1,16.362.572a.988.988,0,0,1,.622.872c.008.079.006.159.006.239q0,9.446,0,18.892a1.193,1.193,0,0,1-.272.866,1.029,1.029,0,0,1-1.482.045c-.419-.358-.826-.729-1.239-1.093-.054-.048-.109-.093-.174-.15-.059.05-.114.093-.167.14q-.859.767-1.718,1.536a1.052,1.052,0,0,1-1.552.007c-.57-.5-1.136-1.013-1.7-1.52-.059-.052-.12-.1-.193-.163L7.353,21.26c-.254.227-.506.456-.762.681a1.045,1.045,0,0,1-1.52-.006C4.5,21.426,3.925,20.912,3.352,20.4c-.054-.048-.108-.095-.18-.157-.061.052-.12.1-.178.15-.441.387-.869.791-1.326,1.158A1.018,1.018,0,0,1,.04,21.008,1.612,1.612,0,0,1,0,20.6q0-9.47,0-18.937A1.044,1.044,0,0,1,1.773.793L2.994,1.873c.054.048.109.093.176.15l.749-.67c.314-.28.617-.572.944-.835C5.1.326,5.37.171,5.625,0h.391c.247.157.5.3.738.476s.412.363.617.546l1.124,1c.537-.48,1.052-.955,1.586-1.409.265-.225.565-.41.849-.614h.435ZM1.06,1.554V20.715c.483-.429.93-.832,1.385-1.224a1.03,1.03,0,0,1,1.454,0c.214.184.421.376.632.565l1.3,1.16.255-.226c.551-.493,1.1-.987,1.654-1.477a1.043,1.043,0,0,1,1.5,0c.569.505,1.135,1.014,1.7,1.52.069.061.14.12.212.182.641-.573,1.265-1.136,1.894-1.693a1.044,1.044,0,0,1,1.521-.007c.41.357.815.72,1.222,1.079.039.035.085.061.135.1V1.551c-.09.076-.151.124-.209.176-.391.346-.772.7-1.175,1.033a1.452,1.452,0,0,1-.55.28,1.016,1.016,0,0,1-.951-.3c-.623-.563-1.251-1.121-1.888-1.69-.088.076-.169.146-.25.218-.557.5-1.111,1-1.67,1.492a1.044,1.044,0,0,1-1.488,0c-.153-.134-.3-.27-.454-.406l-1.462-1.3c-.061.052-.11.093-.158.136C5.087,1.71,4.5,2.241,3.908,2.762a1.038,1.038,0,0,1-1.472.007c-.22-.188-.434-.384-.651-.576-.237-.209-.474-.417-.726-.638Z" fill="#fff"/>
  <path id="Caminho_981" data-name="Caminho 981" d="M51.955,210.264q2.425,0,4.849,0c.418,0,.657.254.593.616a.454.454,0,0,1-.358.389,1.476,1.476,0,0,1-.344.035q-4.74,0-9.48,0a1.476,1.476,0,0,1-.344-.035.49.49,0,0,1-.373-.476.5.5,0,0,1,.352-.493,1.176,1.176,0,0,1,.321-.037Q49.563,210.262,51.955,210.264Z" transform="translate(-43.46 -196.526)" fill="#fff"/>
  <path id="Caminho_982" data-name="Caminho 982" d="M52.006,162.378h4.805c.373,0,.589.165.622.468a.491.491,0,0,1-.345.535,1.072,1.072,0,0,1-.3.039q-4.805,0-9.61,0a.6.6,0,0,1-.568-.246.505.505,0,0,1,.269-.758,1.126,1.126,0,0,1,.321-.038q2.4,0,4.805,0Z" transform="translate(-43.489 -151.769)" fill="#fff"/>
  <path id="Caminho_983" data-name="Caminho 983" d="M49.65,115.513c-.84,0-1.68,0-2.52,0a.519.519,0,0,1-.568-.655.539.539,0,0,1,.582-.386c.58,0,1.158,0,1.738,0,1.086,0,2.172,0,3.258,0,.444,0,.7.294.6.667a.53.53,0,0,1-.568.374c-.84,0-1.68,0-2.52,0Z" transform="translate(-43.502 -106.99)" fill="#fff"/>
</svg>
