<svg xmlns="http://www.w3.org/2000/svg" width="20.189" height="20.529" viewBox="0 0 20.189 20.529">
  <g id="Camada_1-2" transform="translate(0)">
    <path id="Caminho_904" data-name="Caminho 904" d="M15.307,0a.8.8,0,0,1,.484.831c-.011,2.131,0,4.262-.006,6.393a.647.647,0,0,1-.656.721.633.633,0,0,1-.625-.606c0-.066,0-.133,0-.2V1.3H1.287v.217q0,6.8,0,13.609c0,.205.053.257.255.254.955-.011,1.911-.006,2.866,0,.545,0,.781.237.781.781q0,1.413,0,2.826v.264h9.83a1.153,1.153,0,0,1,.316.033.636.636,0,0,1,.45.675.65.65,0,0,1-.583.57c-.059.005-.12,0-.18,0q-5.171,0-10.342,0A.893.893,0,0,1,4,20.251Q2.149,18.4.288,16.564A.91.91,0,0,1,0,15.869Q.008,8.362,0,.857A.818.818,0,0,1,.474,0H15.307ZM2.249,16.665l1.558,1.582a.827.827,0,0,0,.081.061V16.665H2.249Z" fill="#fff"/>
    <path id="Caminho_905" data-name="Caminho 905" d="M197.731,161.82a.876.876,0,0,1-.235.621.347.347,0,0,0-.1.4.358.358,0,0,0,.335.209.931.931,0,0,1,.9,1c0,.254,0,.508,0,.762a.933.933,0,0,1-.91.975.344.344,0,0,0-.329.215.333.333,0,0,0,.082.366.929.929,0,0,1-.054,1.346c-.187.191-.375.381-.568.566a.917.917,0,0,1-1.285.048.348.348,0,0,0-.616.265.905.905,0,0,1-.873.856c-.333.014-.668.014-1,0a.9.9,0,0,1-.851-.833c-.013-.169-.042-.32-.219-.392a.382.382,0,0,0-.415.118.914.914,0,0,1-1.255-.046q-.319-.3-.623-.623a.918.918,0,0,1-.041-1.27.368.368,0,0,0,.11-.4c-.067-.169-.2-.2-.368-.219a.929.929,0,0,1-.87-.951c0-.274,0-.548,0-.822a.926.926,0,0,1,.86-.958c.142-.017.282-.029.358-.176a.333.333,0,0,0-.044-.39.937.937,0,0,1,.086-1.417c.17-.17.337-.343.51-.51a.917.917,0,0,1,1.3-.048.347.347,0,0,0,.611-.263.911.911,0,0,1,.922-.87c.294,0,.588,0,.882,0a.917.917,0,0,1,.924.871.359.359,0,0,0,.206.357.365.365,0,0,0,.4-.094.912.912,0,0,1,1.284.034c.208.2.409.4.61.608a.9.9,0,0,1,.276.666Zm-7.886,2.72c.056.018.113.036.169.056a1.607,1.607,0,0,1,.918,2.211c-.087.178-.048.262.1.343a1.622,1.622,0,0,1,2.384.861c.032.095.052.167.18.165s.138-.089.171-.177a1.586,1.586,0,0,1,1.192-1.049,1.617,1.617,0,0,1,1.187.2c.152-.082.19-.165.106-.336a1.607,1.607,0,0,1,.923-2.223c.085-.029.177-.028.183-.165s-.087-.156-.179-.191a1.584,1.584,0,0,1-1.067-1.267,1.653,1.653,0,0,1,.221-1.125l-.177-.169a1.619,1.619,0,0,1-2.408-.9.2.2,0,0,0-.149-.105.223.223,0,0,0-.162.114,1.572,1.572,0,0,1-1.477,1.122,6.479,6.479,0,0,1-1.012-.174c-.076.043-.09.134-.011.3a1.594,1.594,0,0,1-.925,2.2c-.162.056-.216.13-.163.309Z" transform="translate(-178.446 -150.841)" fill="#fff"/>
    <path id="Caminho_906" data-name="Caminho 906" d="M57.044,58.977c0,.144,0,.276,0,.408a.64.64,0,0,1-1.278.017c-.009-.138,0-.277,0-.439-.231,0-.442,0-.654,0a1.7,1.7,0,0,1-.939-.3.64.64,0,0,1-.208-.878.656.656,0,0,1,.879-.219,1.07,1.07,0,0,0,.434.112c.621.012,1.242.005,1.864,0a.585.585,0,1,0-.009-1.165c-.514,0-1.029,0-1.543,0a1.87,1.87,0,0,1-.305-3.708,4.719,4.719,0,0,1,.482-.034c0-.148,0-.292,0-.437a.641.641,0,1,1,1.282,0c0,.14,0,.28,0,.449a2.1,2.1,0,0,1,.4,0,4.177,4.177,0,0,1,.841.219.609.609,0,0,1,.277.852.655.655,0,0,1-.842.291,1.135,1.135,0,0,0-.385-.08c-.574-.009-1.149,0-1.723,0a.552.552,0,0,0-.577.579.561.561,0,0,0,.576.585c.528,0,1.056,0,1.583,0a1.868,1.868,0,0,1,.315,3.707c-.144.025-.292.023-.47.036Z" transform="translate(-50.876 -48.902)" fill="#fff"/>
    <path id="Caminho_907" data-name="Caminho 907" d="M57,227.44q1.243,0,2.485,0a.644.644,0,1,1,.007,1.281q-2.506,0-5.011,0a.647.647,0,0,1-.7-.64.639.639,0,0,1,.692-.641c.842,0,1.684,0,2.525,0Z" transform="translate(-50.9 -215.259)" fill="#fff"/>
    <path id="Caminho_908" data-name="Caminho 908" d="M167.9,66.287c.46,0,.92-.007,1.38,0a.633.633,0,0,1,.3,1.185.774.774,0,0,1-.342.089q-1.35.01-2.7,0a.634.634,0,0,1-.656-.529.623.623,0,0,1,.4-.7.993.993,0,0,1,.313-.045c.433,0,.867,0,1.3,0Z" transform="translate(-156.995 -62.735)" fill="#fff"/>
    <path id="Caminho_909" data-name="Caminho 909" d="M167.9,121.139c-.44,0-.88,0-1.32,0a.64.64,0,1,1-.022-1.278q1.36-.013,2.721,0a.64.64,0,1,1-.018,1.278C168.8,121.142,168.351,121.139,167.9,121.139Z" transform="translate(-157.021 -113.435)" fill="#fff"/>
    <path id="Caminho_910" data-name="Caminho 910" d="M109.172,282.392c-.387,0-.774.011-1.161,0a.636.636,0,0,1-.2-1.228.831.831,0,0,1,.274-.045c.721,0,1.442-.005,2.163,0a.642.642,0,1,1,0,1.28c-.36,0-.721,0-1.081,0v0Z" transform="translate(-101.654 -266.057)" fill="#fff"/>
    <path id="Caminho_911" data-name="Caminho 911" d="M243.823,212.39a2.2,2.2,0,1,1-2.2,2.2,2.206,2.206,0,0,1,2.2-2.2Zm0,1.283a.912.912,0,0,0-.917.915.921.921,0,1,0,.917-.915Z" transform="translate(-228.68 -201.015)" fill="#fff"/>
  </g>
</svg>
