<svg xmlns="http://www.w3.org/2000/svg" width="21.055" height="20.436" viewBox="0 0 21.055 20.436">
  <g id="Camada_1-2" transform="translate(-0.01 0.004)">
    <path id="Caminho_984" data-name="Caminho 984" d="M17.906,10.951c.232.414.412.829.886,1.028.376.158.723.387,1.086.579a1.521,1.521,0,0,1,.858,1.373c.027,1.052.032,2.105-.008,3.156a2.7,2.7,0,0,1-.307,1.05,1.265,1.265,0,0,1-1.2.729c-.436,0-.872-.007-1.307.01a.374.374,0,0,0-.264.151,2.663,2.663,0,0,1-2.61,1.4,2.622,2.622,0,0,1-2.294-1.657.237.237,0,0,0-.257-.161q-2.121.006-4.241,0A.235.235,0,0,0,8,18.775a2.635,2.635,0,0,1-2.3,1.648,2.63,2.63,0,0,1-2.585-1.389.277.277,0,0,0-.288-.169c-.163.012-.329,0-.493,0A2.34,2.34,0,0,1,.147,17.392a2.147,2.147,0,0,1-.128-.72c-.016-.7-.006-1.4-.006-2.1a1.936,1.936,0,0,1,1.545-1.981q1.623-.409,3.252-.793a1.044,1.044,0,0,0,.78-.6c.349-.743.731-1.47,1.1-2.2a1.86,1.86,0,0,1,1.8-1.11c.443.005.887,0,1.359,0A5.75,5.75,0,0,1,10.432,2.6,5.559,5.559,0,0,1,13.538.258,5.769,5.769,0,0,1,20.4,3.125a5.619,5.619,0,0,1,.376,4.422,5.782,5.782,0,0,1-2.872,3.4Zm-11.133.6h5.243c.082,0,.165,0,.246,0a.594.594,0,0,1,.552.563.584.584,0,0,1-.472.629,1.7,1.7,0,0,1-.343.026l-6.016,0a1.169,1.169,0,0,0-.293.024c-.467.124-.93.264-1.4.383-.8.2-1.61.393-2.414.594a.755.755,0,0,0-.652.845c0,.666-.016,1.332.009,2a1.133,1.133,0,0,0,.207.581,1.082,1.082,0,0,0,1.027.463c.208-.016.293-.051.315-.278a2.727,2.727,0,0,1,5.381-.265c.018.086.039.171.056.248h4.32a2.757,2.757,0,0,1,2.512-2.408,2.641,2.641,0,0,1,1.769.486,2.776,2.776,0,0,1,1.187,2.207c.407,0,.792.009,1.176-.008a.318.318,0,0,0,.212-.17,1.252,1.252,0,0,0,.113-.424c.022-.278.024-.558.024-.837,0-.691,0-1.381,0-2.072a.543.543,0,0,0-.34-.569c-.2-.082-.37-.215-.566-.3a3.187,3.187,0,0,1-1.784-1.708c-.065-.151-.156-.165-.31-.126a5.1,5.1,0,0,1-2.344.032,6.835,6.835,0,0,1-3.676-2.206.45.45,0,0,0-.279-.154c-.6-.014-1.2-.008-1.8-.007a.623.623,0,0,0-.591.335c-.355.684-.7,1.374-1.069,2.108ZM19.838,5.794a4.578,4.578,0,1,0-4.587,4.573A4.583,4.583,0,0,0,19.838,5.794ZM5.5,19.216A1.521,1.521,0,1,0,3.972,17.7,1.529,1.529,0,0,0,5.5,19.216Zm9.752-3.042a1.521,1.521,0,0,0,.008,3.042,1.521,1.521,0,1,0-.007-3.042Z" transform="translate(0)" fill="#fff"/>
    <path id="Caminho_985" data-name="Caminho 985" d="M206.385,40.154c-.134-.007-.24-.009-.345-.02a.588.588,0,0,1-.557-.629.581.581,0,0,1,.589-.573c.337-.01.673,0,1.01,0,.282,0,.44-.138.434-.358s-.152-.335-.43-.329A1.8,1.8,0,0,1,206,37.983a1.507,1.507,0,0,1-.708-1.451,1.464,1.464,0,0,1,.891-1.264.3.3,0,0,0,.217-.348,1.568,1.568,0,0,1,.012-.368.6.6,0,0,1,1.2.044c.009.154,0,.31,0,.49.121.006.225.008.327.017a.61.61,0,1,1-.043,1.22c-.329,0-.657,0-.986,0-.253,0-.4.128-.4.334s.144.36.407.353a1.81,1.81,0,0,1,1.189.312,1.539,1.539,0,0,1-.123,2.573.59.59,0,0,0-.375.628.565.565,0,0,1-.586.595.582.582,0,0,1-.6-.5c-.022-.144-.022-.292-.034-.46Z" transform="translate(-191.753 -31.779)" fill="#fff"/>
  </g>
</svg>
