<svg id="Camada_1-2" xmlns="http://www.w3.org/2000/svg" width="17.265" height="18.652" viewBox="0 0 17.265 18.652">
  <path id="Caminho_969" data-name="Caminho 969" d="M12.276,0a1.009,1.009,0,0,1,.778.757,1.657,1.657,0,0,1,.026.362q0,4.18,0,8.36V9.7c.259.047.511.08.756.137a4.463,4.463,0,0,1-.286,8.741,10.149,10.149,0,0,1-1.195.05c-.138.005-.276.024-.415.024q-5.418,0-10.836,0A.993.993,0,0,1,0,17.552Q0,9.375,0,1.2A1.036,1.036,0,0,1,.8,0ZM12.5,9.713V1.093c0-.385-.127-.51-.515-.51H1.113c-.405,0-.53.126-.53.533V17.542c0,.4.128.527.519.528h9.435A4.5,4.5,0,0,1,12.5,9.714Zm.3.577a3.889,3.889,0,1,0,3.882,3.92A3.9,3.9,0,0,0,12.8,10.29Z" fill="#fff"/>
  <path id="Caminho_970" data-name="Caminho 970" d="M29.669,43.938A2.752,2.752,0,1,1,32.39,46.7a2.752,2.752,0,0,1-2.721-2.764Zm.582.016a2.17,2.17,0,1,0,2.162-2.172,2.167,2.167,0,0,0-2.162,2.172Z" transform="translate(-28.225 -39.194)" fill="#fff"/>
  <path id="Caminho_971" data-name="Caminho 971" d="M44.434,186.211H40.263a1.125,1.125,0,0,1-.182-.006.288.288,0,0,1-.246-.294.285.285,0,0,1,.245-.276.83.83,0,0,1,.164-.006h8.4a.8.8,0,0,1,.146,0,.289.289,0,0,1,0,.573,1.026,1.026,0,0,1-.182,0H44.434Z" transform="translate(-37.895 -176.593)" fill="#fff"/>
  <path id="Caminho_972" data-name="Caminho 972" d="M42.837,330.639H40.308a.79.79,0,0,1-.163-.006.289.289,0,0,1,.01-.573.789.789,0,0,1,.127,0h5.113a.916.916,0,0,1,.127,0,.279.279,0,0,1,.265.275.285.285,0,0,1-.257.3,1.144,1.144,0,0,1-.164,0H42.837Z" transform="translate(-37.956 -313.992)" fill="#fff"/>
  <path id="Caminho_973" data-name="Caminho 973" d="M42.8,234.324H40.309a1.36,1.36,0,0,1-.2-.007.266.266,0,0,1-.24-.257.262.262,0,0,1,.194-.293.721.721,0,0,1,.215-.024q2.538,0,5.076,0a.7.7,0,0,1,.2.02.284.284,0,0,1-.039.555,1.434,1.434,0,0,1-.2.007H42.8Z" transform="translate(-37.927 -222.365)" fill="#fff"/>
  <path id="Caminho_974" data-name="Caminho 974" d="M42.765,282h2.528a1.187,1.187,0,0,1,.182.006.264.264,0,0,1,.239.256.261.261,0,0,1-.193.292.791.791,0,0,1-.233.023H40.249c-.036,0-.073,0-.109,0a.3.3,0,0,1-.316-.3.29.29,0,0,1,.322-.274c.873,0,1.746,0,2.619,0Z" transform="translate(-37.885 -268.277)" fill="#fff"/>
  <path id="Caminho_975" data-name="Caminho 975" d="M166.538,41.19h1.182c.23,0,.364.108.366.288s-.13.293-.359.294h-2.4c-.225,0-.361-.116-.357-.3s.136-.284.35-.285c.406,0,.812,0,1.218,0Z" transform="translate(-156.94 -39.185)" fill="#fff"/>
  <path id="Caminho_976" data-name="Caminho 976" d="M166.509,89.893c-.4,0-.8,0-1.2,0-.219,0-.347-.107-.35-.283s.128-.294.341-.3q1.218,0,2.435,0c.21,0,.344.123.341.3s-.133.281-.35.282c-.406,0-.812,0-1.218,0Z" transform="translate(-156.931 -84.966)" fill="#fff"/>
  <path id="Caminho_977" data-name="Caminho 977" d="M166.536,137.531c.4,0,.8,0,1.2,0,.218,0,.348.109.351.282s-.135.3-.357.3q-1.2,0-2.4,0c-.227,0-.362-.116-.361-.3s.132-.284.366-.285C165.736,137.529,166.136,137.53,166.536,137.531Z" transform="translate(-156.941 -130.837)" fill="#fff"/>
  <path id="Caminho_978" data-name="Caminho 978" d="M235.888,239.748c0,.152,0,.3,0,.443a.287.287,0,0,1-.286.293.293.293,0,0,1-.29-.273,2.5,2.5,0,0,1,0-.382c.007-.1-.032-.147-.129-.181a1.594,1.594,0,0,1-.927-.873.3.3,0,0,1,.115-.435c.16-.077.31-.01.411.184a.986.986,0,0,0,1.238.581.541.541,0,0,0,.392-.436.424.424,0,0,0-.293-.469c-.2-.073-.42-.114-.628-.181a3.307,3.307,0,0,1-.558-.213,1.02,1.02,0,0,1-.573-1.084,1.031,1.031,0,0,1,.778-.911c.139-.043.187-.1.172-.236a1.614,1.614,0,0,1,0-.291.286.286,0,0,1,.3-.292.282.282,0,0,1,.273.3c0,.145,0,.29,0,.442.105.033.2.058.3.093a1.127,1.127,0,0,1,.733.751.3.3,0,0,1-.166.405.282.282,0,0,1-.378-.213c-.128-.517-.974-.576-1.29-.281a.477.477,0,0,0,.04.744,2.361,2.361,0,0,0,.547.232c.183.062.377.092.56.153a1.04,1.04,0,0,1,.766.957,1.1,1.1,0,0,1-.694,1.038c-.128.054-.264.086-.416.135Z" transform="translate(-222.807 -223.557)" fill="#fff"/>
  <path id="Caminho_979" data-name="Caminho 979" d="M58.5,80.217c.345-.35.669-.686,1-1.012a.4.4,0,0,1,.263-.128.407.407,0,0,1,.251.17.249.249,0,0,1-.068.328c-.221.225-.446.447-.669.671-.18.18-.359.362-.542.54a.3.3,0,0,1-.488,0q-.454-.448-.9-.9a.3.3,0,0,1-.028-.449.289.289,0,0,1,.435.036c.242.238.479.481.745.748Z" transform="translate(-54.446 -75.228)" fill="#fff"/>
</svg>
