<svg xmlns="http://www.w3.org/2000/svg" width="20.369" height="14.18" viewBox="0 0 20.369 14.18">
  <g id="Camada_1-2" transform="translate(0 0)">
    <path id="Caminho_671" data-name="Caminho 671" d="M0,5.218H4.4a5.791,5.791,0,0,1,2.236-4A5.679,5.679,0,0,1,10.239,0a5.843,5.843,0,0,1,5.749,5.212h4.381v8.957c-.057,0-.114.011-.171.011H.08l-.08,0V5.218ZM11.932,7.774c.8,0,1.573,0,2.342-.006.054,0,.131-.078.157-.137a4.426,4.426,0,0,0,.321-2.53A4.619,4.619,0,1,0,5.936,7.619a.219.219,0,0,0,.233.159c.71-.007,1.42,0,2.13,0a1.03,1.03,0,0,0,.123-.014c-.04-.224-.078-.435-.119-.661H9.5c.005.027.01.046.013.066a.678.678,0,1,0,.639-.758,2.356,2.356,0,0,1-.564-.1,1.861,1.861,0,0,1-.164-3.468A.232.232,0,0,0,9.6,2.573c-.011-.189,0-.379,0-.564h1.194c0,.208.006.4,0,.593a.2.2,0,0,0,.139.223,1.939,1.939,0,0,1,.441.263,1.832,1.832,0,0,1,.694,1.44H10.882c-.017-.069-.028-.128-.046-.184a.667.667,0,0,0-.7-.48.681.681,0,0,0-.618.557.691.691,0,0,0,.722.8A1.87,1.87,0,0,1,11.967,6.5a1.894,1.894,0,0,1-.035,1.274Zm5.313,1.184H3.145V7.773H4.69l-.3-1.347H1.2v3.84H19.176V6.425H16L15.691,7.78h1.555V8.957ZM1.208,11.478v1.491h17.97V11.478Z" fill="#fff"/>
  </g>
</svg>
