<svg xmlns="http://www.w3.org/2000/svg" width="9.965" height="13.078" viewBox="0 0 9.965 13.078">
  <g id="md-unlock" transform="translate(-9 -4.313)">
    <path id="Caminho_57" data-name="Caminho 57" d="M17.719,8.672H17.1V7.426a3.114,3.114,0,0,0-6.228,0h1.183a1.931,1.931,0,0,1,3.861,0h0V8.672H10.246A1.249,1.249,0,0,0,9,9.918v6.228a1.249,1.249,0,0,0,1.246,1.246h7.473a1.249,1.249,0,0,0,1.246-1.246V9.918A1.249,1.249,0,0,0,17.719,8.672Zm-3.737,5.667a1.246,1.246,0,1,1,1.246-1.246A1.249,1.249,0,0,1,13.982,14.339Z" fill="#24fe91"/>
  </g>
</svg>
