<svg xmlns="http://www.w3.org/2000/svg" width="11.41" height="15.665" viewBox="0 0 11.41 15.665">
  <g id="_ëîé_1" transform="translate(0)">
    <path id="Caminho_635" data-name="Caminho 635" d="M206.8,0a1.739,1.739,0,0,1,.79.371,1.419,1.419,0,0,1-1.334,2.419,1.393,1.393,0,0,1-1.041-1.321,1.387,1.387,0,0,1,.841-1.34A3.048,3.048,0,0,1,206.494,0h.307Zm.549,1.424a.713.713,0,0,0-1.426,0,.713.713,0,0,0,1.426,0Z" transform="translate(-196.65)" fill="#1b75ce"/>
    <path id="Caminho_636" data-name="Caminho 636" d="M1.627,0a1.69,1.69,0,0,1,.8.358A1.437,1.437,0,0,1,2.8,1.974,1.425,1.425,0,0,1,.087,1.686,1.411,1.411,0,0,1,.9.131,3.149,3.149,0,0,1,1.32,0ZM.771,1.421a.723.723,0,0,0,.71.716A.72.72,0,0,0,2.2,1.428.721.721,0,0,0,1.488.712a.723.723,0,0,0-.717.709Z" transform="translate(-0.061 0)" fill="#1b75ce"/>
    <path id="Caminho_637" data-name="Caminho 637" d="M104.14,0a1.624,1.624,0,0,1,.793.366,1.369,1.369,0,0,1,.449,1.326,1.329,1.329,0,0,1-.91,1.063,1.405,1.405,0,0,1-1.853-.944A1.425,1.425,0,0,1,103.732.028a.984.984,0,0,0,.1-.027h.307Zm.556,1.429a.71.71,0,1,0-.714.709A.714.714,0,0,0,104.7,1.429Z" transform="translate(-98.282 0)" fill="#1b75ce"/>
    <path id="Caminho_638" data-name="Caminho 638" d="M105.468,308.745a1.416,1.416,0,0,1-1.483,1.337,1.431,1.431,0,0,1-1.346-1.608,1.446,1.446,0,0,1,1.494-1.229,1.416,1.416,0,0,1,1.334,1.5Zm-.707-.084a.71.71,0,1,0-.707.714A.715.715,0,0,0,104.761,308.661Z" transform="translate(-98.347 -294.419)" fill="#1b75ce"/>
    <path id="Caminho_639" data-name="Caminho 639" d="M105.446,103.918a1.423,1.423,0,1,1-1.425-1.418,1.434,1.434,0,0,1,1.425,1.418Zm-.714,0a.709.709,0,1,0-.712.706A.709.709,0,0,0,104.732,103.922Z" transform="translate(-98.318 -98.222)" fill="#1b75ce"/>
    <path id="Caminho_640" data-name="Caminho 640" d="M206.519,102.489a1.422,1.422,0,1,1,.012,2.844,1.422,1.422,0,1,1-.012-2.844Zm0,2.129a.709.709,0,1,0-.709-.712.714.714,0,0,0,.709.712Z" transform="translate(-196.539 -98.212)" fill="#1b75ce"/>
    <path id="Caminho_641" data-name="Caminho 641" d="M102.6,206.2a1.423,1.423,0,1,1,1.424,1.42A1.434,1.434,0,0,1,102.6,206.2Zm2.133,0a.709.709,0,1,0-.713.706A.706.706,0,0,0,104.733,206.208Z" transform="translate(-98.318 -196.234)" fill="#1b75ce"/>
    <path id="Caminho_642" data-name="Caminho 642" d="M1.449,102.51a1.422,1.422,0,0,1-.031,2.843,1.422,1.422,0,1,1,.031-2.843Zm-.019,2.128a.71.71,0,1,0-.719-.7.712.712,0,0,0,.719.7Z" transform="translate(-0.003 -98.232)" fill="#1b75ce"/>
    <path id="Caminho_643" data-name="Caminho 643" d="M1.423,207.624a1.422,1.422,0,1,1,0-2.844,1.422,1.422,0,1,1,0,2.845Zm.006-.71a.709.709,0,1,0-.719-.7A.716.716,0,0,0,1.429,206.914Z" transform="translate(0 -196.234)" fill="#1b75ce"/>
    <path id="Caminho_644" data-name="Caminho 644" d="M206.541,207.622a1.422,1.422,0,1,1,1.418-1.426,1.433,1.433,0,0,1-1.418,1.426Zm0-2.128a.709.709,0,1,0,.71.712.712.712,0,0,0-.71-.712Z" transform="translate(-196.549 -196.231)" fill="#1b75ce"/>
  </g>
</svg>
