<svg xmlns="http://www.w3.org/2000/svg" width="20.45" height="20.436" viewBox="0 0 20.45 20.436">
  <g id="Camada_1-2" transform="translate(-0.01)">
    <path id="Caminho_876" data-name="Caminho 876" d="M7.356,0A1.094,1.094,0,0,1,8.19,1.257v.784h.244c1.37,0,2.741,0,4.112,0a1.245,1.245,0,0,1,.944.392q1.078,1.1,2.172,2.175a1.164,1.164,0,0,1,.363.873c0,1.73,0,3.46,0,5.19v.206c.437.107.859.176,1.257.313a4.758,4.758,0,0,1-.773,9.176,4.654,4.654,0,0,1-4.63-1.831.316.316,0,0,0-.283-.133c-2.222,0-4.445-.01-6.667.009a1.106,1.106,0,0,1-1.175-1.176c.024-2.022.009-4.046.009-6.068V10.9H3.534c-.759,0-1.518-.019-2.275.006A1.118,1.118,0,0,1,.01,10.063V.839A1.142,1.142,0,0,1,.848,0Zm4.015,17.722a4.783,4.783,0,0,1,3.958-6.808V5.453H15.1c-.466,0-.931,0-1.4,0A1.017,1.017,0,0,1,12.62,4.362c0-.472,0-.945,0-1.417,0-.07-.006-.14-.01-.209H8.19v.25q0,3.413,0,6.826A1.023,1.023,0,0,1,7.1,10.9c-.812,0-1.623,0-2.435,0H4.44v6.327c0,.394.1.492.5.492h6.434Zm8.4-2.051a4.09,4.09,0,1,0-4.083,4.093,4.1,4.1,0,0,0,4.083-4.093ZM.69,5.432V9.743c0,.372.1.478.47.479H7.027c.378,0,.481-.105.481-.49V1.17c0-.384-.1-.49-.482-.49H1.178c-.385,0-.489.1-.489.481V5.432Zm14.07-.669L13.3,3.312c0,.35-.005.742,0,1.134a.294.294,0,0,0,.3.314c.4.012.8,0,1.156,0Z" transform="translate(0)" fill="#fff"/>
    <path id="Caminho_877" data-name="Caminho 877" d="M105.036,223.611c.771,0,1.542,0,2.313,0a.357.357,0,0,1,.364.189.326.326,0,0,1-.2.465.888.888,0,0,1-.256.027q-2.233,0-4.466,0a1.254,1.254,0,0,1-.179-.005.335.335,0,0,1-.308-.353.32.32,0,0,1,.337-.32c.459-.006.917,0,1.376,0h1.017Z" transform="translate(-96.839 -211.682)" fill="#fff"/>
    <path id="Caminho_878" data-name="Caminho 878" d="M175.027,192.309h-2.113c-.267,0-.425-.129-.425-.341s.159-.339.427-.339q2.133,0,4.266,0c.268,0,.416.13.41.351s-.147.327-.393.328c-.724,0-1.449,0-2.173,0Z" transform="translate(-163.279 -181.406)" fill="#fff"/>
    <path id="Caminho_879" data-name="Caminho 879" d="M175.079,160.319h-2.033a1.355,1.355,0,0,1-.219-.009.31.31,0,0,1-.28-.313.3.3,0,0,1,.229-.332.829.829,0,0,1,.236-.026q2.083,0,4.166,0a.894.894,0,0,1,.217.019.317.317,0,0,1,.249.356.308.308,0,0,1-.293.3,2.2,2.2,0,0,1-.259.007h-2.013Z" transform="translate(-163.333 -151.122)" fill="#fff"/>
    <path id="Caminho_880" data-name="Caminho 880" d="M175.063,127.811c.717,0,1.435,0,2.152,0a.341.341,0,1,1,.047.679c-.146.011-.292,0-.438,0H173a1.239,1.239,0,0,1-.2-.007.337.337,0,0,1-.3-.362.325.325,0,0,1,.33-.308c.345-.007.691,0,1.036,0h1.2Z" transform="translate(-163.287 -120.992)" fill="#fff"/>
    <path id="Caminho_881" data-name="Caminho 881" d="M104.717,256.11h-1.9a1.176,1.176,0,0,1-.2-.009.333.333,0,0,1-.044-.646.913.913,0,0,1,.256-.026q1.887,0,3.773,0a1.587,1.587,0,0,1,.159,0,.344.344,0,0,1,.34.347.332.332,0,0,1-.353.329c-.266.007-.532,0-.8,0Z" transform="translate(-96.877 -241.802)" fill="#fff"/>
    <path id="Caminho_882" data-name="Caminho 882" d="M104.507,287.432c.6,0,1.2,0,1.8,0,.268,0,.418.131.413.35s-.152.329-.412.33q-1.8,0-3.593,0c-.268,0-.418-.13-.413-.349s.153-.33.412-.33c.6,0,1.2,0,1.8,0Z" transform="translate(-96.831 -272.099)" fill="#fff"/>
    <path id="Caminho_883" data-name="Caminho 883" d="M263.974,231.106v1.984l.163.052a1.7,1.7,0,0,1,.052,3.233c-.118.04-.214.066-.261.221a.433.433,0,0,1-.3.208.271.271,0,0,1-.312-.222c-.028-.13-.1-.162-.207-.2a1.693,1.693,0,0,1-1.179-1.567.35.35,0,0,1,.334-.391.354.354,0,0,1,.345.364.964.964,0,0,0,.666.908v-1.984c-.063-.02-.137-.042-.21-.067a1.7,1.7,0,0,1,.045-3.224c.106-.034.179-.067.206-.2a.329.329,0,0,1,.628,0c.027.132.1.162.207.2a1.69,1.69,0,0,1,1.178,1.567.347.347,0,0,1-.313.39.354.354,0,0,1-.366-.363.969.969,0,0,0-.675-.912Zm0,4.6a.989.989,0,0,0,.669-1.021.945.945,0,0,0-.669-.845Zm-.7-4.6a1,1,0,0,0-.67,1.023.948.948,0,0,0,.67.844Z" transform="translate(-247.946 -217.731)" fill="#fff"/>
    <path id="Caminho_884" data-name="Caminho 884" d="M28.232,25.5q.979,0,1.957,0a.7.7,0,0,1,.772.763q0,1.287,0,2.575a.685.685,0,0,1-.742.752q-1.987.006-3.973,0a.684.684,0,0,1-.74-.752q0-1.3,0-2.6a.689.689,0,0,1,.751-.743c.659,0,1.318,0,1.976,0Zm2.037.692H26.2v2.7H30.27v-2.7Z" transform="translate(-24.134 -24.139)" fill="#fff"/>
    <path id="Caminho_885" data-name="Caminho 885" d="M26.238,166.1c.113,0,.226-.005.339,0a.337.337,0,0,1,.017.673,7.084,7.084,0,0,1-.737,0,.336.336,0,0,1,.023-.67c.119-.007.239,0,.359,0Z" transform="translate(-24.178 -157.241)" fill="#fff"/>
    <path id="Caminho_886" data-name="Caminho 886" d="M26.253,140.592c.113,0,.226-.006.339,0a.32.32,0,0,1,.313.3.313.313,0,0,1-.271.359,5.325,5.325,0,0,1-.815,0,.318.318,0,0,1-.27-.344.334.334,0,0,1,.325-.316C26,140.586,26.127,140.592,26.253,140.592Z" transform="translate(-24.177 -133.09)" fill="#fff"/>
    <path id="Caminho_887" data-name="Caminho 887" d="M64.581,166.113c.113,0,.226-.005.339,0a.337.337,0,0,1,.023.671,6.8,6.8,0,0,1-.737,0,.334.334,0,0,1-.318-.345.338.338,0,0,1,.334-.328c.119-.006.239,0,.358,0Z" transform="translate(-60.47 -157.25)" fill="#fff"/>
    <path id="Caminho_888" data-name="Caminho 888" d="M102.98,166.111c.113,0,.226,0,.339,0a.339.339,0,0,1,.341.322.333.333,0,0,1-.311.351,6.8,6.8,0,0,1-.737,0,.323.323,0,0,1-.307-.35.327.327,0,0,1,.336-.322c.113-.005.226,0,.339,0Z" transform="translate(-96.838 -157.249)" fill="#fff"/>
    <path id="Caminho_889" data-name="Caminho 889" d="M64.584,140.6c.113,0,.226-.006.339,0a.321.321,0,0,1,.317.319.316.316,0,0,1-.288.347,5.615,5.615,0,0,1-.776,0,.327.327,0,0,1-.292-.346.336.336,0,0,1,.341-.321c.119-.006.239,0,.358,0h0Z" transform="translate(-60.467 -133.096)" fill="#fff"/>
    <path id="Caminho_890" data-name="Caminho 890" d="M103,140.592c.119,0,.24-.006.358,0a.333.333,0,0,1,.318.322.319.319,0,0,1-.276.339,5.316,5.316,0,0,1-.814,0,.311.311,0,0,1-.264-.364.318.318,0,0,1,.318-.3C102.762,140.586,102.882,140.592,103,140.592Z" transform="translate(-96.855 -133.09)" fill="#fff"/>
    <path id="Caminho_891" data-name="Caminho 891" d="M64.563,115.043c.119,0,.24-.006.358,0a.31.31,0,0,1,.315.3.3.3,0,0,1-.266.36,5.309,5.309,0,0,1-.813,0,.314.314,0,0,1-.274-.339.332.332,0,0,1,.321-.319c.119-.009.239,0,.358,0Z" transform="translate(-60.466 -108.904)" fill="#fff"/>
    <path id="Caminho_892" data-name="Caminho 892" d="M26.243,115.059c.119,0,.24-.007.358,0a.317.317,0,0,1,.309.3.294.294,0,0,1-.256.348,4.934,4.934,0,0,1-.833,0,.313.313,0,0,1-.267-.344.328.328,0,0,1,.309-.309c.125-.01.252,0,.378,0Z" transform="translate(-24.182 -108.918)" fill="#fff"/>
    <path id="Caminho_893" data-name="Caminho 893" d="M102.99,115.064c.126,0,.253-.009.378,0a.32.32,0,0,1,.3.316c0,.17-.078.318-.252.333a5.156,5.156,0,0,1-.851,0,.3.3,0,0,1-.248-.353.3.3,0,0,1,.295-.3c.125-.012.252,0,.378,0Z" transform="translate(-96.847 -108.923)" fill="#fff"/>
  </g>
</svg>
