<svg xmlns="http://www.w3.org/2000/svg" width="16.648" height="13.803" viewBox="0 0 16.648 13.803">
  <g id="Icon_feather-camera" data-name="Icon feather-camera" transform="translate(-1 -4)">
    <path id="Caminho_633" data-name="Caminho 633" d="M17.148,15.88A1.423,1.423,0,0,1,15.725,17.3H2.923A1.423,1.423,0,0,1,1.5,15.88V8.056A1.423,1.423,0,0,1,2.923,6.634H5.768L7.19,4.5h4.268L12.88,6.634h2.845a1.423,1.423,0,0,1,1.423,1.423Z" fill="none" stroke="#1b75ce" stroke-linecap="round" stroke-linejoin="round" stroke-width="1"/>
    <path id="Caminho_634" data-name="Caminho 634" d="M17.69,16.345A2.845,2.845,0,1,1,14.845,13.5,2.845,2.845,0,0,1,17.69,16.345Z" transform="translate(-5.521 -4.732)" fill="none" stroke="#1b75ce" stroke-linecap="round" stroke-linejoin="round" stroke-width="1"/>
  </g>
</svg>
