<svg xmlns="http://www.w3.org/2000/svg" width="10" height="6.579" viewBox="0 0 10 6.579">
  <g id="Camada_1-2" transform="translate(-0.004 0.003)">
    <path id="Caminho_812" data-name="Caminho 812" d="M10,.029V6.545c-.047.043-.1.029-.158.029H.174c-.054,0-.111.016-.16-.023a.258.258,0,0,1-.009-.115q0-1.573,0-3.147t0-3.146A.362.362,0,0,1,.012.026C.056-.015.111,0,.161,0H9.835c.057,0,.118-.016.168.028Z" transform="translate(0 0)" fill="#0052b4"/>
    <path id="Caminho_813" data-name="Caminho 813" d="M10.545,251.12H.675c-.038,0-.083.022-.115-.019h9.985Z" transform="translate(-0.542 -244.555)" fill="#135fba"/>
    <path id="Caminho_814" data-name="Caminho 814" d="M.57.3C.6.258.647.28.685.28h9.87V.3H.57Z" transform="translate(-0.551 -0.27)" fill="#135fba"/>
    <path id="Caminho_815" data-name="Caminho 815" d="M217.976,64.807a.143.143,0,0,0,.226.027.467.467,0,0,1,.187-.069,2.591,2.591,0,0,1-.123.23.07.07,0,0,0,.013.11c.06.054.113.116.169.174.02.015.038.03.015.056a2.706,2.706,0,0,1-.291-.044c-.058-.01-.063.013-.079.045-.042.082-.083.164-.137.272-.022-.123-.044-.218-.056-.315,0-.042-.016-.051-.056-.055-.1-.011-.191-.031-.313-.052l.253-.141c0-.042.052-.058.058-.1,0-.093-.045-.181-.022-.276.082.011.118.075.156.137Z" transform="translate(-211.855 -62.986)" fill="#ffda44"/>
    <path id="Caminho_816" data-name="Caminho 816" d="M129.7,64.14a1,1,0,0,0,.155-.155.406.406,0,0,0,.035-.1,2.063,2.063,0,0,0-.144-.273.882.882,0,0,1,.247.112.105.105,0,0,0,.158-.027c.051-.065.115-.12.191-.2l-.036.288a.124.124,0,0,0,.069.085.165.165,0,0,1,.084.087l.157.086c-.116.02-.21.041-.3.052-.044,0-.064.006-.071.061-.013.1-.034.191-.043.308a.571.571,0,0,1-.111-.2c-.032-.116-.114-.125-.2-.1a1.019,1.019,0,0,0-.185.034c-.04-.02-.029-.038,0-.056Z" transform="translate(-126.293 -61.847)" fill="#ffda44"/>
    <path id="Caminho_817" data-name="Caminho 817" d="M130.481,152.234c-.019.054.03.1.014.155-.048.023-.07-.016-.1-.041-.067-.06-.123-.132-.193-.19l-.24.127a.036.036,0,0,1-.045,0c-.015-.016.005-.027.01-.04.015-.045.061-.074.061-.125a.2.2,0,0,0,0-.219.554.554,0,0,0-.116-.116c-.02-.013-.05-.021-.041-.053,0-.016.023-.017.039-.008l.242.042a.075.075,0,0,0,.088-.05c.041-.088.086-.175.141-.286.021.126.04.226.054.327,0,.031,0,.062.041.066.1.014.207.025.311.037.016,0,.025,0,.017.022a.448.448,0,0,0-.134.063.2.2,0,0,1-.1.1.106.106,0,0,0-.068.075v.039c.019.023.043.045.02.078Z" transform="translate(-126.444 -147.484)" fill="#ffda44"/>
    <path id="Caminho_818" data-name="Caminho 818" d="M218.462,152.31c.042.084.084.155.113.232s.089.093.165.076.139-.023.239-.04c-.081.08-.138.142-.2.2a.083.083,0,0,0-.022.128c.048.074.085.155.135.248a.9.9,0,0,1-.247-.112.109.109,0,0,0-.159.028c-.049.06-.105.113-.172.184a1.049,1.049,0,0,1,.034-.3c.011-.045,0-.062-.039-.081-.088-.042-.173-.088-.269-.137a.53.53,0,0,1,.247-.048c.124,0,.111-.08.126-.149A1.014,1.014,0,0,1,218.462,152.31Z" transform="translate(-212.351 -148.341)" fill="#ffda44"/>
    <path id="Caminho_819" data-name="Caminho 819" d="M174.466,44.93c.027-.087.055-.173.081-.26,0-.017.009-.03.029-.03s.026.01.031.028a1.948,1.948,0,0,1,.08.262,1.92,1.92,0,0,0,.3.013c.022,0,.061-.024.066.025-.085.06-.168.123-.256.178-.045.028-.017.059-.01.081a2.277,2.277,0,0,1,.078.251c-.044.055-.06.009-.081-.022l-.03-.02a.274.274,0,0,0-.359,0c-.043.02-.071.013-.077-.04a1.112,1.112,0,0,0,.064-.213c0-.026-.012-.032-.027-.041-.055-.013-.1-.032-.119-.094l-.114-.083c.009-.054.051-.023.077-.026a1.628,1.628,0,0,0,.269-.013Z" transform="translate(-169.576 -43.478)" fill="#ffda44"/>
    <path id="Caminho_820" data-name="Caminho 820" d="M174.528,175.649c.1,0,.142-.088.214-.13.022-.013.044-.039.067-.023s0,.044-.006.069c-.086.274-.077.292.208.437-.005.05-.044.024-.066.026a1.928,1.928,0,0,0-.3.013c-.027.091-.054.182-.082.272,0,.013-.02.022-.03.033-.009-.013-.024-.025-.025-.038a.247.247,0,0,0-.039-.113.065.065,0,0,1-.02-.059l-.025-.1c-.114-.032-.233.009-.347-.021.017-.045.069-.048.1-.081.027-.06.062-.111.137-.112.023,0,.045,0,.031-.039a1.537,1.537,0,0,1-.067-.215c0-.024-.045-.052-.009-.076s.046.011.066.026c.043.032.089.06.133.09.031-.005.04.024.059.037Z" transform="translate(-169.537 -170.918)" fill="#ffda44"/>
    <path id="Caminho_821" data-name="Caminho 821" d="M241.743,109.774a.214.214,0,0,1,.122.046l-.314.108a1.361,1.361,0,0,0-.013.256c0,.026.026.068-.029.075-.056-.073-.115-.144-.165-.221-.024-.037-.039-.032-.076-.022a1.073,1.073,0,0,1-.227.067c-.017,0-.038.026-.047,0a.068.068,0,0,1,.016-.049c.045-.062.09-.124.141-.181.028-.031.029-.047,0-.079a1.717,1.717,0,0,1-.11-.154c-.014-.038.011-.049.04-.057l.156.038a.439.439,0,0,0,.139-.06l.038-.057c.013-.063.025-.127.115-.1a1.031,1.031,0,0,1,.011.23c0,.034-.013.071.012.1a.231.231,0,0,1,.115.038.091.091,0,0,0,.077.025Z" transform="translate(-234.705 -106.523)" fill="#ffda44"/>
    <path id="Caminho_822" data-name="Caminho 822" d="M114.7,109.82c.024-.014.046-.039.08-.008-.034.063-.1.106-.12.178a.213.213,0,0,0,0,.16.453.453,0,0,0,.095.14c.014.02.032.039.02.059s-.037.011-.059,0c-.04-.018-.084-.027-.124-.046-.1-.045-.179-.041-.223.075-.017.065-.016.145-.118.137-.027-.108.013-.221-.021-.329a.508.508,0,0,1-.174-.058.071.071,0,0,1,0-.1l.179-.075a2.4,2.4,0,0,0,.008-.252c0-.021-.019-.056.026-.059l0,0c.074.007.072.073.094.12l.021.035a.108.108,0,0,0,.059.08.372.372,0,0,0,.154-.035c.039.027.067,0,.1-.02Z" transform="translate(-111.06 -106.784)" fill="#ffda44"/>
    <path id="Caminho_823" data-name="Caminho 823" d="M144.09,179.243c.042-.016.064.013.09.038.066.065.134.128.2.192.017.074-.031.06-.059.035a.647.647,0,0,1-.231-.265Z" transform="translate(-140.329 -174.567)" fill="#0052b4"/>
    <path id="Caminho_824" data-name="Caminho 824" d="M153.326,171.352c-.034-.057-.016-.092.044-.114.044-.016.086-.039.128-.058C153.517,171.314,153.41,171.322,153.326,171.352Z" transform="translate(-149.308 -166.719)" fill="#0052b4"/>
    <path id="Caminho_825" data-name="Caminho 825" d="M153.491,74.722a.916.916,0,0,0-.107-.051c-.067-.023-.076-.063-.045-.12a1.1,1.1,0,0,1,.121.06.091.091,0,0,1,.032.112Z" transform="translate(-149.32 -72.609)" fill="#0052b4"/>
    <path id="Caminho_826" data-name="Caminho 826" d="M126.362,159.98c-.08.023.014.04,0,.061h-.049c-.046,0-.086-.008-.088-.066a.058.058,0,0,1,.054-.068C126.335,159.9,126.361,159.927,126.362,159.98Z" transform="translate(-122.933 -155.74)" fill="#0052b4"/>
    <path id="Caminho_827" data-name="Caminho 827" d="M252.745,87.678l-.015-.056a.411.411,0,0,0,.048-.007.058.058,0,0,1,.076.04.055.055,0,0,1-.035.071C252.773,87.748,252.754,87.718,252.745,87.678Z" transform="translate(-246.137 -85.33)" fill="#0052b4"/>
    <path id="Caminho_828" data-name="Caminho 828" d="M122.848,138.2c.035-.045.053-.1.1-.136.04.129.024.154-.1.156A.014.014,0,0,1,122.848,138.2Z" transform="translate(-119.637 -134.463)" fill="#0052b4"/>
    <path id="Caminho_829" data-name="Caminho 829" d="M177.9,187.583c-.032.054-.09.076-.137.112C177.762,187.559,177.785,187.541,177.9,187.583Z" transform="translate(-173.122 -182.675)" fill="#0052b4"/>
    <path id="Caminho_830" data-name="Caminho 830" d="M110.133,124.58v.1h-.01c-.044-.013-.121-.01-.118-.054S110.085,124.587,110.133,124.58Z" transform="translate(-107.133 -121.334)" fill="#ffda44"/>
    <path id="Caminho_831" data-name="Caminho 831" d="M126.789,88.03a.038.038,0,0,0,0,.056c-.01.037-.031.058-.071.042a.048.048,0,0,1-.032-.054c.006-.036.034-.043.065-.043h.039Z" transform="translate(-123.378 -85.737)" fill="#0052b4"/>
    <path id="Caminho_832" data-name="Caminho 832" d="M228.806,64.32c-.064-.032-.1-.1-.156-.137.082-.045.1.037.144.072C228.807,64.266,228.8,64.3,228.806,64.32Z" transform="translate(-222.685 -62.499)" fill="#0052b4"/>
    <path id="Caminho_833" data-name="Caminho 833" d="M199.5,75.94c.027.008.044.048.081.022.032.026.05.058.008.084s-.066-.006-.081-.041A.241.241,0,0,1,199.5,75.94Z" transform="translate(-194.295 -73.963)" fill="#0052b4"/>
    <path id="Caminho_834" data-name="Caminho 834" d="M256.732,108.727c-.05.016-.05.08-.1.1-.032-.108,0-.142.1-.119,0,0,.007.008,0,.012S256.734,108.727,256.732,108.727Z" transform="translate(-249.93 -105.871)" fill="#0052b4"/>
    <path id="Caminho_835" data-name="Caminho 835" d="M123.334,109.284l-.094-.12C123.349,109.135,123.357,109.145,123.334,109.284Z" transform="translate(-120.023 -106.307)" fill="#0052b4"/>
    <path id="Caminho_836" data-name="Caminho 836" d="M135.757,123.25c-.083-.075-.083-.086,0-.16A.171.171,0,0,1,135.757,123.25Z" transform="translate(-132.153 -119.883)" fill="#0052b4"/>
    <path id="Caminho_837" data-name="Caminho 837" d="M135.873,169.48q.089.078,0,.219A1.251,1.251,0,0,0,135.873,169.48Z" transform="translate(-132.326 -165.064)" fill="#0052b4"/>
    <path id="Caminho_838" data-name="Caminho 838" d="M250.459,115.678c-.031.056-.056.125-.139.06C250.349,115.678,250.4,115.674,250.459,115.678Z" transform="translate(-243.79 -112.664)" fill="#0052b4"/>
    <path id="Caminho_839" data-name="Caminho 839" d="M195.84,195.128c.052-.045.114-.011.17-.02s.132.018.194-.018c.021.056-.027.035-.045.035-.106,0-.213,0-.319,0Z" transform="translate(-190.73 -190.006)" fill="#547f8f"/>
    <path id="Caminho_840" data-name="Caminho 840" d="M260.76,108.568a.022.022,0,0,0,0-.018c.05-.031.04.012.04.035,0,.1,0,.21,0,.315-.04-.04-.015-.091-.022-.136-.009-.065.021-.134-.021-.195Z" transform="translate(-253.957 -105.712)" fill="#a8ab6b"/>
    <path id="Caminho_841" data-name="Caminho 841" d="M174.251,55.77c-.052.045-.114.01-.171.021s-.12-.021-.174.018c-.01-.034-.01-.036.015-.037l.331,0Z" transform="translate(-169.361 -54.318)" fill="#55808f"/>
    <path id="Caminho_842" data-name="Caminho 842" d="M196.194,55.784c-.087-.038-.179-.005-.267-.017-.032,0-.072.02-.1-.02.106,0,.213,0,.319,0,.017,0,.065-.021.045.035Z" transform="translate(-190.72 -54.294)" fill="#547f8f"/>
    <path id="Caminho_843" data-name="Caminho 843" d="M178.455,60.44a.511.511,0,0,1,.119.094C178.462,60.559,178.447,60.547,178.455,60.44Z" transform="translate(-173.796 -58.867)" fill="#0052b4"/>
    <path id="Caminho_844" data-name="Caminho 844" d="M121.6,131.038v.02c-.051.031-.033-.017-.034-.033,0-.1,0-.21,0-.315.043.058.013.124.022.186.007.047-.014.1.016.141Z" transform="translate(-118.387 -127.304)" fill="#a8ab6b"/>
    <path id="Caminho_845" data-name="Caminho 845" d="M226.763,75.26c.049.074,0,.086-.058.1C226.664,75.291,226.715,75.277,226.763,75.26Z" transform="translate(-220.776 -73.3)" fill="#0052b4"/>
    <path id="Caminho_846" data-name="Caminho 846" d="M121.711,108.55c-.034.064-.01.133-.017.2,0,.038.01.078-.016.112,0-.1,0-.208,0-.312,0-.014,0-.036.022-.032s.013.02.014.032Z" transform="translate(-118.498 -105.691)" fill="#a8ab6b"/>
    <path id="Caminho_847" data-name="Caminho 847" d="M173.53,195.68c.094,0,.187,0,.281,0,.023,0,.053-.014.067.02l-.347,0s-.007,0-.009,0,0-.013.009-.016Z" transform="translate(-168.988 -190.579)" fill="#55808f"/>
    <path id="Caminho_848" data-name="Caminho 848" d="M260.78,131.041c.042-.065.011-.137.021-.2.006-.042-.017-.09.022-.127,0,.1,0,.2,0,.295C260.819,131.027,260.831,131.07,260.78,131.041Z" transform="translate(-253.977 -127.304)" fill="#a8ab6b"/>
    <path id="Caminho_849" data-name="Caminho 849" d="M180.771,73.8a.089.089,0,0,0,.077.04l-.086.063A.08.08,0,0,1,180.771,73.8Z" transform="translate(-176.032 -71.878)" fill="#ffda44"/>
    <path id="Caminho_850" data-name="Caminho 850" d="M241,115.686l-.04.057c-.033-.014-.04-.046-.05-.075A.086.086,0,0,1,241,115.686Z" transform="translate(-234.625 -112.649)" fill="#ffda44"/>
    <path id="Caminho_851" data-name="Caminho 851" d="M136.448,78.28c.047.054,0,.074-.035.1A.073.073,0,0,1,136.448,78.28Z" transform="translate(-132.847 -76.242)" fill="#0052b4"/>
    <path id="Caminho_852" data-name="Caminho 852" d="M135.968,116.4c-.026.039-.051.084-.1.02C135.9,116.415,135.93,116.38,135.968,116.4Z" transform="translate(-132.324 -113.36)" fill="#ffda44"/>
    <path id="Caminho_853" data-name="Caminho 853" d="M189.029,179.285c-.036.014-.043-.02-.059-.037C189.033,179.191,189.022,179.252,189.029,179.285Z" transform="translate(-184.039 -174.554)" fill="#0052b4"/>
    <path id="Caminho_854" data-name="Caminho 854" d="M165.067,166.54l-.017-.022c0-.018.008-.038.031-.038.006,0,.016.01.019.017C165.109,166.526,165.09,166.535,165.067,166.54Z" transform="translate(-160.743 -162.142)" fill="#0052b4"/>
    <path id="Caminho_855" data-name="Caminho 855" d="M153.861,179.368c0-.029-.033-.047-.02-.078C153.886,179.306,153.92,179.325,153.861,179.368Z" transform="translate(-149.824 -174.618)" fill="#0052b4"/>
    <path id="Caminho_856" data-name="Caminho 856" d="M266.907,123.855c-.036.025-.059.008-.077-.025A.109.109,0,0,1,266.907,123.855Z" transform="translate(-259.869 -120.604)" fill="#ffda44"/>
    <path id="Caminho_857" data-name="Caminho 857" d="M127.726,115.68c-.048-.005-.061-.037-.059-.08Z" transform="translate(-124.334 -112.588)" fill="#ffda44"/>
    <path id="Caminho_858" data-name="Caminho 858" d="M187.867,200.2c.028.012.012.039.02.059C187.863,200.245,187.84,200.231,187.867,200.2Z" transform="translate(-182.953 -194.983)" fill="#0052b4"/>
  </g>
</svg>
