<svg xmlns="http://www.w3.org/2000/svg" width="14.934" height="10.189" viewBox="0 0 14.934 10.189">
  <g id="eye" transform="translate(0 -0.331)">
    <g id="Grupo_15" data-name="Grupo 15" transform="translate(0 0.331)">
      <path id="Caminho_74" data-name="Caminho 74" d="M7.483.331A7.721,7.721,0,0,1,12.02,1.748a7.983,7.983,0,0,1,2.914,3.678A7.983,7.983,0,0,1,12.02,9.1,7.721,7.721,0,0,1,7.483,10.52,7.793,7.793,0,0,1,2.929,9.1,7.949,7.949,0,0,1,0,5.426,7.949,7.949,0,0,1,2.929,1.748,7.793,7.793,0,0,1,7.483.331Zm0,8.5a3.227,3.227,0,0,0,2.388-1,3.306,3.306,0,0,0,.987-2.4,3.306,3.306,0,0,0-.987-2.4,3.227,3.227,0,0,0-2.388-1,3.279,3.279,0,0,0-2.4,1,3.279,3.279,0,0,0-1,2.4,3.279,3.279,0,0,0,1,2.4A3.279,3.279,0,0,0,7.483,8.833ZM7.467,3.388a2,2,0,0,1,1.449.589,1.943,1.943,0,0,1,.6,1.449,1.943,1.943,0,0,1-.6,1.449,2,2,0,0,1-1.449.589A2.012,2.012,0,0,1,5.445,5.426,2.012,2.012,0,0,1,7.467,3.388Z" transform="translate(0 -0.331)" fill="#fff"/>
    </g>
  </g>
</svg>
