<svg xmlns="http://www.w3.org/2000/svg" width="10" height="10" viewBox="0 0 10 10">
  <g id="Camada_1-2" transform="translate(0.01 0.021)">
    <path id="Caminho_859" data-name="Caminho 859" d="M108.755,9.979a.246.246,0,0,1-.1-.226c0-.384,0-.768,0-1.152,0-.074.019-.145.093-.164a.209.209,0,0,1,.159.023.205.205,0,0,1,.057.145c.005.273,0,.547,0,.82v.113c.085-.053.159-.1.231-.144a.178.178,0,0,1,.217,0c.1.066.207.124.3.195a.128.128,0,0,0,.173,0c.1-.068.2-.125.3-.19a.179.179,0,0,1,.217,0c.1.068.212.128.312.2a.116.116,0,0,0,.156,0c.1-.067.2-.123.3-.19a.188.188,0,0,1,.234,0c.1.067.206.125.3.195a.116.116,0,0,0,.156,0c.1-.068.2-.128.3-.195a.179.179,0,0,1,.217,0c.106.07.217.133.321.2a.105.105,0,0,0,.139,0c.1-.066.2-.122.3-.19a.2.2,0,0,1,.259,0c.093.065.195.118.287.185a.116.116,0,0,0,.156,0c.1-.07.209-.132.312-.2a.167.167,0,0,1,.2,0c.073.047.148.093.233.146,0-.036.007-.063.007-.09q0-4.4,0-8.8a.317.317,0,0,0-.347-.354h-5.263c-.028,0-.056,0-.058,0,.015.171.041.337.042.5,0,.895,0,1.79,0,2.685,0,.029,0,.059,0,.088a.157.157,0,0,1-.153.159.154.154,0,0,1-.158-.163c0-.2,0-.4,0-.605V2.8c-.036,0-.067,0-.1,0-.218,0-.436,0-.654,0-.123,0-.184-.057-.184-.176,0-.677,0-1.354,0-2.031a.619.619,0,0,1,.6-.6h5.9a.631.631,0,0,1,.689.692q0,4.535,0,9.071a.254.254,0,0,1-.1.236h-.117c-.131-.086-.261-.174-.4-.256a.1.1,0,0,0-.085,0c-.135.081-.266.168-.4.253h-.1c-.128-.081-.258-.16-.383-.246a.1.1,0,0,0-.13,0c-.126.084-.256.163-.385.244h-.1c-.132-.085-.264-.172-.4-.254a.1.1,0,0,0-.085,0c-.134.082-.265.169-.4.254h-.117c-.131-.086-.261-.174-.395-.256a.1.1,0,0,0-.085,0c-.135.081-.267.168-.4.253h-.1c-.128-.082-.258-.16-.383-.246a.1.1,0,0,0-.13,0c-.127.084-.256.163-.385.243h-.1c-.132-.085-.264-.172-.4-.254a.089.089,0,0,0-.077-.005c-.136.084-.27.173-.4.26h-.117Zm-.1-7.5c0-.633,0-1.254,0-1.876a.294.294,0,0,0-.2-.285.309.309,0,0,0-.423.3c0,.6,0,1.2,0,1.806a.386.386,0,0,0,.008.055h.617Z" transform="translate(-104.917)" fill="#d4d4d4"/>
    <path id="Caminho_860" data-name="Caminho 860" d="M-.01,155.729a.247.247,0,0,1,.226-.1q2.119,0,4.238,0a.544.544,0,0,1,.088,0,.147.147,0,0,1,.138.151.15.15,0,0,1-.14.158.866.866,0,0,1-.1,0H.308v.469H4.694c.158,0,.235.051.234.156s-.077.156-.235.156H.308v.469H5.566c.159,0,.234.049.235.155s-.075.158-.232.158H.31v1.869H6.24v-1.8a.464.464,0,0,1,0-.1.155.155,0,0,1,.3,0,.36.36,0,0,1,0,.087v1.914c0,.167-.049.217-.213.217q-3.066,0-6.133,0a.238.238,0,0,1-.217-.1v-3.867Z" transform="translate(0 -151.59)" fill="#d4d4d4"/>
    <path id="Caminho_861" data-name="Caminho 861" d="M194.442,103.228a1.406,1.406,0,1,1-1.4-1.408,1.41,1.41,0,0,1,1.4,1.408Zm-1.4,1.092a1.094,1.094,0,1,0-1.1-1.078,1.1,1.1,0,0,0,1.1,1.078Z" transform="translate(-186.64 -99.184)" fill="#d4d4d4"/>
    <path id="Caminho_862" data-name="Caminho 862" d="M176.052,29.907h2.109a.575.575,0,0,1,.1,0,.155.155,0,0,1,0,.307.549.549,0,0,1-.1,0h-4.247c-.132,0-.2-.056-.2-.156s.072-.156.2-.156h2.138Z" transform="translate(-169.187 -29.146)" fill="#d4d4d4"/>
    <path id="Caminho_863" data-name="Caminho 863" d="M176.07,59.858h2.119a.431.431,0,0,1,.1,0,.155.155,0,0,1,0,.3.415.415,0,0,1-.1,0h-4.238a.491.491,0,0,1-.088,0,.155.155,0,0,1,0-.307.55.55,0,0,1,.1,0Z" transform="translate(-169.207 -58.316)" fill="#d4d4d4"/>
    <path id="Caminho_864" data-name="Caminho 864" d="M270.594,329.351h.9c.123,0,.194.06.193.157s-.072.155-.2.155h-1.8c-.123,0-.194-.06-.193-.157s.072-.154.2-.155Z" transform="translate(-262.478 -320.778)" fill="#d4d4d4"/>
    <path id="Caminho_865" data-name="Caminho 865" d="M270.613,299.411h.888c.123,0,.195.059.195.156s-.072.156-.195.156h-1.8c-.123,0-.194-.059-.194-.156s.071-.156.195-.156h.908Z" transform="translate(-262.488 -291.62)" fill="#d4d4d4"/>
    <path id="Caminho_866" data-name="Caminho 866" d="M270.6,269.476h.9c.124,0,.195.058.2.155s-.071.157-.194.157h-1.8c-.124,0-.195-.058-.2-.155s.071-.157.194-.157h.9Z" transform="translate(-262.488 -262.465)" fill="#d4d4d4"/>
    <path id="Caminho_867" data-name="Caminho 867" d="M270.594,239.512h.888c.129,0,.2.059.2.16s-.074.152-.2.152h-1.806c-.113,0-.183-.065-.181-.16s.07-.149.179-.152h.918Z" transform="translate(-262.476 -233.282)" fill="#d4d4d4"/>
    <path id="Caminho_868" data-name="Caminho 868" d="M24.945,257.817h-.77c-.123,0-.195-.057-.2-.154s.07-.157.193-.157h1.559c.121,0,.193.062.191.159s-.073.152-.188.153h-.79Z" transform="translate(-23.364 -250.807)" fill="#d4d4d4"/>
    <path id="Caminho_869" data-name="Caminho 869" d="M288.328,89.817h.654c.123,0,.195.058.195.156s-.072.156-.195.156h-1.328c-.123,0-.195-.059-.195-.156s.071-.156.195-.156Z" transform="translate(-279.97 -87.494)" fill="#d4d4d4"/>
    <path id="Caminho_870" data-name="Caminho 870" d="M300.142,209.579h.517c.115,0,.185.061.185.156s-.07.156-.185.156q-.517,0-1.035,0c-.115,0-.185-.061-.185-.156s.069-.155.185-.156h.517Z" transform="translate(-291.637 -204.132)" fill="#d4d4d4"/>
    <path id="Caminho_871" data-name="Caminho 871" d="M24.542,275.445h.351c.116,0,.186.059.187.153s-.069.158-.182.158q-.366,0-.732,0a.158.158,0,0,1-.177-.153c0-.095.068-.157.182-.158S24.419,275.445,24.542,275.445Z" transform="translate(-23.373 -268.279)" fill="#d4d4d4"/>
    <path id="Caminho_872" data-name="Caminho 872" d="M317.878,179.942c-.1,0-.2,0-.3,0a.156.156,0,0,1-.166-.155.154.154,0,0,1,.165-.156q.3,0,.605,0a.156.156,0,1,1,0,.311c-.1,0-.2,0-.3,0Z" transform="translate(-309.138 -174.962)" fill="#d4d4d4"/>
    <path id="Caminho_873" data-name="Caminho 873" d="M317.882,149.993c-.1,0-.2,0-.293,0a.156.156,0,1,1,0-.311q.3,0,.6,0a.156.156,0,1,1,0,.311C318.084,149.995,317.983,149.993,317.882,149.993Z" transform="translate(-309.146 -145.795)" fill="#d4d4d4"/>
    <path id="Caminho_874" data-name="Caminho 874" d="M317.879,120.062c-.1,0-.2,0-.293,0a.156.156,0,0,1-.167-.153.154.154,0,0,1,.163-.157q.3,0,.605,0a.155.155,0,0,1,.167.153.158.158,0,0,1-.173.158c-.1,0-.2,0-.3,0Z" transform="translate(-309.147 -116.645)" fill="#d4d4d4"/>
    <path id="Caminho_875" data-name="Caminho 875" d="M222.079,121.211v-.286a1.861,1.861,0,0,1-.212-.082.422.422,0,0,1,0-.769c.048-.027.1-.037.153-.062a.547.547,0,0,0,.075-.067c.047-.038.092-.093.146-.106a.123.123,0,0,1,.146.1c.015.057.05.062.1.073a.433.433,0,0,1,.372.3.166.166,0,0,1-.1.227c-.09.026-.147-.019-.2-.125-.022-.046-.079-.076-.121-.114l-.026.02v.294a1.873,1.873,0,0,1,.2.075.424.424,0,0,1,0,.783c-.043.022-.093.031-.135.054a.534.534,0,0,0-.077.066c-.047.038-.091.095-.145.108-.073.018-.122-.037-.156-.106a.131.131,0,0,0-.077-.063.456.456,0,0,1-.382-.305.168.168,0,0,1,.1-.23c.091-.029.152.02.2.13.021.046.081.074.124.11l.026-.027Zm-.026-.606.021-.025v-.259c-.078.028-.158.06-.141.144.011.053.078.094.12.141Zm.345.611c.081-.02.154-.051.148-.141s-.071-.112-.148-.122v.264Z" transform="translate(-215.844 -116.728)" fill="#d4d4d4"/>
  </g>
</svg>
