<svg xmlns="http://www.w3.org/2000/svg" width="15.999" height="15" viewBox="0 0 15.999 15">
  <g id="heart" transform="translate(0 0)">
    <g id="Grupo_37" data-name="Grupo 37" transform="translate(0 0)">
      <path id="Caminho_581" data-name="Caminho 581" d="M8,2.748l-.717-.737A3.756,3.756,0,0,0,1.4,3.053a4.715,4.715,0,0,0,.314,4.385C2.634,9.253,4.548,11.427,8,13.795c3.452-2.368,5.365-4.542,6.286-6.357A4.713,4.713,0,0,0,14.6,3.053,3.756,3.756,0,0,0,8.717,2.01ZM8,15C-7.333,4.868,3.279-3.04,7.824,1.143c.06.055.119.112.176.171q.085-.088.176-.17C12.72-3.042,23.333,4.867,8,15Z" transform="translate(0 0)" fill="#fff"/>
    </g>
  </g>
</svg>
