<svg xmlns="http://www.w3.org/2000/svg" width="14.835" height="8.406" viewBox="0 0 14.835 8.406">
  <g id="filter" transform="translate(-0.141 -1.055)">
    <g id="Grupo_38" data-name="Grupo 38" transform="translate(0.141 1.055)">
      <path id="Caminho_584" data-name="Caminho 584" d="M14.234,2.538H.882a.742.742,0,0,1,0-1.483H14.234a.742.742,0,1,1,0,1.483Z" transform="translate(-0.141 -1.055)" fill="#fff"/>
      <path id="Caminho_585" data-name="Caminho 585" d="M9.992,3.523H1.585a.742.742,0,1,1,0-1.483H9.992a.742.742,0,1,1,0,1.483Z" transform="translate(1.629 1.422)" fill="#fff"/>
      <path id="Caminho_586" data-name="Caminho 586" d="M4.9,4.507H2.429a.742.742,0,1,1,0-1.483H4.9a.742.742,0,0,1,0,1.483Z" transform="translate(3.752 3.899)" fill="#fff"/>
    </g>
  </g>
</svg>
