<svg xmlns="http://www.w3.org/2000/svg" width="22.628" height="20.436" viewBox="0 0 22.628 20.436">
  <g id="Camada_1-2" transform="translate(0 -0.002)">
    <path id="Caminho_936" data-name="Caminho 936" d="M0,3.7c.039-.175.073-.351.116-.525A4.116,4.116,0,0,1,4.132.01Q10.754,0,17.375.01a4.1,4.1,0,0,1,4.138,4.051c.033,1.494.012,2.988.007,4.482a.818.818,0,0,1-.838.85.83.83,0,0,1-.809-.88c0-.8,0-1.6,0-2.417H1.679a1.525,1.525,0,0,0-.02.172c0,2.226-.01,4.453,0,6.679a2.45,2.45,0,0,0,1.967,2.458,3.265,3.265,0,0,0,.674.061c1.411.005,2.822,0,4.233,0a.8.8,0,0,1,.8.551.779.779,0,0,1-.27.91,1.006,1.006,0,0,1-.519.177c-1.517.013-3.033.024-4.55,0A4.122,4.122,0,0,1,.045,13.59C.036,13.524.016,13.46,0,13.4V3.7Zm19.859.716c.006-.051.012-.08.013-.109a2.5,2.5,0,0,0-2.539-2.645c-.739-.005-1.478,0-2.217,0q-5.441,0-10.883,0A2.441,2.441,0,0,0,1.88,3.127a2.316,2.316,0,0,0-.2,1.294Z" transform="translate(0 0)" fill="#fff"/>
    <path id="Caminho_937" data-name="Caminho 937" d="M205.876,192.395a3.354,3.354,0,0,1,1.761-.659,3.286,3.286,0,0,1,3.445,2.807,3.324,3.324,0,0,1-.98,2.888c-.762.775-1.516,1.557-2.29,2.32a2.7,2.7,0,0,1-3.444.351,3.171,3.171,0,0,1-.5-.419c-.766-.77-1.538-1.536-2.285-2.325a3.18,3.18,0,0,1-.795-3.3,3.135,3.135,0,0,1,2.524-2.267A3.176,3.176,0,0,1,205.876,192.395Zm-3.583,2.622a1.567,1.567,0,0,0,.443,1.152c.793.818,1.591,1.632,2.4,2.433a1.029,1.029,0,0,0,1.454.013c.832-.821,1.662-1.647,2.457-2.5a1.654,1.654,0,0,0-.123-2.309,1.553,1.553,0,0,0-2.232.089.974.974,0,0,1-1.642,0,1.519,1.519,0,0,0-1.759-.391,1.653,1.653,0,0,0-1,1.516Z" transform="translate(-188.486 -180.127)" fill="#fff"/>
    <path id="Caminho_938" data-name="Caminho 938" d="M75.012,147.685c-.362,0-.724,0-1.086,0a.82.82,0,0,1-.841-.776.79.79,0,0,1,.761-.868c.775-.026,1.553-.025,2.328,0a.8.8,0,0,1,.769.845.831.831,0,0,1-.847.8C75.736,147.689,75.373,147.685,75.012,147.685Z" transform="translate(-68.664 -137.188)" fill="#fff"/>
  </g>
</svg>
