<svg xmlns="http://www.w3.org/2000/svg" width="22.452" height="8.916" viewBox="0 0 22.452 8.916">
  <g id="googlepay" transform="translate(0 -28.939)">
    <g id="Grupo_14" data-name="Grupo 14" transform="translate(0 28.939)">
      <path id="Caminho_71" data-name="Caminho 71" d="M3.707,28.939a3.708,3.708,0,0,0,0,7.416,3.551,3.551,0,0,0,2.458-.9,3.628,3.628,0,0,0,1.1-2.728,4.417,4.417,0,0,0-.065-.754H3.708v1.428h2a1.717,1.717,0,0,1-.739,1.127,2.243,2.243,0,1,1-1.263-4.125,2.013,2.013,0,0,1,1.422.556l1.059-1.057a3.562,3.562,0,0,0-2.481-.966Zm6.082.515v6.455h.829V33.294h1.37a1.986,1.986,0,0,0,1.424-.55,1.867,1.867,0,0,0,0-2.732,1.988,1.988,0,0,0-1.424-.559Zm2.27.8a1.081,1.081,0,0,1,.77.341,1.123,1.123,0,0,1-.82,1.911H10.618V30.249h1.442Zm3.858,1.1a2.033,2.033,0,0,0-1.784.865l.731.459a1.269,1.269,0,0,1,1.1-.586,1.174,1.174,0,0,1,.8.3.944.944,0,0,1,.342.734v.189a2.443,2.443,0,0,0-1.216-.27,2.183,2.183,0,0,0-1.384.406,1.309,1.309,0,0,0-.518,1.09,1.381,1.381,0,0,0,.491,1.081,1.782,1.782,0,0,0,1.221.433,1.584,1.584,0,0,0,1.37-.758h.036v.613H17.9V33.186a1.746,1.746,0,0,0-.531-1.347,2.057,2.057,0,0,0-1.451-.491Zm2.117.144,1.82,4.137-1.027,2.226h.856l2.768-6.364h-.9l-1.28,3.172H20.25l-1.315-3.171Zm-2.008,2.215a1.7,1.7,0,0,1,1.081.309,1.215,1.215,0,0,1-.412.91,1.322,1.322,0,0,1-.933.387,1.011,1.011,0,0,1-.645-.217.662.662,0,0,1-.274-.541.726.726,0,0,1,.34-.605,1.4,1.4,0,0,1,.842-.243Z" transform="translate(0 -28.939)" fill="#fff"/>
    </g>
  </g>
</svg>
