<svg xmlns="http://www.w3.org/2000/svg" width="14.443" height="18.652" viewBox="0 0 14.443 18.652">
  <g id="Camada_1-2" transform="translate(-0.003 0.003)">
    <path id="Caminho_964" data-name="Caminho 964" d="M1.808,16.845c-.491,0-.954,0-1.417,0-.284,0-.388-.1-.388-.383q0-6.4.005-12.8a.488.488,0,0,1,.131-.309Q1.739,1.732,3.356.132A.487.487,0,0,1,3.666,0Q7.963-.008,12.26,0c.278,0,.38.1.38.39,0,.463,0,.926,0,1.405.07,0,.13.009.19.009.42,0,.84,0,1.26,0,.245,0,.35.112.355.359,0,.038,0,.075,0,.113V18.18c0,.4-.074.47-.471.47H2.259c-.371,0-.452-.08-.452-.451V16.845Zm-1.2-.614H12.025V.614H3.914V3.5c0,.307-.1.4-.4.4H.612V16.231Zm1.811.614v1.189H13.829V2.415H12.64V16.369c0,.405-.071.475-.484.475H2.423ZM3.3,1.1,1.111,3.295H3.3Z" transform="translate(0 0)" fill="#fff"/>
    <path id="Caminho_965" data-name="Caminho 965" d="M40.436,151.567H36.92a.907.907,0,0,1-.988-.979q0-2.932,0-5.865a.9.9,0,0,1,.969-.977H43.99a.9.9,0,0,1,.968.96q0,2.951,0,5.9a.9.9,0,0,1-.969.959q-1.777,0-3.553,0Zm2.108-7.207H38.355v1.18h4.189Zm-4.2,2.984h4.2v-1.177h-4.2v1.177Zm.005,1.8h4.189v-1.18H38.348Zm4.2.63h-4.2v1.174h4.2Zm-6-3.618v1.18h1.18v-1.18Zm6.615,1.182h1.18v-1.18h-1.18Zm-5.433.628h-1.18v1.181h1.18Zm5.434-.005v1.184h1.181v-1.184Zm-5.434-3.617c-.309,0-.6,0-.9,0a.259.259,0,0,0-.283.227c-.02.321-.006.644-.006.965H37.73Zm5.439,0v1.192h1.187c0-.309.008-.609,0-.908a.276.276,0,0,0-.293-.282c-.293-.008-.587,0-.892,0Zm-6.632,5.424c0,.314-.008.62,0,.925a.258.258,0,0,0,.252.261c.31.014.622,0,.932,0v-1.19H36.537Zm6.632,0v1.195c.3,0,.591,0,.879,0a.277.277,0,0,0,.3-.272c.015-.3,0-.61,0-.922H43.169Z" transform="translate(-34.125 -136.527)" fill="#fff"/>
    <path id="Caminho_966" data-name="Caminho 966" d="M162.658,40.178a1.07,1.07,0,0,1-.7-.38,1,1,0,0,1-.093-.141c-.114-.209-.085-.383.077-.476s.327-.032.443.175a.379.379,0,0,0,.35.211c.119,0,.238,0,.357,0a.487.487,0,0,0,.462-.4.424.424,0,0,0-.36-.437c-.187-.051-.376-.095-.565-.139a1.018,1.018,0,0,1-.051-2.008.478.478,0,0,0,.065-.03c.044-.486.106-.6.318-.6s.261.112.308.594a1.016,1.016,0,0,1,.811.586.3.3,0,0,1-.083.387.288.288,0,0,1-.445-.107.442.442,0,0,0-.474-.259c-.106.008-.213,0-.319.006a.442.442,0,0,0-.4.381.422.422,0,0,0,.33.442c.211.057.426.1.638.154a1.047,1.047,0,0,1,.834.964,1.064,1.064,0,0,1-.775,1.015c-.111.034-.137.083-.129.183a.785.785,0,0,1,0,.206.283.283,0,0,1-.3.256.279.279,0,0,1-.291-.264,2.484,2.484,0,0,1,0-.324Z" transform="translate(-153.625 -34.154)" fill="#fff"/>
    <path id="Caminho_967" data-name="Caminho 967" d="M38.983,90.438c-.784,0-1.567.006-2.35-.007a.447.447,0,0,1-.3-.164.306.306,0,0,1,.015-.288.4.4,0,0,1,.283-.137c1.573-.008,3.146-.007,4.72-.005.218,0,.354.124.35.306s-.139.294-.363.294q-1.175,0-2.35,0Z" transform="translate(-34.473 -85.326)" fill="#fff"/>
    <path id="Caminho_968" data-name="Caminho 968" d="M38.662,114.389q-1.175,0-2.35,0c-.225,0-.366-.135-.352-.323a.3.3,0,0,1,.34-.277c.407,0,.815,0,1.222,0,1.153,0,2.307,0,3.46,0a.446.446,0,0,1,.3.1.391.391,0,0,1,.056.3c-.032.144-.164.19-.309.19-.564,0-1.128,0-1.692,0h-.677Z" transform="translate(-34.151 -108.074)" fill="#fff"/>
  </g>
</svg>
