<svg xmlns="http://www.w3.org/2000/svg" width="19.008" height="18.974" viewBox="0 0 19.008 18.974">
  <g id="Camada_1-2" transform="translate(0.01 0.001)">
    <path id="Caminho_604" data-name="Caminho 604" d="M43.47,199.905H39.4a3.383,3.383,0,0,1-3.388-3.373q0-2.02,0-4.041a.67.67,0,0,1,.47-.679.625.625,0,0,1,.733.23.985.985,0,0,1,.146.491c.011,1.326.006,2.652.007,3.978a2.021,2.021,0,0,0,2.043,2.039q4.06,0,8.12,0a2.022,2.022,0,0,0,2.053-2.051q0-2.01,0-4.02a.671.671,0,0,1,.44-.659.625.625,0,0,1,.729.183.843.843,0,0,1,.178.457c.013,1.417.031,2.835,0,4.252a3.366,3.366,0,0,1-3.351,3.191c-1.371,0-2.742,0-4.113,0Z" transform="translate(-33.984 -180.933)" fill="#d4d4d4"/>
    <path id="Caminho_605" data-name="Caminho 605" d="M9.5,1.588c-.092.114-.136.18-.19.234Q5.27,5.857,1.231,9.891a.739.739,0,0,1-.7.263A.678.678,0,0,1,.158,9.043C.194,9,.236,8.962.276,8.922L8.928.289a.7.7,0,0,1,1.134,0q4.326,4.316,8.653,8.631a.736.736,0,0,1,.264.716A.68.68,0,0,1,17.874,10c-.059-.05-.113-.107-.167-.162q-4.01-4-8.018-8.009A2.827,2.827,0,0,1,9.5,1.588Z" transform="translate(0 0)" fill="#d4d4d4"/>
  </g>
</svg>
