<svg xmlns="http://www.w3.org/2000/svg" width="14.032" height="14.051" viewBox="0 0 14.032 14.051">
  <g id="Camada_1-2" transform="translate(0.004 0)">
    <path id="Caminho_652" data-name="Caminho 652" d="M2.556,11.436A3.166,3.166,0,0,1,1.2,10.8a3.107,3.107,0,0,1-1.2-2.47q-.02-2.574,0-5.148A3.178,3.178,0,0,1,2.756.034,3.512,3.512,0,0,1,3.261,0q3.756,0,7.51,0a3.183,3.183,0,0,1,3.184,2.56,3.409,3.409,0,0,1,.067.683q.008,2.506,0,5.013a3.18,3.18,0,0,1-2.6,3.181,3.646,3.646,0,0,1-.683.055c-1.125.005-2.25,0-3.374.006a.553.553,0,0,0-.287.089Q5.344,12.738,3.615,13.9a.719.719,0,0,1-.473.15.625.625,0,0,1-.583-.641c-.005-.6,0-1.2,0-1.8v-.177Zm1.269.782.18-.116c.848-.567,1.7-1.131,2.543-1.7a.99.99,0,0,1,.585-.179q1.837.008,3.673,0a1.907,1.907,0,0,0,1.938-1.869q.014-2.6,0-5.207a1.9,1.9,0,0,0-1.865-1.863q-3.867-.011-7.734,0A1.9,1.9,0,0,0,1.281,3.162c-.007,1.726,0,3.451,0,5.177a1.813,1.813,0,0,0,.456,1.2,1.916,1.916,0,0,0,1.455.681.619.619,0,0,1,.633.651c0,.389,0,.778,0,1.167v.176Z" transform="translate(0 0)" fill="#fff"/>
    <path id="Caminho_653" data-name="Caminho 653" d="M129.148,51.913a2.061,2.061,0,0,1,.869-1.648.6.6,0,0,0,.27-.511.57.57,0,0,0-1.137-.036c-.03.35-.185.555-.46.611a.571.571,0,0,1-.69-.546,1.717,1.717,0,1,1,3.432.061,1.655,1.655,0,0,1-.671,1.291,1.071,1.071,0,0,0-.478.936.553.553,0,0,1-.569.569.57.57,0,0,1-.565-.564c0-.054,0-.108,0-.161Z" transform="translate(-122.897 -45.417)" fill="#fff"/>
    <path id="Caminho_654" data-name="Caminho 654" d="M160.04,192.7a.569.569,0,1,1,.566.577A.571.571,0,0,1,160.04,192.7Z" transform="translate(-153.789 -184.335)" fill="#fff"/>
  </g>
</svg>
