<svg xmlns="http://www.w3.org/2000/svg" width="27.457" height="16.816" viewBox="0 0 27.457 16.816">
  <g id="Grupo_9" data-name="Grupo 9" transform="translate(-249 -1287.184)">
    <g id="Camada_1-2" transform="translate(248.986 1287.199)">
      <path id="Caminho_61" data-name="Caminho 61" d="M15.743,10.071l7.931-7.934c-.1-.007-.191-.02-.281-.02-.9,0-1.8,0-2.693,0-.5,0-.679-.181-.681-.681,0-.3-.008-.6,0-.9a.515.515,0,0,1,.545-.546c1.962-.006,3.924-.01,5.886,0a1.027,1.027,0,0,1,1.012,1.032c.011,1.94.007,3.88,0,5.821a.537.537,0,0,1-.6.592c-.3.006-.6.005-.9,0-.431-.007-.623-.2-.625-.638,0-1,0-1.995,0-3.072-.124.117-.208.192-.287.271q-3.845,3.845-7.689,7.689a2.116,2.116,0,0,1-2.721.4,3.047,3.047,0,0,1-.507-.426q-1.71-1.7-3.409-3.41a2.489,2.489,0,0,1-.219-.293l-.155-.049a1.6,1.6,0,0,1-.2.345q-4.085,4.1-8.179,8.188c-.479.479-.677.479-1.152,0-.187-.188-.379-.374-.564-.564a.556.556,0,0,1,0-.916q1.172-1.181,2.35-2.353,3.08-3.08,6.16-6.161a2.148,2.148,0,0,1,3.351.005Q13.8,8.135,15.481,9.818c.084.084.173.166.264.252Z" transform="translate(0)" fill="#d4d4d4"/>
    </g>
  </g>
</svg>
