<svg xmlns="http://www.w3.org/2000/svg" width="19.985" height="19.821" viewBox="0 0 19.985 19.821">
  <g id="Camada_1-2" transform="translate(0 0.008)">
    <path id="Caminho_918" data-name="Caminho 918" d="M13.544,5.206h5.61c.592,0,.831.24.831.834v7.743c0,.576-.244.817-.827.818H13.544v.25c0,.95,0,1.9,0,2.852a2,2,0,0,1-2.114,2.111H2.106A2,2,0,0,1,0,17.711V2.1A2,2,0,0,1,2.1-.007h9.345a1.991,1.991,0,0,1,2.1,2.087c0,.958,0,1.915,0,2.873v.254ZM12.212,9.925V2.12c0-.553-.245-.794-.8-.794h-9.3a.685.685,0,0,0-.774.781V17.7c0,.535.252.784.794.784h9.262c.6,0,.824-.23.824-.834V9.925Zm6.434-.912c-.056-.005-.1-.011-.137-.011-1.6,0-3.192,0-4.788,0-.181,0-.179.091-.179.22q0,1.915,0,3.831c0,.067.007.135.011.206h5.09Zm0-2.459H13.556v1.1h5.087v-1.1Z" transform="translate(0 0)" fill="#fff"/>
    <path id="Caminho_919" data-name="Caminho 919" d="M45.061,48.626H41.337c-.542,0-.794-.247-.794-.784q0-2.174,0-4.349a.69.69,0,0,1,.795-.784h7.448a.685.685,0,0,1,.789.786v4.349c0,.539-.245.781-.79.782ZM41.88,47.28h6.347V44.06H41.88Z" transform="translate(-38.288 -40.342)" fill="#fff"/>
    <path id="Caminho_920" data-name="Caminho 920" d="M51.5,181.717c-.138,0-.278.008-.415,0a.671.671,0,0,1-.625-.678.663.663,0,0,1,.653-.649c.263-.007.526-.006.789,0a.664.664,0,0,1,.014,1.328c-.138.007-.277,0-.415,0h0Z" transform="translate(-47.649 -170.359)" fill="#fff"/>
    <path id="Caminho_921" data-name="Caminho 921" d="M51.507,237.018c-.132,0-.264.007-.394,0a.674.674,0,0,1-.646-.68.659.659,0,0,1,.673-.647q.374-.008.747,0a.668.668,0,0,1,.679.644.678.678,0,0,1-.665.685c-.131.007-.263,0-.394,0h0Z" transform="translate(-47.659 -222.584)" fill="#fff"/>
    <path id="Caminho_922" data-name="Caminho 922" d="M104.03,181.728c-.138,0-.278.006-.415,0a.666.666,0,0,1-.639-.684.657.657,0,0,1,.655-.645c.263-.006.526-.007.789,0a.664.664,0,0,1,.026,1.327c-.138.009-.277,0-.415,0h0Z" transform="translate(-97.248 -170.368)" fill="#fff"/>
    <path id="Caminho_923" data-name="Caminho 923" d="M156.538,180.413c.132,0,.263,0,.395,0a.668.668,0,0,1,.645.636.659.659,0,0,1-.611.688,7.476,7.476,0,0,1-.872,0,.664.664,0,0,1,.028-1.325c.138-.006.277,0,.415,0Z" transform="translate(-146.837 -170.384)" fill="#fff"/>
    <path id="Caminho_924" data-name="Caminho 924" d="M104.02,237.012c-.131,0-.264.007-.394,0a.668.668,0,0,1-.647-.677.653.653,0,0,1,.667-.651c.249-.006.5,0,.747,0a.664.664,0,1,1,.022,1.329c-.131.007-.263,0-.394,0Z" transform="translate(-97.251 -222.579)" fill="#fff"/>
    <path id="Caminho_925" data-name="Caminho 925" d="M156.541,235.7c.125,0,.249,0,.374,0a.667.667,0,0,1,.67.63.654.654,0,0,1-.606.691,5.756,5.756,0,0,1-.892,0,.662.662,0,0,1,.06-1.32c.131,0,.263,0,.394,0Z" transform="translate(-146.844 -222.6)" fill="#fff"/>
    <path id="Caminho_926" data-name="Caminho 926" d="M156.538,290.935c.138,0,.278-.008.415,0a.661.661,0,0,1,.624.653.645.645,0,0,1-.592.659,6.173,6.173,0,0,1-.912,0,.637.637,0,0,1-.589-.68.644.644,0,0,1,.618-.633C156.246,290.926,156.392,290.935,156.538,290.935Z" transform="translate(-146.836 -274.758)" fill="#fff"/>
    <path id="Caminho_927" data-name="Caminho 927" d="M51.505,292.217c-.166-.007-.333,0-.5-.024a.658.658,0,0,1-.558-.65.643.643,0,0,1,.577-.651,7.258,7.258,0,0,1,.933,0,.656.656,0,0,1,.021,1.3,4,4,0,0,1-.477,0Z" transform="translate(-47.644 -274.705)" fill="#fff"/>
    <path id="Caminho_928" data-name="Caminho 928" d="M104.01,290.924c.138,0,.277-.007.415,0a.666.666,0,0,1,.64.64.653.653,0,0,1-.6.675,6.448,6.448,0,0,1-.892,0,.645.645,0,0,1-.606-.667.655.655,0,0,1,.647-.65c.131-.007.263,0,.394,0Z" transform="translate(-97.241 -274.749)" fill="#fff"/>
    <path id="Caminho_929" data-name="Caminho 929" d="M288.1,206.031c-.152,0-.305.007-.458,0a.654.654,0,0,1-.611-.6.621.621,0,0,1,.5-.69,5.432,5.432,0,0,1,1.117,0,.627.627,0,0,1,.512.683.657.657,0,0,1-.625.611c-.145.007-.291,0-.437,0h0Z" transform="translate(-271.061 -193.33)" fill="#fff"/>
  </g>
</svg>
