<svg xmlns="http://www.w3.org/2000/svg" width="16.663" height="19.992" viewBox="0 0 16.663 19.992">
  <g id="Camada_1-2" transform="translate(-0.005 0)">
    <path id="Caminho_959" data-name="Caminho 959" d="M8.321,19.99q-2.03,0-4.06,0A4.162,4.162,0,0,1,.006,15.722Q0,10,.006,4.274A4.161,4.161,0,0,1,4.284,0c1.561,0,3.123,0,4.684,0a1.212,1.212,0,0,1,.927.378q3.183,3.2,6.385,6.384a1.218,1.218,0,0,1,.388.923c-.006,2.7,0,5.395,0,8.092a4.161,4.161,0,0,1-4.205,4.213c-1.379,0-2.759,0-4.138,0ZM8.335,1.668H4.3A2.5,2.5,0,0,0,1.671,4.3q0,5.7,0,11.4A2.5,2.5,0,0,0,4.3,18.324q4.034,0,8.066,0A2.5,2.5,0,0,0,15,15.694q0-3.538,0-7.076V8.33c-.722,0-1.406.009-2.09,0a6.8,6.8,0,0,1-1.215-.085,4.14,4.14,0,0,1-3.358-4.12c0-.806,0-1.611,0-2.453Zm5.309,4.949L10.007,2.98c0,.416-.022.894,0,1.368A2.426,2.426,0,0,0,12.038,6.6a11.254,11.254,0,0,0,1.607.013Z" transform="translate(0 0)" fill="#fff"/>
    <path id="Caminho_960" data-name="Caminho 960" d="M64.13,155.768h3.2a.837.837,0,1,1,.012,1.664q-3.24,0-6.48,0a.836.836,0,1,1-.011-1.664c1.093,0,2.186,0,3.279,0Z" transform="translate(-55.768 -144.938)" fill="#fff"/>
    <path id="Caminho_961" data-name="Caminho 961" d="M64.12,203.7h3.2a.838.838,0,1,1,.012,1.665q-3.24,0-6.48,0a.837.837,0,1,1,.014-1.664q1.627,0,3.253,0Z" transform="translate(-55.759 -189.535)" fill="#fff"/>
    <path id="Caminho_962" data-name="Caminho 962" d="M61.585,107.843c.277,0,.555,0,.833,0a.831.831,0,1,1,.006,1.662q-.832.013-1.665,0a.83.83,0,0,1-.006-1.661c.277-.008.555,0,.833,0Z" transform="translate(-55.759 -100.344)" fill="#fff"/>
  </g>
</svg>
