<svg xmlns="http://www.w3.org/2000/svg" width="14.032" height="14.051" viewBox="0 0 14.032 14.051">
  <g id="Camada_1-2" transform="translate(0.004 0)">
    <path id="Caminho_655" data-name="Caminho 655" d="M2.556,11.436A3.166,3.166,0,0,1,1.2,10.8a3.107,3.107,0,0,1-1.2-2.47q-.02-2.574,0-5.148A3.178,3.178,0,0,1,2.756.034,3.512,3.512,0,0,1,3.261,0q3.756,0,7.51,0a3.183,3.183,0,0,1,3.184,2.56,3.409,3.409,0,0,1,.067.683q.008,2.506,0,5.013a3.18,3.18,0,0,1-2.6,3.181,3.646,3.646,0,0,1-.683.055c-1.125.005-2.25,0-3.374.006a.553.553,0,0,0-.287.089Q5.344,12.738,3.615,13.9a.719.719,0,0,1-.473.15.625.625,0,0,1-.583-.641c-.005-.6,0-1.2,0-1.8v-.177Zm1.269.782.18-.116c.848-.567,1.7-1.131,2.543-1.7a.99.99,0,0,1,.585-.179q1.837.008,3.673,0a1.907,1.907,0,0,0,1.938-1.869q.014-2.6,0-5.207a1.9,1.9,0,0,0-1.865-1.863q-3.867-.011-7.734,0A1.9,1.9,0,0,0,1.281,3.162c-.007,1.726,0,3.451,0,5.177a1.813,1.813,0,0,0,.456,1.2,1.916,1.916,0,0,0,1.455.681.619.619,0,0,1,.633.651c0,.389,0,.778,0,1.167v.176Z" transform="translate(0 0)" fill="#fff"/>
    <rect id="Retângulo_93" data-name="Retângulo 93" width="7.456" height="1.1" transform="translate(3.284 3.207)" fill="#fff"/>
    <rect id="Retângulo_94" data-name="Retângulo 94" width="7.456" height="1.1" transform="translate(3.284 4.918)" fill="#fff"/>
    <rect id="Retângulo_95" data-name="Retângulo 95" width="7.456" height="1.1" transform="translate(3.284 6.873)" fill="#fff"/>
  </g>
</svg>
