<svg xmlns="http://www.w3.org/2000/svg" width="17.564" height="14.051" viewBox="0 0 17.564 14.051">
  <path id="Icon_awesome-eye-slash" data-name="Icon awesome-eye-slash" d="M8.782,10.977A3.937,3.937,0,0,1,4.86,7.324L1.981,5.1A9.147,9.147,0,0,0,.974,6.625a.888.888,0,0,0,0,.8,8.8,8.8,0,0,0,7.808,4.868,8.524,8.524,0,0,0,2.138-.287L9.5,10.905a3.955,3.955,0,0,1-.714.072Zm8.612,1.594L14.36,10.227a9.091,9.091,0,0,0,2.23-2.8.888.888,0,0,0,0-.8A8.8,8.8,0,0,0,8.782,1.756,8.457,8.457,0,0,0,4.739,2.791L1.248.092A.439.439,0,0,0,.631.169L.093.863a.439.439,0,0,0,.077.616L16.316,13.958a.439.439,0,0,0,.616-.077l.539-.693A.439.439,0,0,0,17.394,12.572Zm-5.042-3.9-1.079-.834A2.6,2.6,0,0,0,8.087,4.495a1.308,1.308,0,0,1,.255.774,1.28,1.28,0,0,1-.042.274L6.28,3.982a3.905,3.905,0,0,1,2.5-.909,3.95,3.95,0,0,1,3.952,3.952,3.858,3.858,0,0,1-.381,1.65Z" transform="translate(0 0)" fill="#fff"/>
</svg>
