<svg xmlns="http://www.w3.org/2000/svg" width="20.449" height="20.436" viewBox="0 0 20.449 20.436">
  <g id="Camada_1-2" transform="translate(0 0.006)">
    <path id="Caminho_952" data-name="Caminho 952" d="M109.965,179.59a2,2,0,0,1-.284.443.792.792,0,0,1-1.309-.6c-.01-.445,0-.89,0-1.336v-.23c-.082.076-.134.123-.183.172-.761.761-1.525,1.52-2.283,2.285a.983.983,0,0,1-.747.308c-1.243-.006-2.486,0-3.729-.006a.421.421,0,0,0-.329.138q-2.5,2.507-5.007,5a4.216,4.216,0,0,1-.574.41H95.2a2.167,2.167,0,0,1-.39-.229.776.776,0,0,1-.086-1.049,1.909,1.909,0,0,1,.175-.19q2.666-2.666,5.33-5.335a1.086,1.086,0,0,1,.832-.345c1.23.011,2.461.006,3.691,0a.406.406,0,0,0,.264-.087c.73-.718,1.452-1.444,2.176-2.169.018-.018.033-.04.067-.081-.074-.005-.128-.013-.184-.013-.479,0-.958,0-1.436,0a.8.8,0,1,1,0-1.595c1.111,0,2.221.012,3.331-.006a.9.9,0,0,1,1,.644v3.871Z" transform="translate(-89.517 -165.746)" fill="#fff"/>
    <path id="Caminho_953" data-name="Caminho 953" d="M354.113,305.95a.9.9,0,0,1-.644-1.009c.019-.809,0-1.619.005-2.429a.8.8,0,0,1,1.577-.308.319.319,0,0,0,.02.035v3.073a.927.927,0,0,1-.639.639h-.319Z" transform="translate(-334.623 -285.52)" fill="#fff"/>
    <path id="Caminho_954" data-name="Caminho 954" d="M234.344,306.029a.9.9,0,0,1-.644-1.01c.019-.823,0-1.647.005-2.471a.8.8,0,1,1,1.6,0c0,.824-.013,1.648.005,2.471a.9.9,0,0,1-.644,1.01Z" transform="translate(-221.239 -285.599)" fill="#fff"/>
    <path id="Caminho_955" data-name="Caminho 955" d="M294.234,306.019a.9.9,0,0,1-.644-1.01c.019-.823,0-1.647.005-2.471a.8.8,0,1,1,1.6,0c0,.824-.013,1.648.005,2.471a.9.9,0,0,1-.644,1.011Z" transform="translate(-277.936 -285.59)" fill="#fff"/>
    <path id="Caminho_956" data-name="Caminho 956" d="M174.408,349.224c-.7-.25-.69-.729-.612-1.284a.767.767,0,0,1,.862-.628.8.8,0,0,1,.708.784c0,.04,0,.08,0,.119a.876.876,0,0,1-.639,1.009h-.319Z" transform="translate(-164.496 -328.794)" fill="#fff"/>
    <path id="Caminho_957" data-name="Caminho 957" d="M0,8.388A8.393,8.393,0,0,1,16.645,6.882a.8.8,0,1,1-1.576.268,6.444,6.444,0,0,0-1.1-2.647,6.577,6.577,0,0,0-5.87-2.9A6.633,6.633,0,0,0,1.683,7.693,6.627,6.627,0,0,0,5.76,14.622a1.021,1.021,0,0,1,.666.553.761.761,0,0,1-.185.845.776.776,0,0,1-.885.168,8.093,8.093,0,0,1-3.3-2.339A8.34,8.34,0,0,1,.067,9.362C.027,9.04.021,8.713,0,8.388Z" transform="translate(0 0)" fill="#fff"/>
    <path id="Caminho_958" data-name="Caminho 958" d="M118.205,66.805a2.292,2.292,0,0,1-1.42,2.114c-.131.06-.184.123-.171.263a2.182,2.182,0,0,1,0,.339.8.8,0,0,1-.8.761.761.761,0,0,1-.785-.761.674.674,0,0,0-.455-.761,2.012,2.012,0,0,1-.934-1,.8.8,0,1,1,1.417-.732.843.843,0,0,0,.911.494.788.788,0,0,0,.641-.839.777.777,0,0,0-.77-.743,2.488,2.488,0,0,1-1.548-.547,2.4,2.4,0,0,1,.54-4.02c.141-.064.21-.13.19-.29a2,2,0,0,1,0-.379.8.8,0,0,1,1.588-.007c.013.186-.055.407.027.548s.306.182.461.28a2.283,2.283,0,0,1,.86,1,.8.8,0,1,1-1.435.7.761.761,0,0,0-1.031-.4.788.788,0,0,0-.43.98.8.8,0,0,0,.8.541,2.323,2.323,0,0,1,1.922,1.038,2.563,2.563,0,0,1,.419,1.429Z" transform="translate(-107.383 -56.758)" fill="#fff"/>
  </g>
</svg>
