<svg xmlns="http://www.w3.org/2000/svg" width="12.173" height="11.159" viewBox="0 0 12.173 11.159">
  <g id="calendar" transform="translate(-1.5 -3.75)">
    <path id="Caminho_587" data-name="Caminho 587" d="M13.065,5.17H10.833V3.75h-.812V5.17H5.152V3.75H4.34V5.17H2.109a.609.609,0,0,0-.609.609V14.3a.609.609,0,0,0,.609.609H13.065a.609.609,0,0,0,.609-.609V5.779a.609.609,0,0,0-.609-.609Zm-.2,8.927H2.312V5.982H4.34V7h.812V5.982h4.869V7h.812V5.982h2.029Z" fill="#fff"/>
    <path id="Caminho_588" data-name="Caminho 588" d="M10.5,21h.812v.812H10.5Z" transform="translate(-6.565 -12.584)" fill="#fff"/>
    <path id="Caminho_589" data-name="Caminho 589" d="M18.75,21h.812v.812H18.75Z" transform="translate(-12.584 -12.584)" fill="#fff"/>
    <path id="Caminho_590" data-name="Caminho 590" d="M26.25,21h.812v.812H26.25Z" transform="translate(-18.055 -12.584)" fill="#fff"/>
    <path id="Caminho_591" data-name="Caminho 591" d="M34.5,21h.812v.812H34.5Z" transform="translate(-24.073 -12.584)" fill="#fff"/>
    <path id="Caminho_592" data-name="Caminho 592" d="M10.5,27.75h.812v.812H10.5Z" transform="translate(-6.565 -17.507)" fill="#fff"/>
    <path id="Caminho_593" data-name="Caminho 593" d="M18.75,27.75h.812v.812H18.75Z" transform="translate(-12.584 -17.507)" fill="#fff"/>
    <path id="Caminho_594" data-name="Caminho 594" d="M26.25,27.75h.812v.812H26.25Z" transform="translate(-18.055 -17.507)" fill="#fff"/>
    <path id="Caminho_595" data-name="Caminho 595" d="M34.5,27.75h.812v.812H34.5Z" transform="translate(-24.073 -17.507)" fill="#fff"/>
    <path id="Caminho_596" data-name="Caminho 596" d="M10.5,34.5h.812v.812H10.5Z" transform="translate(-6.565 -22.431)" fill="#fff"/>
    <path id="Caminho_597" data-name="Caminho 597" d="M18.75,34.5h.812v.812H18.75Z" transform="translate(-12.584 -22.431)" fill="#fff"/>
    <path id="Caminho_598" data-name="Caminho 598" d="M26.25,34.5h.812v.812H26.25Z" transform="translate(-18.055 -22.431)" fill="#fff"/>
    <path id="Caminho_599" data-name="Caminho 599" d="M34.5,34.5h.812v.812H34.5Z" transform="translate(-24.073 -22.431)" fill="#fff"/>
  </g>
</svg>
