<svg xmlns="http://www.w3.org/2000/svg" width="20.436" height="20.436" viewBox="0 0 20.436 20.436">
  <g id="qr-code" transform="translate(-1.5 -1.5)">
    <path id="Caminho_35" data-name="Caminho 35" d="M2.862,2.862h5.45V1.5H1.5V8.312H2.862Z" fill="#fff"/>
    <path id="Caminho_36" data-name="Caminho 36" d="M11.587,11.587V7.5H7.5v4.087ZM8.862,8.862h1.362v1.362H8.862Z" transform="translate(-3.275 -3.275)" fill="#fff"/>
    <path id="Caminho_37" data-name="Caminho 37" d="M30.75,2.862h5.79v5.45H37.9V1.5H30.75Z" transform="translate(-15.967)" fill="#fff"/>
    <path id="Caminho_38" data-name="Caminho 38" d="M35.587,11.587V7.5H31.5v4.087ZM32.862,8.862h1.362v1.362H32.862Z" transform="translate(-16.376 -3.275)" fill="#fff"/>
    <path id="Caminho_39" data-name="Caminho 39" d="M8.312,36.95H2.862V31.5H1.5v6.812H8.312Z" transform="translate(0 -16.376)" fill="#fff"/>
    <path id="Caminho_40" data-name="Caminho 40" d="M11.587,31.5H7.5v4.087h4.087Zm-1.362,2.725H8.862V32.862h1.362Z" transform="translate(-3.275 -16.376)" fill="#fff"/>
    <path id="Caminho_41" data-name="Caminho 41" d="M36.54,36.95H30.75v1.362H37.9V31.5H36.54Z" transform="translate(-15.967 -16.376)" fill="#fff"/>
    <path id="Caminho_42" data-name="Caminho 42" d="M25.5,26.862h5.45v2.725h1.362V25.5H25.5Z" transform="translate(-13.101 -13.101)" fill="#fff"/>
    <path id="Caminho_43" data-name="Caminho 43" d="M22.486,32.312V30.95H14.312V25.5H7.5v1.362h5.45v5.45Z" transform="translate(-3.275 -13.101)" fill="#fff"/>
    <path id="Caminho_44" data-name="Caminho 44" d="M19.5,7.5h1.362v4.087H19.5Z" transform="translate(-9.826 -3.275)" fill="#fff"/>
    <path id="Caminho_45" data-name="Caminho 45" d="M7.5,14.312h9.537V7.5H15.674v5.45H7.5Z" transform="translate(-3.275 -3.275)" fill="#fff"/>
    <path id="Caminho_46" data-name="Caminho 46" d="M31.5,19.5h4.087v1.362H31.5Z" transform="translate(-16.376 -9.826)" fill="#fff"/>
    <path id="Caminho_47" data-name="Caminho 47" d="M31.5,31.5h1.362v1.362H31.5Z" transform="translate(-16.376 -16.376)" fill="#fff"/>
    <path id="Caminho_48" data-name="Caminho 48" d="M25.5,31.5h1.362v1.362H25.5Z" transform="translate(-13.101 -16.376)" fill="#fff"/>
  </g>
</svg>
