<svg xmlns="http://www.w3.org/2000/svg" width="17.544" height="20.739" viewBox="0 0 17.544 20.739">
  <g id="Camada_1-2" transform="translate(0 0.002)">
    <path id="Caminho_672" data-name="Caminho 672" d="M1.159,20.737a3.787,3.787,0,0,1-.41-.161A1.328,1.328,0,0,1,.016,19.5,2.471,2.471,0,0,1,0,19.221q0-8.85,0-17.7A1.481,1.481,0,0,1,.4.413,1.324,1.324,0,0,1,1.362,0Q6.071,0,10.78,0a1.364,1.364,0,0,1,1.361,1.352c0,.162.006.324,0,.486a.341.341,0,0,1-.681.017c-.015-.161,0-.324-.008-.486A.669.669,0,0,0,10.825.7c-.458-.019-.917,0-1.388,0-.058.226-.114.447-.173.666a1.366,1.366,0,0,1-1.339,1.06c-1.235.01-2.471.017-3.706-.009a2.011,2.011,0,0,1-.776-.246.333.333,0,0,1-.134-.5c.109-.162.3-.176.5-.084a1.417,1.417,0,0,0,.534.143c1.148.012,2.3.007,3.443.006a.727.727,0,0,0,.832-.65c.031-.123.061-.247.1-.391H1.53C.946.688.7.939.7,1.527V19.206c0,.588.252.84.835.84h9.094c.573,0,.826-.254.827-.827,0-.445-.012-.892.009-1.336a.474.474,0,0,1,.186-.325.358.358,0,0,1,.331.014.459.459,0,0,1,.158.32c.017.485.011.972.006,1.458a1.373,1.373,0,0,1-1.03,1.342,1.033,1.033,0,0,0-.108.044H1.159Z" transform="translate(0 0)" fill="#fff"/>
    <path id="Caminho_673" data-name="Caminho 673" d="M111.41,61.461c0-.071-.006-.164,0-.256a.351.351,0,0,1,.361-.335.343.343,0,0,1,.324.349c.005.128,0,.256,0,.4.057.022.111.044.167.062a4.663,4.663,0,0,1,.012,8.911.216.216,0,0,0-.181.254c.01.355,0,.711,0,1.134.467-.173.908-.3,1.318-.493a5.909,5.909,0,0,0-1.963-11.232,5.821,5.821,0,0,0-5.08,2.066c-.027.03-.051.063-.08.092a.351.351,0,0,1-.5.048.336.336,0,0,1-.021-.489,7.594,7.594,0,0,1,.742-.773,6.362,6.362,0,0,1,6.578-1.273,6.3,6.3,0,0,1,4.308,5.108,6.561,6.561,0,0,1-5.314,7.6,13.464,13.464,0,0,1-2,.116c-.668.017-1.336,0-2.005,0h-.252c.126.116.209.19.288.268a.353.353,0,0,1,.05.5.346.346,0,0,1-.506.011q-.478-.422-.944-.858a.336.336,0,0,1,0-.545q.466-.436.944-.858a.333.333,0,0,1,.5.012.345.345,0,0,1-.034.49c-.083.085-.173.164-.281.266h3.556V70.567c0-.414.041-.467.44-.569a3.974,3.974,0,1,0-1.952-.011c.261.071.372.211.336.423s-.235.321-.506.249a4.369,4.369,0,0,1-1.834-.95,4.669,4.669,0,0,1,2.309-8.18,9.582,9.582,0,0,1,1.209-.068Z" transform="translate(-99.957 -56.29)" fill="#fff"/>
    <path id="Caminho_674" data-name="Caminho 674" d="M178.3,139.911a8.61,8.61,0,0,1-.739-.506.339.339,0,0,1-.033-.518c.154-.152.344-.134.532.05a.822.822,0,0,0,1.039.1.571.571,0,0,0,.2-.344c.025-.165-.124-.243-.266-.281-.279-.075-.564-.131-.842-.21a1.066,1.066,0,0,1-.867-.755,1.082,1.082,0,0,1,.762-1.3c.168-.06.229-.129.219-.309a.335.335,0,0,1,.341-.389.33.33,0,0,1,.339.387c-.011.182.058.244.219.312a1.918,1.918,0,0,1,.531.353.333.333,0,0,1,.021.517.35.35,0,0,1-.518-.045.835.835,0,0,0-1.021-.122.591.591,0,0,0-.225.349c-.03.171.126.255.276.3.247.067.5.119.745.185a2.4,2.4,0,0,1,.383.128.986.986,0,0,1,.262,1.666,2.1,2.1,0,0,1-.538.308c-.095.043-.144.081-.131.187a.77.77,0,0,1,0,.162.342.342,0,0,1-.68.023,1.559,1.559,0,0,1,0-.245Z" transform="translate(-167.696 -128.123)" fill="#fff"/>
    <path id="Caminho_675" data-name="Caminho 675" d="M90.015,344.132c-.276,0-.553,0-.829,0-.255,0-.408-.139-.406-.351s.148-.337.412-.338q.84,0,1.679,0c.255,0,.413.138.411.345s-.162.341-.417.345c-.283,0-.566,0-.85,0Z" transform="translate(-83.977 -324.861)" fill="#fff"/>
  </g>
</svg>
