<svg xmlns="http://www.w3.org/2000/svg" width="20.593" height="20.588" viewBox="0 0 20.593 20.588">
  <g id="Camada_1-2" transform="translate(-0.009 -0.002)">
    <path id="Caminho_679" data-name="Caminho 679" d="M4.207,212.634c.882-.295,1.756-.573,2.621-.88a3.809,3.809,0,0,1,2.613.043c1.123.39,2.259.743,3.387,1.118a1.537,1.537,0,0,1,1.212,1.611.455.455,0,0,0,.018.076l2.206-.327c.823-.122,1.645-.252,2.469-.366a1.577,1.577,0,0,1,1.711.867,1.532,1.532,0,0,1-.335,1.809,1.941,1.941,0,0,1-.654.381q-3.856,1.3-7.721,2.581a3.278,3.278,0,0,1-2.592-.191c-.666-.333-1.34-.649-1.994-1a1.791,1.791,0,0,0-1.265-.187c-.507.1-1.021.178-1.533.258a.268.268,0,0,0-.234.186,1.35,1.35,0,0,1-1.3.875c-.46.008-.921.008-1.381,0A1.378,1.378,0,0,1,.02,218.09q-.023-2.577,0-5.153a1.39,1.39,0,0,1,1.455-1.4c.394,0,.789,0,1.183,0a1.449,1.449,0,0,1,1.55,1.1Zm.029,4.863c.494-.082.965-.144,1.428-.242a2.653,2.653,0,0,1,1.906.26c.62.34,1.267.631,1.895.958a2.546,2.546,0,0,0,2.1.146c1.277-.436,2.558-.858,3.839-1.284q1.868-.622,3.737-1.243a.653.653,0,0,0,.517-.557c.054-.473-.32-.774-.841-.7-1.646.247-3.294.485-4.939.738a2.338,2.338,0,0,0-.632.208,1.64,1.64,0,0,1-1.021.155L9.4,215.429c-.467-.085-.934-.167-1.4-.258a.472.472,0,0,1-.4-.516.466.466,0,0,1,.531-.405,1.578,1.578,0,0,1,.173.027q2.036.368,4.073.736a.6.6,0,0,0,.738-.64.621.621,0,0,0-.477-.54q-1.915-.623-3.828-1.251a2.408,2.408,0,0,0-1.55.019c-.948.317-1.9.636-2.846.946a.228.228,0,0,0-.189.261c.007,1.162,0,2.325,0,3.488,0,.057.006.115.011.2Zm-3.279-2q0,1.239,0,2.478c0,.411.163.574.568.575s.8,0,1.206,0,.561-.175.561-.564q0-2.478,0-4.956a.492.492,0,0,0-.56-.567q-.6-.005-1.206,0c-.405,0-.568.168-.569.578,0,.818,0,1.637,0,2.456Z" transform="translate(0 -199.138)" fill="#fff"/>
    <path id="Caminho_680" data-name="Caminho 680" d="M95.906,28.855a5.148,5.148,0,1,1,4.884,5.3A5.13,5.13,0,0,1,95.906,28.855Zm.94.127a4.208,4.208,0,1,0,4.188-4.181A4.21,4.21,0,0,0,96.846,28.982Z" transform="translate(-90.274 -22.464)" fill="#fff"/>
    <path id="Caminho_681" data-name="Caminho 681" d="M282.029,124.473c.171-.178.337-.36.513-.533a.47.47,0,0,1,.7-.033.463.463,0,0,1-.032.684q-.668.679-1.348,1.348a.461.461,0,0,1-.715-.011q-.678-.67-1.347-1.349a.469.469,0,0,1-.025-.684.459.459,0,0,1,.683.024c.182.178.352.368.526.552l.063-.026v-.224q0-2.071,0-4.143c0-.408.335-.65.664-.487a.5.5,0,0,1,.268.51q0,2.049,0,4.1v.24l.053.032Z" transform="translate(-263.245 -112.536)" fill="#fff"/>
    <path id="Caminho_682" data-name="Caminho 682" d="M287.529,1.858c0-.446-.005-.892,0-1.338a.469.469,0,0,1,.581-.5.455.455,0,0,1,.356.468q.01,1.381,0,2.763a.468.468,0,1,1-.935-.006c-.009-.46,0-.921,0-1.381h0Z" transform="translate(-270.674)" fill="#fff"/>
    <path id="Caminho_683" data-name="Caminho 683" d="M24.047,65.646c0-.453,0-.907,0-1.36a.457.457,0,0,1,.288-.452.4.4,0,0,1,.468.071.654.654,0,0,1,.176.38c.015.914.012,1.828.006,2.742a.469.469,0,1,1-.936,0c-.008-.46,0-.922,0-1.382Z" transform="translate(-22.628 -60.051)" fill="#fff"/>
    <path id="Caminho_684" data-name="Caminho 684" d="M319.531,33.627c0-.438,0-.877,0-1.315a.476.476,0,0,1,.455-.534c.288-.007.474.2.475.533q0,1.338,0,2.674c0,.34-.181.537-.473.532a.468.468,0,0,1-.457-.53c0-.453,0-.906,0-1.359Z" transform="translate(-300.801 -29.914)" fill="#fff"/>
    <path id="Caminho_685" data-name="Caminho 685" d="M56.97,17.722c0,.446,0,.892,0,1.337a.471.471,0,0,1-.457.531.48.48,0,0,1-.473-.54q0-1.338,0-2.674a.466.466,0,0,1,.46-.527.458.458,0,0,1,.47.514c0,.453,0,.906,0,1.359Z" transform="translate(-52.746 -14.919)" fill="#fff"/>
    <path id="Caminho_686" data-name="Caminho 686" d="M156.984,56.611c0-.1-.005-.25,0-.4a.465.465,0,0,1,.455-.468.431.431,0,0,1,.465.468.442.442,0,0,0,.4.554,1.81,1.81,0,0,1,.574.308.453.453,0,0,1,.114.656.46.46,0,0,1-.643.105,1.354,1.354,0,0,0-1-.29,1.081,1.081,0,0,0-.419.167.293.293,0,0,0,.011.544,3.673,3.673,0,0,0,.511.247c.281.122.571.224.845.361a1.233,1.233,0,0,1,.787,1.23,1.313,1.313,0,0,1-.925,1.168c-.208.081-.27.181-.243.38a1.017,1.017,0,0,1,0,.219.447.447,0,0,1-.445.426.455.455,0,0,1-.477-.418c-.013-.159,0-.32,0-.435-.325-.161-.627-.288-.905-.454a.464.464,0,0,1-.18-.691.468.468,0,0,1,.7-.081,1.284,1.284,0,0,0,1.1.237.876.876,0,0,0,.2-.083c.342-.2.346-.477-.006-.655-.272-.138-.566-.234-.845-.36a4.1,4.1,0,0,1-.66-.337,1.2,1.2,0,0,1-.078-1.993,5.38,5.38,0,0,1,.68-.407Z" transform="translate(-146.674 -52.481)" fill="#fff"/>
  </g>
</svg>
