<svg xmlns="http://www.w3.org/2000/svg" width="27.797" height="20.436" viewBox="0 0 27.797 20.436">
  <g id="Camada_1-2" transform="translate(0 -0.005)">
    <path id="Caminho_687" data-name="Caminho 687" d="M0,3.1a.672.672,0,0,1,.7-.4c.932.013,1.863,0,2.8,0,.629,0,.734.089.83.714A1.27,1.27,0,0,0,5.24,3.2Q6.805,2.178,8.373,1.156a2.516,2.516,0,0,1,3.011.081c.087.064.175.126.275.2A5.543,5.543,0,0,1,13.531.31a5.34,5.34,0,1,1,1.277,10.355c-.24-.022-.486.027-.729.027q-2.144,0-4.288,0a1.156,1.156,0,0,1-.346-.044.52.52,0,0,1-.353-.549.533.533,0,0,1,.473-.483,2.591,2.591,0,0,1,.3-.008c1.42,0,2.841,0,4.261,0A.832.832,0,0,0,14.978,8.5a.844.844,0,0,0-.87-.561c-1.321,0-2.642.005-3.962-.005a1.628,1.628,0,0,1-.406-3.2c.221-.055.275-.16.309-.358a5,5,0,0,1,.72-1.857l.155-.244a1.463,1.463,0,0,0-1.959-.209Q7.6,2.956,6.238,3.846a4.471,4.471,0,0,1-1.918.7V9.608c.3,0,.595,0,.89,0,.383.005.611.209.611.538a.544.544,0,0,1-.61.545c-.289.005-.578,0-.893,0-.063.493-.394.573-.82.565-.932-.018-1.863-.016-2.8,0a.681.681,0,0,1-.7-.392V3.1ZM15.956,9.543c.107-.016.176-.024.244-.037a4.254,4.254,0,1,0-4.957-2.84.237.237,0,0,0,.27.19c.688-.008,1.375,0,2.063,0a1.364,1.364,0,0,0,.174-.02c.033-.473.175-.677.491-.716s.463.112.652.646h.832V5.87c-.281,0-.543.018-.8-.006a1.559,1.559,0,0,1-.568-.146,1.167,1.167,0,0,1-.6-1.159c0-.6-.053-1.218.589-1.574a3.734,3.734,0,0,1,.395-.165c.055-.488.2-.682.524-.7.345-.018.515.181.608.72a1.156,1.156,0,0,1,.945.955.57.57,0,0,1-.425.709.555.555,0,0,1-.645-.475c-.009-.033-.021-.065-.032-.094h-.844v.85c.3,0,.568,0,.839,0a1.129,1.129,0,0,1,1.117,1.1c.006.181-.009.363,0,.543a1.223,1.223,0,0,1-.948,1.426,2,2,0,0,1,.072,1.685ZM1.1,10.149H3.19V3.807H1.1v6.342Zm9.045-3.323-.185-.992a.484.484,0,0,0-.33.54A.512.512,0,0,0,10.146,6.826Z" transform="translate(0 0)" fill="#fff"/>
    <path id="Caminho_688" data-name="Caminho 688" d="M133.933,188.4a3.2,3.2,0,0,0-1.365.174c-1.95.789-3.916,1.538-5.872,2.313a5.447,5.447,0,0,1-3.454.209c-1.635-.421-3.273-.831-4.909-1.25a1.967,1.967,0,0,1-1.515-1.885,1.922,1.922,0,0,1,1.458-1.919,2.4,2.4,0,0,1,1.013-.007c1.431.3,2.854.643,4.281.964a3.593,3.593,0,0,0,1.813-.046,7.212,7.212,0,0,1-.529-1.153,1.916,1.916,0,0,1,1.073-2.232c1.465-.637,2.948-1.235,4.426-1.841a1.086,1.086,0,0,1,.4-.053c.959,0,1.917,0,2.876,0h.334c0-.165,0-.306,0-.448a.521.521,0,0,1,.548-.547q1.6-.009,3.2,0a.524.524,0,0,1,.542.555c.009.352,0,.705,0,1.058v6.214c0,.538-.175.716-.713.717-.887,0-1.773,0-2.659,0-.794,0-.839-.038-.952-.822Zm.017-5.626c-.076-.008-.12-.016-.164-.016q-1.479,0-2.958,0a.565.565,0,0,0-.212.034c-1.4.578-2.808,1.15-4.2,1.743a.908.908,0,0,0-.455,1.213.974.974,0,0,0,1.3.54c.921-.348,1.839-.7,2.757-1.057a.477.477,0,0,1,.6.1.552.552,0,0,1-.262.922q-2.026.806-4.068,1.572a5.259,5.259,0,0,1-3.118.193q-2.045-.477-4.094-.936a.891.891,0,0,0-1.146.666.9.9,0,0,0,.738,1.058c1.488.378,2.981.736,4.462,1.141a4.932,4.932,0,0,0,3.264-.1c1.9-.769,3.817-1.495,5.719-2.259a3.219,3.219,0,0,1,1.524-.286c.1.01.209,0,.322,0v-4.531Zm3.209-1H135.07v6.345h2.089Z" transform="translate(-110.464 -170.843)" fill="#fff"/>
    <path id="Caminho_689" data-name="Caminho 689" d="M127.383,176.61a.53.53,0,0,1,.535.532.545.545,0,0,1-.555.546.555.555,0,0,1-.525-.552.539.539,0,0,1,.546-.525Z" transform="translate(-119.939 -166.999)" fill="#fff"/>
  </g>
</svg>
