<svg xmlns="http://www.w3.org/2000/svg" width="18.198" height="20" viewBox="0 0 18.198 20">
  <g id="Camada_1-2" transform="translate(0.003 -0.002)">
    <path id="Caminho_897" data-name="Caminho 897" d="M0,6.305c0-.739-.013-1.478,0-2.217A2.689,2.689,0,0,1,2.12,1.482C4.237,1,6.358.537,8.476.062A3.624,3.624,0,0,1,10.1.146c1.965.445,3.934.872,5.9,1.322A2.692,2.692,0,0,1,18.183,4.21c0,1.329.032,2.659-.01,3.987a12.625,12.625,0,0,1-4.518,9.476,12.325,12.325,0,0,1-3.462,2.1,2.706,2.706,0,0,1-2.172,0,12.679,12.679,0,0,1-7.6-8.606A12.3,12.3,0,0,1,0,7.606c.007-.433,0-.867,0-1.3Zm1.809.128v.319A14.893,14.893,0,0,0,1.99,9.831a10.912,10.912,0,0,0,6.654,8.242,1.071,1.071,0,0,0,.9,0,10.877,10.877,0,0,0,3.842-2.656A10.668,10.668,0,0,0,16.335,8.5c.067-1.446.032-2.9.033-4.347a.9.9,0,0,0-.774-.93c-2.056-.46-4.111-.92-6.17-1.368a1.626,1.626,0,0,0-.671,0c-2.044.445-4.085.906-6.127,1.361a.921.921,0,0,0-.815,1c0,.739,0,1.478,0,2.217Z" transform="translate(0 0)" fill="#fff"/>
    <path id="Caminho_898" data-name="Caminho 898" d="M98.072,117.082c.1-.091.163-.153.229-.216q1.757-1.709,3.514-3.418a.912.912,0,1,1,1.274,1.3c-.619.617-1.244,1.227-1.867,1.84l-2.355,2.317a.987.987,0,0,1-1.489,0Q96.4,117.951,95.43,117a.91.91,0,1,1,1.224-1.347c.41.383.8.783,1.2,1.178.075.075.137.162.215.256Z" transform="translate(-89.698 -106.716)" fill="#fff"/>
  </g>
</svg>
