<svg xmlns="http://www.w3.org/2000/svg" width="19.212" height="21.07" viewBox="0 0 19.212 21.07">
  <g id="Camada_1-2" transform="translate(0.01 0.01)">
    <path id="Caminho_692" data-name="Caminho 692" d="M101.007-.009c.164.041.33.078.493.124a3.087,3.087,0,0,1,2.223,2.916c.007.651,0,1.3,0,1.975h1.223v6.173H96.33V5.021h1.218c0-.177,0-.332,0-.488.009-.624-.03-1.253.041-1.87A3.034,3.034,0,0,1,100.153.028a.66.66,0,0,0,.112-.039h.741Zm2.708,6.272H97.564V9.944h6.151ZM102.488,5c0-.664.008-1.314,0-1.963a1.849,1.849,0,0,0-3.671-.277.337.337,0,0,0-.012.061c0,.724,0,1.448,0,2.18h3.686Z" transform="translate(-91.041)" fill="#fff"/>
    <path id="Caminho_693" data-name="Caminho 693" d="M-.009,239.321.674,238.3l.883.584v-1.29H2.8v1.3l.9-.6.684,1.025-1.244.831.719.643-.886.884-.761-.79-.757.814-.9-.892.69-.652L-.01,239.32Z" transform="translate(0 -224.531)" fill="#fff"/>
    <path id="Caminho_694" data-name="Caminho 694" d="M92.035,240.775l-.786.816-.858-.862.71-.668-1.261-.843.684-1.026.888.59v-1.3h1.231v1.311l.9-.6.685,1.025L93,240.041l.7.65-.9.9-.757-.819Z" transform="translate(-84.908 -224.427)" fill="#fff"/>
    <path id="Caminho_695" data-name="Caminho 695" d="M181.207,237.47h1.239v1.308l.9-.594.684,1.025-1.24.83.685.649-.869.87-.745-.77-.771.821-.907-.91.7-.657-1.247-.835.684-1.026.882.586v-1.3Z" transform="translate(-169.768 -224.418)" fill="#fff"/>
    <path id="Caminho_696" data-name="Caminho 696" d="M272.3,237.56v1.3l.889-.589.684,1.026-1.249.835.722.652-.895.893-.755-.82-.759.821-.9-.9.688-.655-1.24-.828.684-1.026.887.588v-1.294H272.3Z" transform="translate(-254.667 -224.503)" fill="#fff"/>
    <path id="Caminho_697" data-name="Caminho 697" d="M17.61,362.27v-1.21h2.448v1.21Z" transform="translate(-16.651 -341.21)" fill="#fff"/>
    <path id="Caminho_698" data-name="Caminho 698" d="M107.54,360.95h2.443v1.21H107.54Z" transform="translate(-101.634 -341.106)" fill="#fff"/>
    <path id="Caminho_699" data-name="Caminho 699" d="M197.25,362.21V361h2.444v1.21Z" transform="translate(-186.41 -341.153)" fill="#fff"/>
    <path id="Caminho_700" data-name="Caminho 700" d="M287.16,360.98h2.447v1.21H287.16Z" transform="translate(-271.374 -341.134)" fill="#fff"/>
    <path id="Caminho_701" data-name="Caminho 701" d="M164.817,136.53v1.206H163.6V136.53Z" transform="translate(-154.611 -129.03)" fill="#fff"/>
  </g>
</svg>
