<svg xmlns="http://www.w3.org/2000/svg" width="20.431" height="20.436" viewBox="0 0 20.431 20.436">
  <g id="Camada_1-2" transform="translate(0.003)">
    <path id="Caminho_948" data-name="Caminho 948" d="M7.21,2.417c0-.219-.005-.406,0-.591A1.792,1.792,0,0,1,8.99.018q1.222-.036,2.447,0a1.788,1.788,0,0,1,1.778,1.833c0,.177,0,.353,0,.566h.316c1.257,0,2.513,0,3.77,0a3,3,0,0,1,3.116,3.121q0,2.293,0,4.586a.606.606,0,0,1-.522.685c-.4.044-.67-.216-.671-.67,0-1.3,0-2.607,0-3.911,0-.253,0-.507,0-.76a1.811,1.811,0,0,0-1.852-1.853c-.469-.008-.938,0-1.406,0H3.165A1.809,1.809,0,0,0,1.268,5a2.307,2.307,0,0,0-.048.53q-.006,2.28,0,4.558A1.8,1.8,0,0,0,3.15,12.026c.542,0,1.084,0,1.67,0,0-.209-.005-.393,0-.576a.6.6,0,1,1,1.192.008c.005.177,0,.354,0,.569h.461c.628,0,1.257,0,1.885,0a.581.581,0,0,1,.647.585.6.6,0,0,1-.659.607c-.767,0-1.534,0-2.334,0,0,.205.005.39,0,.575a.592.592,0,0,1-.592.618.578.578,0,0,1-.6-.606c-.008-.185,0-.371,0-.57-1.221-.094-2.485.241-3.581-.619-.011.123-.021.192-.021.262,0,.685,0,1.369,0,2.054a1.79,1.79,0,0,0,1.889,1.887c1.547,0,3.094,0,4.642,0a.6.6,0,1,1,.008,1.193c-.056,0-.113,0-.169,0q-2.194,0-4.388,0a3.935,3.935,0,0,1-.673-.038A2.964,2.964,0,0,1,.013,15q-.029-4.783,0-9.567a2.976,2.976,0,0,1,3.1-3.019c1.247,0,2.494,0,3.741,0h.352ZM8.443,2.4H12.02c0-.164,0-.312,0-.46-.008-.5-.22-.716-.724-.718-.619,0-1.237.021-1.854-.006-1.024-.044-1.053.3-1.02,1.091a.552.552,0,0,0,.021.094Z" transform="translate(0)" fill="#fff"/>
    <path id="Caminho_949" data-name="Caminho 949" d="M135.191,98.754a5.585,5.585,0,0,1,1.895,1.274,5.282,5.282,0,0,1,1.515,3.562c.03.89.023,1.781,0,2.672a2.975,2.975,0,0,1-2.921,2.909q-2.475.032-4.949,0a2.969,2.969,0,0,1-2.92-2.908,24.791,24.791,0,0,1,.059-3.145,5.168,5.168,0,0,1,3.1-4.246l.25-.122c-.159-.319-.313-.625-.465-.932a1.213,1.213,0,0,1,1.153-1.853q1.293-.006,2.587,0a1.214,1.214,0,0,1,1.145,1.874l-.454.914Zm-2.005,9.228c.768,0,1.536,0,2.305,0a1.818,1.818,0,0,0,1.923-1.922q.007-1.1,0-2.193a4.2,4.2,0,0,0-8.363-.605c-.074.922-.045,1.853-.047,2.781a1.816,1.816,0,0,0,1.933,1.939c.749,0,1.5,0,2.249,0Zm-1.4-10.8c.2.4.379.772.573,1.13a.293.293,0,0,0,.217.109c.418.011.836.008,1.255,0,.073,0,.183-.027.21-.077.2-.374.385-.758.586-1.163h-2.842Z" transform="translate(-118.193 -88.75)" fill="#fff"/>
    <path id="Caminho_950" data-name="Caminho 950" d="M69.6,64.163c1.566,0,3.132,0,4.7,0,.433,0,.715.274.681.641a.6.6,0,0,1-.522.546,1.6,1.6,0,0,1-.225.008H64.922c-.439,0-.7-.192-.73-.534a.571.571,0,0,1,.543-.653c.234-.016.468-.008.7-.008H69.6Z" transform="translate(-59.367 -59.339)" fill="#fff"/>
    <path id="Caminho_951" data-name="Caminho 951" d="M178.265,156.852c.112.006.2.008.3.017a.611.611,0,0,1,.588.6.6.6,0,0,1-.591.6c-.317.019-.637.006-.955.007-.084,0-.168,0-.253,0-.195.006-.322.125-.286.3a.459.459,0,0,0,.28.274,1.8,1.8,0,0,0,.5.015,1.525,1.525,0,0,1,1.584,1.268,1.5,1.5,0,0,1-1.024,1.644c-.065.027-.107.12-.15.189-.017.028,0,.074,0,.11-.015.426-.256.7-.613.694s-.575-.266-.6-.682c0-.056-.006-.112-.01-.189-.071-.008-.142-.02-.213-.023-.413-.026-.673-.26-.672-.607s.274-.6.7-.6q.492-.008.984,0c.222,0,.411-.045.407-.307,0-.244-.188-.288-.4-.288a5.112,5.112,0,0,1-.728-.032,1.484,1.484,0,0,1-1.261-1.32,1.458,1.458,0,0,1,.962-1.52c.165-.06.234-.126.233-.31,0-.453.242-.728.607-.722s.577.27.6.709c0,.047.005.093.011.173Z" transform="translate(-162.633 -144.247)" fill="#fff"/>
  </g>
</svg>
