<svg xmlns="http://www.w3.org/2000/svg" width="14.045" height="14.051" viewBox="0 0 14.045 14.051">
  <g id="Camada_1-2" transform="translate(-0.001)">
    <path id="Caminho_656" data-name="Caminho 656" d="M14.046,6.584v.878c-.008.04-.018.08-.024.12-.046.311-.074.627-.139.934A7.023,7.023,0,1,1,5.813.106C6.069.063,6.328.035,6.585,0h.878c.035.008.07.017.106.023.361.056.726.089,1.081.17a7.009,7.009,0,0,1,5.291,5.619c.043.256.071.515.107.772ZM1.1,7.013A5.925,5.925,0,1,0,7.029,1.1,5.935,5.935,0,0,0,1.1,7.013Z" transform="translate(0)" fill="#fff"/>
    <path id="Caminho_657" data-name="Caminho 657" d="M121.645,67.4A2.633,2.633,0,1,1,124.3,64.78a2.638,2.638,0,0,1-2.651,2.616Zm.019-4.169a1.536,1.536,0,1,0,1.534,1.537,1.54,1.54,0,0,0-1.534-1.537Z" transform="translate(-114.666 -59.852)" fill="#fff"/>
    <path id="Caminho_658" data-name="Caminho 658" d="M98.624,231.24a4.183,4.183,0,0,1,2.176.453,4.078,4.078,0,0,1,1.251,1.007.548.548,0,1,1-.832.713,2.794,2.794,0,0,0-1.8-1.031,4.4,4.4,0,0,0-2.269.175A2.924,2.924,0,0,0,96,233.4a.548.548,0,1,1-.866-.673,4.006,4.006,0,0,1,1.832-1.273,4.446,4.446,0,0,1,1.657-.214Z" transform="translate(-91.525 -222.76)" fill="#fff"/>
  </g>
</svg>
