<svg xmlns="http://www.w3.org/2000/svg" width="13.741" height="16.357" viewBox="0 0 13.741 16.357">
  <g id="plane" transform="translate(0.003 3.135)">
    <g id="Camada_1-2" transform="translate(-0.003 -3.124)">
      <path id="Caminho_571" data-name="Caminho 571" d="M69.184,355.856q-1.875-.511-3.749-1.022a1.487,1.487,0,0,0-1.141.144c-.092.05-.186.1-.3.158a1.192,1.192,0,0,1-.01-.122c.025-.883.054-1.766.075-2.649a.233.233,0,0,1,.135-.224,3.044,3.044,0,0,1,3.063-.067,3.15,3.15,0,0,0,1.434.377c.623.007,1.245.032,1.867.051a1.245,1.245,0,0,1,1.16.89c.012.039.017.081.029.141-.069,0-.125,0-.181,0l-2.714-.073a1.417,1.417,0,0,0-.144,0,.239.239,0,0,0-.232.237.233.233,0,0,0,.225.242c.181.013.362.016.543.021q1.333.037,2.666.072c.275.007.374-.077.336-.348-.031-.222.051-.308.242-.394.669-.3,1.328-.624,1.991-.935a.861.861,0,0,1,1.026.168c-.048.033-.093.066-.14.1q-2.2,1.421-4.394,2.844a2.69,2.69,0,0,1-1.03.36c-.052.009-.1.022-.154.033Z" transform="translate(-61.768 -339.51)" fill="#fff"/>
      <path id="Caminho_572" data-name="Caminho 572" d="M103.69,124.075a3.5,3.5,0,1,1,3.514,3.495A3.5,3.5,0,0,1,103.69,124.075Zm3.214,2.058a2.052,2.052,0,0,0,0,.267.22.22,0,0,0,.236.212.224.224,0,0,0,.238-.211.66.66,0,0,0,0-.175c-.011-.1.023-.143.127-.175a1.141,1.141,0,0,0,.763-1.469,1.16,1.16,0,0,0-1.1-.781.661.661,0,1,1,.68-.69c.02.178.113.276.252.268a.256.256,0,0,0,.226-.309,1.047,1.047,0,0,0-.37-.77,4.946,4.946,0,0,0-.583-.348,1.84,1.84,0,0,0,0-.256.217.217,0,0,0-.226-.2.224.224,0,0,0-.247.2.616.616,0,0,0,0,.175.172.172,0,0,1-.136.207,1.143,1.143,0,0,0,.13,2.174c.138.035.285.033.425.059a.655.655,0,0,1,.537.628.668.668,0,0,1-1.335.039c-.019-.174-.113-.269-.259-.26s-.232.117-.227.29a.993.993,0,0,0,.29.707,5.524,5.524,0,0,0,.575.425Z" transform="translate(-100.094 -116.399)" fill="#fff"/>
      <path id="Caminho_573" data-name="Caminho 573" d="M1.717,345.807H0c.041-1.466.08-2.9.12-4.327H1.834c-.04,1.463-.079,2.9-.118,4.327Z" transform="translate(0 -329.651)" fill="#fff"/>
      <path id="Caminho_574" data-name="Caminho 574" d="M197.781,1.558c0,.415,0,.83,0,1.245,0,.2-.093.31-.245.306s-.237-.115-.238-.3q0-1.261,0-2.522c0-.184.092-.3.239-.3s.243.109.243.291c0,.426,0,.852,0,1.277Z" transform="translate(-190.457 0)" fill="#fff"/>
      <path id="Caminho_575" data-name="Caminho 575" d="M137.311,40.87c0-.2,0-.392,0-.589a.241.241,0,1,1,.48,0q0,.6,0,1.209a.241.241,0,1,1-.48,0C137.308,41.284,137.311,41.077,137.311,40.87Z" transform="translate(-132.549 -38.643)" fill="#fff"/>
      <path id="Caminho_576" data-name="Caminho 576" d="M257.718,40.9c0,.2,0,.394,0,.591a.242.242,0,1,1-.481.007q-.007-.607,0-1.214a.242.242,0,0,1,.247-.258.239.239,0,0,1,.235.266c0,.2,0,.4,0,.607Z" transform="translate(-248.314 -38.651)" fill="#fff"/>
    </g>
  </g>
</svg>
