<svg id="Camada_1-2" xmlns="http://www.w3.org/2000/svg" width="20.763" height="13.369" viewBox="0 0 20.763 13.369">
  <path id="Caminho_899" data-name="Caminho 899" d="M17.276,12.342h3.487v1.026H0V12.345H3.6c-.086-.072-.125-.107-.167-.139a2.6,2.6,0,0,1-.8-.961.291.291,0,0,0-.322-.191c-.354.011-.708.006-1.062,0a1.094,1.094,0,0,1-1.2-1.2c0-.2,0-.4,0-.6a1.1,1.1,0,0,1,.42-.887.41.41,0,0,0,.13-.27c.011-.65.006-1.3.006-1.949A1.867,1.867,0,0,1,2.342,4.082c.87-.161,1.736-.34,2.605-.5a.715.715,0,0,0,.547-.427C5.846,2.431,6.211,1.715,6.568,1A1.666,1.666,0,0,1,8.18,0q4.672.005,9.343,0a1.622,1.622,0,0,1,1.718,1.474c.22,1.294.451,2.585.676,3.878a1.921,1.921,0,0,1,.028.33c0,.775.006,1.55,0,2.325a.25.25,0,0,0,.157.274.947.947,0,0,1,.565.816,5.766,5.766,0,0,1-.008,1.016,1.028,1.028,0,0,1-.972.928c-.382.027-.767.018-1.151.013a.249.249,0,0,0-.271.164,2.551,2.551,0,0,1-.793.965l-.2.158ZM1.664,8.139c.4,0,.789-.006,1.178,0A.5.5,0,0,0,3.214,8a2.63,2.63,0,0,1,2.673-.6A2.632,2.632,0,0,1,7.77,9.441c.041.185.056.374.083.56h5.183c.031-.209.044-.41.091-.6a2.638,2.638,0,0,1,1.916-2.013,2.559,2.559,0,0,1,2.653.654c.04.039.093.091.141.092.351.008.7,0,1.078,0,0-.374,0-.72,0-1.065A11.532,11.532,0,0,0,18.881,5.5c-.188-1.261-.432-2.514-.655-3.769-.1-.579-.238-.693-.82-.694-3.041,0-6.081,0-9.122,0a.811.811,0,0,0-.836.511c-.331.708-.7,1.4-1.041,2.1a1.634,1.634,0,0,1-1.229.945l-.325.063-1.271.253c0,.047,0,.069.006.089A1.476,1.476,0,0,1,2.237,6.71c-.188.016-.378,0-.573,0V8.139Zm3.39,3.574A1.709,1.709,0,1,0,5.083,8.3,1.751,1.751,0,0,0,3.36,9.95a1.718,1.718,0,0,0,1.694,1.763Zm10.732,0A1.711,1.711,0,1,0,14.1,9.935a1.739,1.739,0,0,0,1.685,1.778Zm-1.42.615a2.689,2.689,0,0,1-.973-1.058.344.344,0,0,0-.373-.217c-1.659.007-3.319.011-4.979,0a.575.575,0,0,0-.617.338,4.168,4.168,0,0,1-.655.765,2,2,0,0,1-.212.173h7.81ZM2.3,9.968l.124-.777H1.133L1.1,9.968Zm17.344-.748H18.475L18.6,10h.993c.018-.262.036-.509.055-.778ZM2.538,5.126c-.5.047-.751.22-.8.54C2.44,5.749,2.625,5.507,2.538,5.126Z" transform="translate(0 0)" fill="#fff"/>
  <path id="Caminho_900" data-name="Caminho 900" d="M126.694,33.937c-1.469,0-2.938-.017-4.406.007a.882.882,0,0,1-.843-1.238q.444-1.12.9-2.234A.746.746,0,0,1,123.1,30h7.683a.9.9,0,0,1,1.015.9q.13.987.273,1.972a.883.883,0,0,1-.929,1.067c-1.484,0-2.967,0-4.45,0Zm1.419-2.883h-2.285v1.82h2.285Zm-3.354-.009c-.488,0-.958,0-1.427.007-.054,0-.128.087-.154.149-.213.509-.416,1.022-.622,1.534a.827.827,0,0,0-.03.14h2.233v-1.83Zm6.016.014h-1.59v1.817h1.839C130.941,32.266,130.859,31.671,130.775,31.059Z" transform="translate(-114.196 -28.225)" fill="#fff"/>
  <path id="Caminho_901" data-name="Caminho 901" d="M181.906,108.98V110H180.6V108.98Z" transform="translate(-169.916 -102.533)" fill="#fff"/>
</svg>
